<svg xmlns="http://www.w3.org/2000/svg" xmlns:xlink="http://www.w3.org/1999/xlink" width="80" height="80" viewBox="0 0 80 80">
  <defs>
    <clipPath id="clip-path">
      <rect id="Rectángulo_373608" data-name="Rectángulo 373608" width="80" height="80" transform="translate(625 2054)" fill="#fff"/>
    </clipPath>
  </defs>
  <g id="Enmascarar_grupo_51" data-name="Enmascarar grupo 51" transform="translate(-625 -2054)" clip-path="url(#clip-path)">
    <g id="seguro" transform="translate(625 2054)">
      <g id="Grupo_1064822" data-name="Grupo 1064822">
        <path id="Trazado_778424" data-name="Trazado 778424" d="M56.042,31.211H48.355V20.32a8.328,8.328,0,1,0-16.657,0V31.211H24.01V20.32a16.016,16.016,0,1,1,32.033,0V31.211Z" fill="#685e68"/>
        <path id="Trazado_778425" data-name="Trazado 778425" d="M42.38,4.473A16.042,16.042,0,0,0,28.7,20.319V31.21H24.01V20.319A16.035,16.035,0,0,1,40.026,4.3a16.309,16.309,0,0,1,2.354.171Z" fill="#554e56"/>
        <path id="Trazado_778426" data-name="Trazado 778426" d="M57.4,65.549H22.652a2.486,2.486,0,0,1-2.486-2.486V30.878a2.486,2.486,0,0,1,2.486-2.486H57.4a2.486,2.486,0,0,1,2.486,2.486V63.063A2.486,2.486,0,0,1,57.4,65.549Z" fill="#fe646f"/>
        <path id="Trazado_778427" data-name="Trazado 778427" d="M44.018,56.415H36.034a.744.744,0,0,1-.74-.826l1.2-10.714a.945.945,0,0,0-.148-.618,4.369,4.369,0,1,1,7.352,0,.947.947,0,0,0-.148.619l1.2,10.713A.744.744,0,0,1,44.018,56.415Z" fill="#554e56"/>
        <path id="Trazado_778428" data-name="Trazado 778428" d="M27.346,65.549H22.653a2.486,2.486,0,0,1-2.487-2.486V30.879a2.488,2.488,0,0,1,2.487-2.487h4.693a2.488,2.488,0,0,0-2.487,2.487V63.063A2.486,2.486,0,0,0,27.346,65.549Z" fill="#fd4755"/>
        <path id="Trazado_778429" data-name="Trazado 778429" d="M75.066,75.784H4.987A3.787,3.787,0,0,1,1.2,72V55.335a3.787,3.787,0,0,1,3.787-3.787H75.066a3.787,3.787,0,0,1,3.787,3.787V72A3.787,3.787,0,0,1,75.066,75.784Z" fill="#a2f4c1"/>
        <path id="Trazado_778430" data-name="Trazado 778430" d="M9.68,75.783H4.987A3.786,3.786,0,0,1,1.2,72V55.335a3.788,3.788,0,0,1,3.787-3.787H9.68a3.788,3.788,0,0,0-3.787,3.787V72A3.786,3.786,0,0,0,9.68,75.783Z" fill="#78d0b1"/>
      </g>
      <g id="Grupo_1064823" data-name="Grupo 1064823">
        <path id="Trazado_778431" data-name="Trazado 778431" d="M13.079,71.239a1.173,1.173,0,0,0,1.173-1.173V66.314L17.5,68.19a1.173,1.173,0,1,0,1.173-2.032l-3.249-1.876,3.249-1.876A1.173,1.173,0,0,0,17.5,60.374L14.252,62.25V58.5a1.173,1.173,0,0,0-2.347,0v3.752L8.656,60.373a1.173,1.173,0,0,0-1.173,2.032l3.249,1.876L7.483,66.158A1.173,1.173,0,1,0,8.656,68.19l3.249-1.876v3.752a1.173,1.173,0,0,0,1.173,1.174Z"/>
        <path id="Trazado_778432" data-name="Trazado 778432" d="M42.948,67.761a1.173,1.173,0,0,0,1.6.429L47.8,66.314v3.752a1.173,1.173,0,1,0,2.347,0V66.314L53.4,68.19a1.173,1.173,0,1,0,1.173-2.032L51.32,64.282l3.249-1.876A1.173,1.173,0,0,0,53.4,60.374L50.147,62.25V58.5a1.173,1.173,0,0,0-2.347,0v3.752l-3.249-1.876a1.173,1.173,0,0,0-1.173,2.032l3.249,1.876-3.249,1.876a1.174,1.174,0,0,0-.429,1.6Z"/>
        <path id="Trazado_778433" data-name="Trazado 778433" d="M25,67.761a1.173,1.173,0,0,0,1.6.429l3.249-1.876v3.752a1.173,1.173,0,1,0,2.347,0V66.314l3.249,1.876a1.173,1.173,0,1,0,1.173-2.032l-3.249-1.876,3.249-1.876a1.173,1.173,0,0,0-1.173-2.032L32.2,62.25V58.5a1.173,1.173,0,1,0-2.347,0V62.25L26.6,60.374a1.173,1.173,0,1,0-1.173,2.032l3.249,1.876L25.43,66.158a1.173,1.173,0,0,0-.429,1.6Z"/>
        <path id="Trazado_778434" data-name="Trazado 778434" d="M60.9,67.761a1.173,1.173,0,0,0,1.6.429l3.249-1.876v3.752a1.173,1.173,0,1,0,2.347,0V66.314l3.249,1.876a1.173,1.173,0,1,0,1.173-2.032l-3.249-1.876,3.249-1.876a1.173,1.173,0,0,0-1.173-2.032L68.094,62.25V58.5a1.173,1.173,0,1,0-2.347,0V62.25L62.5,60.374a1.173,1.173,0,1,0-1.173,2.032l3.249,1.876-3.249,1.876a1.173,1.173,0,0,0-.429,1.6Z"/>
        <path id="Trazado_778435" data-name="Trazado 778435" d="M75.039,50.331H61.033V39.1a1.173,1.173,0,1,0-2.347,0V50.331H45.327L44.7,44.785a5.543,5.543,0,1,0-9.406,0l-.624,5.545H21.313v-19.5a1.314,1.314,0,0,1,1.313-1.313H57.374a1.314,1.314,0,0,1,1.313,1.313v2.792a1.173,1.173,0,0,0,2.347,0V30.834a3.663,3.663,0,0,0-3.659-3.659H57.19v-6.9a17.189,17.189,0,1,0-34.379,0v6.9h-.185a3.663,3.663,0,0,0-3.659,3.659v19.5H4.961A4.966,4.966,0,0,0,0,55.292V71.953a4.966,4.966,0,0,0,4.961,4.961h8.118a1.173,1.173,0,1,0,0-2.347H4.961a2.617,2.617,0,0,1-2.614-2.614V55.292a2.617,2.617,0,0,1,2.614-2.614H75.039a2.617,2.617,0,0,1,2.614,2.614V71.953a2.617,2.617,0,0,1-2.614,2.614H18.554a1.173,1.173,0,1,0,0,2.347H75.039A4.966,4.966,0,0,0,80,71.953V55.292a4.966,4.966,0,0,0-4.961-4.961ZM47.156,27.175H32.844v-6.9a7.156,7.156,0,1,1,14.311,0Zm-22-6.9a14.843,14.843,0,1,1,29.686,0v6.9H49.5v-6.9a9.5,9.5,0,0,0-19,0v6.9H25.157Zm12.154,23.3a3.183,3.183,0,0,1-.5-1.924,3.229,3.229,0,0,1,2.983-2.993,3.2,3.2,0,0,1,2.9,4.914,2.14,2.14,0,0,0-.328,1.386l.6,5.368H37.034l.6-5.373a2.123,2.123,0,0,0-.328-1.378Z"/>
      </g>
    </g>
  </g>
</svg>
