<svg xmlns="http://www.w3.org/2000/svg" xmlns:xlink="http://www.w3.org/1999/xlink" width="80" height="80" viewBox="0 0 80 80">
  <defs>
    <clipPath id="clip-path">
      <rect id="Rectángulo_373609" data-name="Rectángulo 373609" width="80" height="80" transform="translate(1045 2054)" fill="#fff"/>
    </clipPath>
  </defs>
  <g id="Enmascarar_grupo_53" data-name="Enmascarar grupo 53" transform="translate(-1045 -2054)" clip-path="url(#clip-path)">
    <g id="actualizacion-del-sistema" transform="translate(1044.251 2053.25)">
      <path id="Trazado_778455" data-name="Trazado 778455" d="M79.5,71.81a4.711,4.711,0,0,1-4.711,4.711H6.71a4.711,4.711,0,0,1,0-9.421H74.789A4.711,4.711,0,0,1,79.5,71.81Z" fill="#fff"/>
      <path id="Trazado_778456" data-name="Trazado 778456" d="M79.5,71.8a4.708,4.708,0,0,1-4.712,4.712H6.712a4.706,4.706,0,1,1,0-9.412H74.787A4.705,4.705,0,0,1,79.5,71.8Z" fill="#fff"/>
      <path id="Trazado_778457" data-name="Trazado 778457" d="M58.849,71.8a4.708,4.708,0,0,1-4.712,4.712H6.712a4.706,4.706,0,1,1,0-9.412H54.137A4.7,4.7,0,0,1,58.849,71.8Z" fill="#ff787d"/>
      <path id="Trazado_778458" data-name="Trazado 778458" d="M67.7,28.991a6.867,6.867,0,0,1-5.775-4.55q-.281-.733-.6-1.45a6.9,6.9,0,0,1,.863-7.325l.262-.325-4.687-4.687-.325.262a6.923,6.923,0,0,1-7.325.862q-.717-.319-1.45-.6a6.868,6.868,0,0,1-4.55-5.788l-.038-.412H37.437l-.05.412a6.868,6.868,0,0,1-4.55,5.788q-.733.281-1.45.6a6.923,6.923,0,0,1-7.325-.862l-.325-.262-4.687,4.687.262.325a6.9,6.9,0,0,1,.862,7.325q-.319.717-.6,1.45a6.867,6.867,0,0,1-5.775,4.55l-.425.038v6.638l.425.037a6.9,6.9,0,0,1,5.775,4.563c.188.488.387.975.6,1.438a6.919,6.919,0,0,1-.862,7.337l-.262.325,4.687,4.687.325-.262a6.9,6.9,0,0,1,7.325-.862q.714.321,1.45.588a6.9,6.9,0,0,1,4.55,5.788l.05.425h6.638l.038-.425a6.9,6.9,0,0,1,4.55-5.788q.736-.266,1.45-.588a6.9,6.9,0,0,1,7.325.862l.325.262,4.687-4.687-.262-.325a6.919,6.919,0,0,1-.863-7.337c.213-.463.412-.95.6-1.438A6.9,6.9,0,0,1,67.7,35.7l.425-.037V29.029ZM40.749,49.066a16.712,16.712,0,1,1,16.7-16.725A16.7,16.7,0,0,1,40.749,49.066Z" fill="#43c3ff"/>
      <g id="Grupo_1064824" data-name="Grupo 1064824">
        <path id="Trazado_778459" data-name="Trazado 778459" d="M80.749,71.8a6.022,6.022,0,0,0-5.961-5.955H6.71A5.967,5.967,0,0,0,.749,71.8v.006A5.967,5.967,0,0,0,6.71,77.77H74.789a5.967,5.967,0,0,0,5.961-5.961V71.8ZM6.711,68.354H54.137a3.456,3.456,0,1,1,0,6.912H6.711a3.456,3.456,0,1,1,0-6.912Zm68.076,6.912H58.972a5.868,5.868,0,0,0,0-6.912H74.788a3.456,3.456,0,1,1,0,6.912ZM13.262,36.915A5.629,5.629,0,0,1,18.408,40.7q.288.772.63,1.522a5.634,5.634,0,0,1-.951,6.335,1.249,1.249,0,0,0,.077,1.683l4.692,4.694a1.253,1.253,0,0,0,1.681.079,5.645,5.645,0,0,1,6.338-.953q.751.341,1.523.629a5.625,5.625,0,0,1,3.787,5.145,1.25,1.25,0,0,0,1.245,1.137h6.638a1.25,1.25,0,0,0,1.245-1.137A5.626,5.626,0,0,1,49.1,54.693q.774-.288,1.526-.63a5.641,5.641,0,0,1,6.333.952,1.249,1.249,0,0,0,1.683-.078l4.694-4.694a1.249,1.249,0,0,0,.079-1.681,5.64,5.64,0,0,1-.953-6.337q.342-.75.63-1.523a5.633,5.633,0,0,1,5.147-3.788,1.25,1.25,0,0,0,1.135-1.244V29.032a1.25,1.25,0,0,0-1.135-1.244A5.629,5.629,0,0,1,63.091,24q-.288-.772-.63-1.522a5.638,5.638,0,0,1,.953-6.338,1.249,1.249,0,0,0-.079-1.68L58.642,9.766a1.248,1.248,0,0,0-1.682-.078,5.641,5.641,0,0,1-6.335.952q-.751-.341-1.525-.63a5.621,5.621,0,0,1-3.787-5.144,1.25,1.25,0,0,0-1.245-1.137H37.432a1.25,1.25,0,0,0-1.245,1.134A5.628,5.628,0,0,1,32.4,10.01q-.773.288-1.525.629a5.636,5.636,0,0,1-6.338-.953,1.249,1.249,0,0,0-1.68.08l-4.692,4.693a1.25,1.25,0,0,0-.078,1.682,5.641,5.641,0,0,1,.952,6.335q-.342.751-.63,1.524a5.66,5.66,0,0,1-5.148,3.788,1.25,1.25,0,0,0-1.134,1.244V35.67a1.249,1.249,0,0,0,1.135,1.244Zm1.365-6.776a8.145,8.145,0,0,0,6.123-5.263q.259-.692.564-1.365a8.186,8.186,0,0,0-.6-8.066l3.13-3.13a8.18,8.18,0,0,0,8.065.6q.672-.305,1.365-.563a8.15,8.15,0,0,0,5.265-6.124h4.424a8.149,8.149,0,0,0,5.265,6.124q.692.257,1.364.563a8.192,8.192,0,0,0,8.066-.6l3.13,3.13a8.186,8.186,0,0,0-.6,8.066q.3.672.564,1.363a8.147,8.147,0,0,0,6.123,5.265v4.425a8.146,8.146,0,0,0-6.123,5.264q-.259.691-.564,1.364a8.185,8.185,0,0,0,.6,8.066l-3.13,3.13a8.186,8.186,0,0,0-8.066-.6q-.671.305-1.364.562a8.151,8.151,0,0,0-5.265,6.124H38.538a8.15,8.15,0,0,0-5.266-6.125q-.691-.257-1.362-.563a8.187,8.187,0,0,0-8.066.6l-3.129-3.13a8.19,8.19,0,0,0,.6-8.067q-.3-.671-.563-1.362a8.15,8.15,0,0,0-6.124-5.265V30.139Z"/>
        <path id="Trazado_778460" data-name="Trazado 778460" d="M40.749,50.31A17.959,17.959,0,1,0,22.8,32.341,17.979,17.979,0,0,0,40.749,50.31Zm0-33.417A15.459,15.459,0,1,1,25.3,32.341,15.466,15.466,0,0,1,40.749,16.893Z"/>
        <path id="Trazado_778461" data-name="Trazado 778461" d="M33.516,33.355l3.9-2.811a1.25,1.25,0,0,0-1.462-2.029l-1.225.883a6.709,6.709,0,0,1,11.555-.882,1.25,1.25,0,1,0,2.056-1.423,9.226,9.226,0,0,0-16,1.475l-.55-1.132a1.25,1.25,0,1,0-2.249,1.093L31.6,32.769a1.272,1.272,0,0,0,1.913.586ZM48,31.31l-3.965,2.723a1.25,1.25,0,0,0,1.416,2.061l1.393-.957a6.66,6.66,0,0,1-6.085,3.95,6.774,6.774,0,0,1-5.552-2.925,1.25,1.25,0,1,0-2.053,1.426,9.212,9.212,0,0,0,15.962-1.358l.477,1.04a1.25,1.25,0,0,0,2.273-1.042L49.9,31.934A1.279,1.279,0,0,0,48,31.31Z"/>
      </g>
    </g>
  </g>
</svg>
