<svg xmlns="http://www.w3.org/2000/svg" xmlns:xlink="http://www.w3.org/1999/xlink" width="1239.917" height="147.333" viewBox="0 0 1239.917 147.333">
  <defs>
    <clipPath id="clip-path">
      <rect id="Rectángulo_373611" data-name="Rectángulo 373611" width="62" height="62" transform="translate(243 2887)" fill="#e01650"/>
    </clipPath>
    <clipPath id="clip-path-2">
      <rect id="Rectángulo_373612" data-name="Rectángulo 373612" width="62" height="62" transform="translate(419 2887)" fill="#e01650"/>
    </clipPath>
    <clipPath id="clip-path-3">
      <rect id="Rectángulo_373613" data-name="Rectángulo 373613" width="62" height="62" transform="translate(597 2887)" fill="#e01650"/>
    </clipPath>
    <clipPath id="clip-path-4">
      <rect id="Rectángulo_373614" data-name="Rectángulo 373614" width="62" height="62" transform="translate(769 2887)" fill="#e01650"/>
    </clipPath>
    <clipPath id="clip-path-5">
      <rect id="Rectángulo_373615" data-name="Rectángulo 373615" width="62" height="62" transform="translate(947 2887)" fill="#e01650"/>
    </clipPath>
    <clipPath id="clip-path-6">
      <rect id="Rectángulo_373616" data-name="Rectángulo 373616" width="62" height="62" transform="translate(1131 2887)" fill="#e01650"/>
    </clipPath>
    <clipPath id="clip-path-7">
      <rect id="Rectángulo_373617" data-name="Rectángulo 373617" width="62" height="62" transform="translate(1301 2887)" fill="#e01650"/>
    </clipPath>
  </defs>
  <g id="Grupo_1064846" data-name="Grupo 1064846" transform="translate(-180 -2887)">
    <path id="Trazado_777819" data-name="Trazado 777819" d="M0,0H164.748l11.169,51.949-11.169,50.384H0L11.169,53.117Z" transform="translate(180 2932)" fill="#500c75"/>
    <path id="Trazado_777872" data-name="Trazado 777872" d="M0,0H164.748l11.169,51.949-11.169,50.384H0L11.169,53.117Z" transform="translate(357.633 2932)" fill="#ffb206"/>
    <path id="Trazado_777873" data-name="Trazado 777873" d="M0,0H164.748l11.169,51.949-11.169,50.384H0L11.169,53.117Z" transform="translate(535.266 2932)" fill="#8f52f5"/>
    <path id="Trazado_777874" data-name="Trazado 777874" d="M0,0H164.748l11.169,51.949-11.169,50.384H0L11.169,53.117Z" transform="translate(712.9 2932)" fill="#500c75"/>
    <path id="Trazado_777875" data-name="Trazado 777875" d="M0,0H164.748l11.169,51.949-11.169,50.384H0L11.169,53.117Z" transform="translate(890.533 2932)" fill="#ffb206"/>
    <path id="Trazado_777876" data-name="Trazado 777876" d="M0,0H164.748l11.169,51.949-11.169,50.384H0L11.169,53.117Z" transform="translate(1068.166 2932)" fill="#8f52f5"/>
    <path id="Trazado_777877" data-name="Trazado 777877" d="M0,0H164.748l11.169,51.949-11.169,50.384H0L11.169,53.117Z" transform="translate(1244 2932)" fill="#500c75"/>
    <path id="Trazado_778640" data-name="Trazado 778640" d="M20.461,15V3.625h3.211a5.169,5.169,0,0,1,2.625.656,4.438,4.438,0,0,1,1.762,1.867,6.078,6.078,0,0,1,.629,2.781v.727a6.1,6.1,0,0,1-.621,2.82,4.369,4.369,0,0,1-1.773,1.859A5.5,5.5,0,0,1,23.609,15Zm1.5-10.148v8.922h1.578a3.434,3.434,0,0,0,2.7-1.079A4.458,4.458,0,0,0,27.2,9.621V8.957a4.529,4.529,0,0,0-.91-3.014,3.239,3.239,0,0,0-2.582-1.091ZM32.3,15H30.852V6.547H32.3ZM30.734,4.3a.863.863,0,0,1,.215-.594.807.807,0,0,1,.637-.242.819.819,0,0,1,.641.242.854.854,0,0,1,.219.594.826.826,0,0,1-.219.586.834.834,0,0,1-.641.234.821.821,0,0,1-.637-.234A.834.834,0,0,1,30.734,4.3ZM38.7,7.844a4.331,4.331,0,0,0-.711-.055A1.9,1.9,0,0,0,36.055,9v6H34.609V6.547h1.406l.023.977a2.251,2.251,0,0,1,2.016-1.133A1.477,1.477,0,0,1,38.7,6.5Zm4.688,7.313a3.693,3.693,0,0,1-2.8-1.129,4.19,4.19,0,0,1-1.078-3.02v-.266a5.073,5.073,0,0,1,.48-2.246,3.748,3.748,0,0,1,1.344-1.547A3.378,3.378,0,0,1,43.2,6.391a3.166,3.166,0,0,1,2.563,1.086,4.7,4.7,0,0,1,.914,3.109v.6H40.953a3,3,0,0,0,.73,2.02,2.3,2.3,0,0,0,1.777.77,2.517,2.517,0,0,0,1.3-.312,3.259,3.259,0,0,0,.93-.828l.883.688A3.55,3.55,0,0,1,43.383,15.156ZM43.2,7.578a1.928,1.928,0,0,0-1.469.637A3.1,3.1,0,0,0,41,10h4.234V9.891a2.753,2.753,0,0,0-.594-1.707A1.815,1.815,0,0,0,43.2,7.578Zm8.539,6.4a2.082,2.082,0,0,0,1.352-.469,1.649,1.649,0,0,0,.641-1.172H55.1a2.621,2.621,0,0,1-.5,1.383,3.293,3.293,0,0,1-1.23,1.047,3.55,3.55,0,0,1-1.629.391A3.482,3.482,0,0,1,49,14a4.59,4.59,0,0,1-1.02-3.152v-.242a5.089,5.089,0,0,1,.453-2.2,3.451,3.451,0,0,1,1.3-1.492,3.7,3.7,0,0,1,2-.531,3.39,3.39,0,0,1,2.363.852,3.043,3.043,0,0,1,1,2.211H53.734a1.992,1.992,0,0,0-.621-1.348,1.932,1.932,0,0,0-1.379-.527,2.023,2.023,0,0,0-1.707.793,3.724,3.724,0,0,0-.605,2.293v.273a3.65,3.65,0,0,0,.6,2.25A2.033,2.033,0,0,0,51.742,13.977ZM58.688,4.5V6.547h1.578V7.664H58.688v5.249a1.173,1.173,0,0,0,.211.763.888.888,0,0,0,.719.254,3.5,3.5,0,0,0,.688-.094V15a4.215,4.215,0,0,1-1.109.155,1.8,1.8,0,0,1-1.461-.586,2.517,2.517,0,0,1-.492-1.664V7.664H55.7V6.547h1.539V4.5ZM63.523,15H62.078V6.547h1.445ZM61.961,4.3a.863.863,0,0,1,.215-.594.807.807,0,0,1,.637-.242.819.819,0,0,1,.641.242.854.854,0,0,1,.219.594.826.826,0,0,1-.219.586.834.834,0,0,1-.641.234.821.821,0,0,1-.637-.234A.834.834,0,0,1,61.961,4.3Zm6.664,8.734,2.094-6.492H72.2L69.164,15h-1.1L65,6.547h1.477ZM78.688,15a3.036,3.036,0,0,1-.2-.891,3.225,3.225,0,0,1-2.406,1.047,2.984,2.984,0,0,1-2.051-.707,2.288,2.288,0,0,1-.8-1.793,2.39,2.39,0,0,1,1-2.051,4.733,4.733,0,0,1,2.824-.73h1.406V9.211A1.623,1.623,0,0,0,78.008,8a1.821,1.821,0,0,0-1.336-.449,2.108,2.108,0,0,0-1.3.391,1.151,1.151,0,0,0-.523.945H73.4a2,2,0,0,1,.449-1.223,3.066,3.066,0,0,1,1.219-.934,4.1,4.1,0,0,1,1.691-.344,3.342,3.342,0,0,1,2.289.73,2.635,2.635,0,0,1,.859,2.012v3.891a4.757,4.757,0,0,0,.3,1.852V15Zm-2.4-1.1a2.54,2.54,0,0,0,1.289-.352,2.127,2.127,0,0,0,.883-.914V10.9H77.328q-2.656,0-2.656,1.555a1.316,1.316,0,0,0,.453,1.063A1.742,1.742,0,0,0,76.289,13.9Zm10.8-1.141a1.064,1.064,0,0,0-.441-.91,4.249,4.249,0,0,0-1.539-.559,7.277,7.277,0,0,1-1.742-.562,2.479,2.479,0,0,1-.953-.781,1.869,1.869,0,0,1-.309-1.078,2.193,2.193,0,0,1,.879-1.758,3.432,3.432,0,0,1,2.246-.719,3.532,3.532,0,0,1,2.332.742,2.357,2.357,0,0,1,.895,1.9H87.008a1.3,1.3,0,0,0-.5-1.023,1.888,1.888,0,0,0-1.27-.43A1.976,1.976,0,0,0,84,7.922a1.082,1.082,0,0,0-.445.9.877.877,0,0,0,.414.789,5.1,5.1,0,0,0,1.5.508,7.8,7.8,0,0,1,1.754.578,2.558,2.558,0,0,1,1,.809,1.988,1.988,0,0,1,.324,1.152,2.163,2.163,0,0,1-.906,1.816,3.8,3.8,0,0,1-2.352.684,4.257,4.257,0,0,1-1.8-.359,2.922,2.922,0,0,1-1.223-1A2.42,2.42,0,0,1,81.82,12.4h1.445a1.5,1.5,0,0,0,.582,1.152,2.258,2.258,0,0,0,1.434.426,2.331,2.331,0,0,0,1.316-.332A1.02,1.02,0,0,0,87.094,12.758Zm10.055.125,1.969-6.336h1.547l-3.4,9.758q-.789,2.109-2.508,2.109l-.273-.023-.539-.1V17.117l.391.031a1.923,1.923,0,0,0,1.145-.3,2.149,2.149,0,0,0,.676-1.086l.32-.859L93.461,6.547h1.578Zm-84.3,17.984a5.062,5.062,0,0,1-.883,3.109,2.829,2.829,0,0,1-2.391,1.18,3.1,3.1,0,0,1-2.422-.977v4.07H5.707v-11.7h1.32l.07.938a2.977,2.977,0,0,1,2.453-1.094,2.882,2.882,0,0,1,2.41,1.148,5.117,5.117,0,0,1,.887,3.2ZM11.4,30.7a3.735,3.735,0,0,0-.609-2.258,1.963,1.963,0,0,0-1.672-.828,2.125,2.125,0,0,0-1.969,1.164V32.82a2.129,2.129,0,0,0,1.984,1.156,1.954,1.954,0,0,0,1.652-.824A4.077,4.077,0,0,0,11.4,30.7Zm7.367-2.859a4.331,4.331,0,0,0-.711-.055A1.9,1.9,0,0,0,16.129,29v6H14.684V26.547H16.09l.023.977a2.251,2.251,0,0,1,2.016-1.133,1.477,1.477,0,0,1,.641.109Zm.789,2.852a4.993,4.993,0,0,1,.488-2.234,3.643,3.643,0,0,1,1.359-1.531,3.7,3.7,0,0,1,1.988-.539,3.565,3.565,0,0,1,2.793,1.2,4.6,4.6,0,0,1,1.066,3.18v.1a5.036,5.036,0,0,1-.473,2.215,3.589,3.589,0,0,1-1.352,1.527,3.743,3.743,0,0,1-2.02.547,3.556,3.556,0,0,1-2.785-1.2A4.575,4.575,0,0,1,19.559,30.8Zm1.453.172a3.616,3.616,0,0,0,.652,2.258,2.211,2.211,0,0,0,3.5-.012,3.955,3.955,0,0,0,.648-2.418,3.61,3.61,0,0,0-.66-2.254,2.1,2.1,0,0,0-1.754-.863,2.075,2.075,0,0,0-1.727.852A3.925,3.925,0,0,0,21.012,30.867Zm11.445,3.109a2.082,2.082,0,0,0,1.352-.469,1.649,1.649,0,0,0,.641-1.172h1.367a2.621,2.621,0,0,1-.5,1.383,3.293,3.293,0,0,1-1.23,1.047,3.55,3.55,0,0,1-1.629.391A3.482,3.482,0,0,1,29.711,34a4.59,4.59,0,0,1-1.02-3.152v-.242a5.089,5.089,0,0,1,.453-2.2,3.451,3.451,0,0,1,1.3-1.492,3.7,3.7,0,0,1,2-.531,3.39,3.39,0,0,1,2.363.852,3.043,3.043,0,0,1,1,2.211H34.449a1.992,1.992,0,0,0-.621-1.348,1.932,1.932,0,0,0-1.379-.527,2.023,2.023,0,0,0-1.707.793,3.724,3.724,0,0,0-.605,2.293v.273a3.65,3.65,0,0,0,.6,2.25A2.033,2.033,0,0,0,32.457,33.977Zm8.492,1.18a3.693,3.693,0,0,1-2.8-1.129,4.19,4.19,0,0,1-1.078-3.02v-.266a5.073,5.073,0,0,1,.48-2.246A3.748,3.748,0,0,1,38.9,26.949a3.378,3.378,0,0,1,1.871-.559,3.166,3.166,0,0,1,2.563,1.086,4.7,4.7,0,0,1,.914,3.109v.6H38.52a3,3,0,0,0,.73,2.02,2.3,2.3,0,0,0,1.777.77,2.517,2.517,0,0,0,1.3-.312,3.258,3.258,0,0,0,.93-.828l.883.688A3.55,3.55,0,0,1,40.949,35.156Zm-.18-7.578a1.928,1.928,0,0,0-1.469.637A3.1,3.1,0,0,0,38.566,30H42.8v-.109a2.753,2.753,0,0,0-.594-1.707A1.815,1.815,0,0,0,40.77,27.578Zm4.8,3.125a4.952,4.952,0,0,1,.922-3.129,3.137,3.137,0,0,1,4.766-.168V23H52.7V35H51.371l-.07-.906a2.943,2.943,0,0,1-2.414,1.063,2.887,2.887,0,0,1-2.395-1.2,5.008,5.008,0,0,1-.926-3.141Zm1.445.164a3.749,3.749,0,0,0,.594,2.25,1.919,1.919,0,0,0,1.641.813A2.108,2.108,0,0,0,51.254,32.7V28.813a2.125,2.125,0,0,0-1.992-1.2,1.929,1.929,0,0,0-1.656.82A4.128,4.128,0,0,0,47.012,30.867ZM56.512,35H55.066V26.547h1.445ZM54.949,24.3a.863.863,0,0,1,.215-.594.807.807,0,0,1,.637-.242.819.819,0,0,1,.641.242.854.854,0,0,1,.219.594.826.826,0,0,1-.219.586.834.834,0,0,1-.641.234.821.821,0,0,1-.637-.234A.834.834,0,0,1,54.949,24.3Zm5.234,2.242.039.938a3.122,3.122,0,0,1,2.508-1.094,2.417,2.417,0,0,1,2.414,1.359,3.2,3.2,0,0,1,1.1-.984,3.242,3.242,0,0,1,1.6-.375q2.781,0,2.828,2.945V35H69.223V29.422a1.941,1.941,0,0,0-.414-1.355,1.823,1.823,0,0,0-1.391-.449,1.916,1.916,0,0,0-1.336.48,1.949,1.949,0,0,0-.617,1.293V35H64.012V29.461a1.613,1.613,0,0,0-1.8-1.844,1.934,1.934,0,0,0-1.945,1.211V35H58.816V26.547ZM74.418,35H72.973V26.547h1.445ZM72.855,24.3a.863.863,0,0,1,.215-.594.807.807,0,0,1,.637-.242.819.819,0,0,1,.641.242.854.854,0,0,1,.219.594.826.826,0,0,1-.219.586.834.834,0,0,1-.641.234.821.821,0,0,1-.637-.234A.834.834,0,0,1,72.855,24.3Zm7.383,10.852a3.693,3.693,0,0,1-2.8-1.129,4.19,4.19,0,0,1-1.078-3.02v-.266a5.073,5.073,0,0,1,.48-2.246,3.748,3.748,0,0,1,1.344-1.547,3.378,3.378,0,0,1,1.871-.559,3.166,3.166,0,0,1,2.563,1.086,4.7,4.7,0,0,1,.914,3.109v.6H77.809a3,3,0,0,0,.73,2.02,2.3,2.3,0,0,0,1.777.77,2.517,2.517,0,0,0,1.3-.312,3.259,3.259,0,0,0,.93-.828l.883.688A3.55,3.55,0,0,1,80.238,35.156Zm-.18-7.578a1.928,1.928,0,0,0-1.469.637A3.1,3.1,0,0,0,77.855,30H82.09v-.109a2.753,2.753,0,0,0-.594-1.707A1.815,1.815,0,0,0,80.059,27.578Zm6.516-1.031.047,1.063a3.08,3.08,0,0,1,2.531-1.219q2.68,0,2.7,3.023V35H90.41V29.406a1.946,1.946,0,0,0-.418-1.352,1.675,1.675,0,0,0-1.277-.437,2.086,2.086,0,0,0-1.234.375,2.546,2.546,0,0,0-.828.984V35H85.207V26.547ZM96,24.5v2.047h1.578v1.117H96v5.249a1.173,1.173,0,0,0,.211.763.888.888,0,0,0,.719.254,3.5,3.5,0,0,0,.688-.094V35a4.215,4.215,0,0,1-1.109.155,1.8,1.8,0,0,1-1.461-.586,2.517,2.517,0,0,1-.492-1.664V27.664H93.012V26.547h1.539V24.5Zm2.727,6.2a4.993,4.993,0,0,1,.488-2.234,3.643,3.643,0,0,1,1.359-1.531,3.7,3.7,0,0,1,1.988-.539,3.565,3.565,0,0,1,2.793,1.2,4.6,4.6,0,0,1,1.066,3.18v.1a5.036,5.036,0,0,1-.473,2.215,3.589,3.589,0,0,1-1.352,1.527,3.743,3.743,0,0,1-2.02.547,3.556,3.556,0,0,1-2.785-1.2A4.575,4.575,0,0,1,98.723,30.8Zm1.453.172a3.616,3.616,0,0,0,.652,2.258,2.211,2.211,0,0,0,3.5-.012,3.955,3.955,0,0,0,.648-2.418,3.61,3.61,0,0,0-.66-2.254,2.1,2.1,0,0,0-1.754-.863,2.075,2.075,0,0,0-1.727.852A3.925,3.925,0,0,0,100.176,30.867Zm12.977,1.891a1.064,1.064,0,0,0-.441-.91,4.249,4.249,0,0,0-1.539-.559,7.277,7.277,0,0,1-1.742-.562,2.478,2.478,0,0,1-.953-.781,1.869,1.869,0,0,1-.309-1.078,2.193,2.193,0,0,1,.879-1.758,3.432,3.432,0,0,1,2.246-.719,3.532,3.532,0,0,1,2.332.742,2.357,2.357,0,0,1,.895,1.9h-1.453a1.3,1.3,0,0,0-.5-1.023,1.888,1.888,0,0,0-1.27-.43,1.976,1.976,0,0,0-1.234.344,1.082,1.082,0,0,0-.445.9.877.877,0,0,0,.414.789,5.1,5.1,0,0,0,1.5.508,7.8,7.8,0,0,1,1.754.578,2.558,2.558,0,0,1,1,.809,1.988,1.988,0,0,1,.324,1.152,2.163,2.163,0,0,1-.906,1.816,3.8,3.8,0,0,1-2.352.684,4.257,4.257,0,0,1-1.8-.359,2.922,2.922,0,0,1-1.223-1,2.42,2.42,0,0,1-.441-1.395h1.445a1.5,1.5,0,0,0,.582,1.152,2.258,2.258,0,0,0,1.434.426,2.331,2.331,0,0,0,1.316-.332A1.02,1.02,0,0,0,113.152,32.758Z" transform="translate(214 2964)" fill="#fff"/>
    <path id="Trazado_778641" data-name="Trazado 778641" d="M23.781,9.93a7.053,7.053,0,0,1-2.809-1.363,2.6,2.6,0,0,1-.879-2,2.751,2.751,0,0,1,1.074-2.223,4.269,4.269,0,0,1,2.793-.879,4.66,4.66,0,0,1,2.09.453,3.436,3.436,0,0,1,1.422,1.25,3.2,3.2,0,0,1,.5,1.742H26.469a2.08,2.08,0,0,0-.656-1.627A2.669,2.669,0,0,0,23.961,4.7a2.732,2.732,0,0,0-1.73.489,1.632,1.632,0,0,0-.621,1.358A1.468,1.468,0,0,0,22.2,7.72a5.785,5.785,0,0,0,2.008.88,9.316,9.316,0,0,1,2.219.88A3.367,3.367,0,0,1,27.613,10.6,2.861,2.861,0,0,1,28,12.109a2.658,2.658,0,0,1-1.078,2.215,4.6,4.6,0,0,1-2.883.832,5.347,5.347,0,0,1-2.187-.449,3.681,3.681,0,0,1-1.566-1.23,3,3,0,0,1-.551-1.773h1.508A1.959,1.959,0,0,0,22,13.332a3.207,3.207,0,0,0,2.035.6,2.948,2.948,0,0,0,1.82-.484,1.573,1.573,0,0,0,.633-1.32,1.545,1.545,0,0,0-.586-1.293A6.755,6.755,0,0,0,23.781,9.93ZM33.2,15.156a3.693,3.693,0,0,1-2.8-1.129,4.19,4.19,0,0,1-1.078-3.02v-.266a5.073,5.073,0,0,1,.48-2.246,3.748,3.748,0,0,1,1.344-1.547,3.378,3.378,0,0,1,1.871-.559,3.166,3.166,0,0,1,2.563,1.086,4.7,4.7,0,0,1,.914,3.109v.6H30.773a3,3,0,0,0,.73,2.02,2.3,2.3,0,0,0,1.777.77,2.517,2.517,0,0,0,1.3-.312,3.259,3.259,0,0,0,.93-.828l.883.688A3.55,3.55,0,0,1,33.2,15.156Zm-.18-7.578a1.928,1.928,0,0,0-1.469.637A3.1,3.1,0,0,0,30.82,10h4.234V9.891a2.753,2.753,0,0,0-.594-1.707A1.815,1.815,0,0,0,33.023,7.578Zm4.8,3.125a4.968,4.968,0,0,1,.914-3.145,3.151,3.151,0,0,1,4.836-.074l.07-.937h1.32V14.8A3.439,3.439,0,0,1,44,17.383a3.589,3.589,0,0,1-2.613.945,4.348,4.348,0,0,1-1.789-.391,3.08,3.08,0,0,1-1.336-1.07l.75-.867a2.826,2.826,0,0,0,2.273,1.148,2.214,2.214,0,0,0,1.645-.594,2.269,2.269,0,0,0,.59-1.672v-.727a2.971,2.971,0,0,1-2.367,1,2.887,2.887,0,0,1-2.4-1.2A5.224,5.224,0,0,1,37.828,10.7Zm1.453.164a3.79,3.79,0,0,0,.586,2.246,1.9,1.9,0,0,0,1.641.816,2.117,2.117,0,0,0,2.008-1.242V8.828a2.142,2.142,0,0,0-1.992-1.211,1.921,1.921,0,0,0-1.648.82A4.128,4.128,0,0,0,39.281,10.867Zm13.086,3.3a3.07,3.07,0,0,1-2.477.992,2.628,2.628,0,0,1-2.059-.785,3.4,3.4,0,0,1-.715-2.324v-5.5h1.445v5.461q0,1.922,1.563,1.922a2.163,2.163,0,0,0,2.2-1.234V6.547h1.445V15H52.4Zm7.688-6.32a4.331,4.331,0,0,0-.711-.055A1.9,1.9,0,0,0,57.414,9v6H55.969V6.547h1.406l.023.977a2.251,2.251,0,0,1,2.016-1.133,1.477,1.477,0,0,1,.641.109ZM62.953,15H61.508V6.547h1.445ZM61.391,4.3a.863.863,0,0,1,.215-.594.807.807,0,0,1,.637-.242.819.819,0,0,1,.641.242A.854.854,0,0,1,63.1,4.3a.826.826,0,0,1-.219.586.834.834,0,0,1-.641.234.821.821,0,0,1-.637-.234A.834.834,0,0,1,61.391,4.3Zm3.523,6.4a4.952,4.952,0,0,1,.922-3.129A3.137,3.137,0,0,1,70.6,7.406V3h1.445V15H70.719l-.07-.906a2.943,2.943,0,0,1-2.414,1.063,2.887,2.887,0,0,1-2.395-1.2,5.008,5.008,0,0,1-.926-3.141Zm1.445.164a3.749,3.749,0,0,0,.594,2.25,1.92,1.92,0,0,0,1.641.813A2.108,2.108,0,0,0,70.6,12.7V8.813a2.125,2.125,0,0,0-1.992-1.2,1.929,1.929,0,0,0-1.656.82A4.128,4.128,0,0,0,66.359,10.867ZM79.508,15a3.036,3.036,0,0,1-.2-.891A3.225,3.225,0,0,1,76.9,15.156a2.984,2.984,0,0,1-2.051-.707,2.288,2.288,0,0,1-.8-1.793,2.39,2.39,0,0,1,1-2.051,4.733,4.733,0,0,1,2.824-.73h1.406V9.211A1.623,1.623,0,0,0,78.828,8a1.821,1.821,0,0,0-1.336-.449,2.108,2.108,0,0,0-1.3.391,1.151,1.151,0,0,0-.523.945H74.219a2,2,0,0,1,.449-1.223,3.066,3.066,0,0,1,1.219-.934,4.1,4.1,0,0,1,1.691-.344,3.342,3.342,0,0,1,2.289.73,2.635,2.635,0,0,1,.859,2.012v3.891a4.757,4.757,0,0,0,.3,1.852V15Zm-2.4-1.1a2.54,2.54,0,0,0,1.289-.352,2.127,2.127,0,0,0,.883-.914V10.9H78.148q-2.656,0-2.656,1.555a1.316,1.316,0,0,0,.453,1.063A1.742,1.742,0,0,0,77.109,13.9Zm5.531-3.2a4.952,4.952,0,0,1,.922-3.129,3.137,3.137,0,0,1,4.766-.168V3h1.445V15H88.445l-.07-.906a2.943,2.943,0,0,1-2.414,1.063,2.887,2.887,0,0,1-2.395-1.2,5.008,5.008,0,0,1-.926-3.141Zm1.445.164a3.749,3.749,0,0,0,.594,2.25,1.92,1.92,0,0,0,1.641.813A2.108,2.108,0,0,0,88.328,12.7V8.813a2.125,2.125,0,0,0-1.992-1.2,1.929,1.929,0,0,0-1.656.82A4.128,4.128,0,0,0,84.086,10.867Zm18.391-.891H97.7V15H96.2V3.625h7.047V4.852H97.7v3.9h4.773ZM106.391,15h-1.453V6.547h1.453Zm.016-11.977h1.75l-2.094,2.3-1.164,0Zm7.289,9.734a1.064,1.064,0,0,0-.441-.91,4.249,4.249,0,0,0-1.539-.559,7.277,7.277,0,0,1-1.742-.562,2.479,2.479,0,0,1-.953-.781,1.869,1.869,0,0,1-.309-1.078,2.193,2.193,0,0,1,.879-1.758,3.432,3.432,0,0,1,2.246-.719,3.532,3.532,0,0,1,2.332.742,2.357,2.357,0,0,1,.895,1.9h-1.453a1.3,1.3,0,0,0-.5-1.023,1.888,1.888,0,0,0-1.27-.43,1.976,1.976,0,0,0-1.234.344,1.082,1.082,0,0,0-.445.9.877.877,0,0,0,.414.789,5.1,5.1,0,0,0,1.5.508,7.8,7.8,0,0,1,1.754.578,2.558,2.558,0,0,1,1,.809,1.988,1.988,0,0,1,.324,1.152,2.163,2.163,0,0,1-.906,1.816,3.8,3.8,0,0,1-2.352.684,4.257,4.257,0,0,1-1.8-.359,2.922,2.922,0,0,1-1.223-1,2.42,2.42,0,0,1-.441-1.395h1.445a1.5,1.5,0,0,0,.582,1.152,2.258,2.258,0,0,0,1.434.426,2.331,2.331,0,0,0,1.316-.332A1.02,1.02,0,0,0,113.7,12.758Zm4.9,2.242h-1.445V6.547h1.445ZM117.031,4.3a.863.863,0,0,1,.215-.594.807.807,0,0,1,.637-.242.819.819,0,0,1,.641.242.854.854,0,0,1,.219.594.826.826,0,0,1-.219.586.834.834,0,0,1-.641.234.821.821,0,0,1-.637-.234A.834.834,0,0,1,117.031,4.3Zm7.266,9.672a2.082,2.082,0,0,0,1.352-.469,1.649,1.649,0,0,0,.641-1.172h1.367a2.621,2.621,0,0,1-.5,1.383,3.293,3.293,0,0,1-1.23,1.047,3.55,3.55,0,0,1-1.629.391A3.482,3.482,0,0,1,121.551,14a4.59,4.59,0,0,1-1.02-3.152v-.242a5.089,5.089,0,0,1,.453-2.2,3.451,3.451,0,0,1,1.3-1.492,3.7,3.7,0,0,1,2-.531,3.39,3.39,0,0,1,2.363.852,3.043,3.043,0,0,1,1,2.211h-1.367a1.992,1.992,0,0,0-.621-1.348,1.932,1.932,0,0,0-1.379-.527,2.023,2.023,0,0,0-1.707.793,3.724,3.724,0,0,0-.605,2.293v.273a3.65,3.65,0,0,0,.6,2.25A2.033,2.033,0,0,0,124.3,13.977ZM134.5,15a3.036,3.036,0,0,1-.2-.891,3.225,3.225,0,0,1-2.406,1.047,2.984,2.984,0,0,1-2.051-.707,2.287,2.287,0,0,1-.8-1.793,2.39,2.39,0,0,1,1-2.051,4.733,4.733,0,0,1,2.824-.73h1.406V9.211A1.623,1.623,0,0,0,133.82,8a1.821,1.821,0,0,0-1.336-.449,2.107,2.107,0,0,0-1.3.391,1.151,1.151,0,0,0-.523.945h-1.453a2,2,0,0,1,.449-1.223,3.066,3.066,0,0,1,1.219-.934,4.1,4.1,0,0,1,1.691-.344,3.342,3.342,0,0,1,2.289.73,2.635,2.635,0,0,1,.859,2.012v3.891a4.757,4.757,0,0,0,.3,1.852V15Zm-2.4-1.1a2.54,2.54,0,0,0,1.289-.352,2.127,2.127,0,0,0,.883-.914V10.9h-1.133q-2.656,0-2.656,1.555a1.316,1.316,0,0,0,.453,1.063A1.742,1.742,0,0,0,132.1,13.9Z" transform="translate(372 2974)" fill="#12263f"/>
    <path id="Trazado_778642" data-name="Trazado 778642" d="M45.848,10.547V15h-1.5V3.625h4.2a4.215,4.215,0,0,1,2.926.953A3.231,3.231,0,0,1,52.527,7.1a3.189,3.189,0,0,1-1.035,2.551,4.4,4.4,0,0,1-2.965.895Zm0-1.227h2.7a2.7,2.7,0,0,0,1.844-.567,2.075,2.075,0,0,0,.641-1.64,2.143,2.143,0,0,0-.641-1.628,2.525,2.525,0,0,0-1.758-.634H45.848Zm11.773,5.836a3.693,3.693,0,0,1-2.8-1.129,4.19,4.19,0,0,1-1.078-3.02v-.266a5.073,5.073,0,0,1,.48-2.246A3.748,3.748,0,0,1,55.57,6.949a3.378,3.378,0,0,1,1.871-.559A3.166,3.166,0,0,1,60,7.477a4.7,4.7,0,0,1,.914,3.109v.6H55.191a3,3,0,0,0,.73,2.02,2.3,2.3,0,0,0,1.777.77,2.517,2.517,0,0,0,1.3-.312,3.259,3.259,0,0,0,.93-.828l.883.688A3.55,3.55,0,0,1,57.621,15.156Zm-.18-7.578a1.928,1.928,0,0,0-1.469.637A3.1,3.1,0,0,0,55.238,10h4.234V9.891a2.753,2.753,0,0,0-.594-1.707A1.815,1.815,0,0,0,57.441,7.578Zm9.234.266a4.331,4.331,0,0,0-.711-.055A1.9,1.9,0,0,0,64.035,9v6H62.59V6.547H64l.023.977a2.251,2.251,0,0,1,2.016-1.133,1.477,1.477,0,0,1,.641.109ZM69.574,15H68.121V6.547h1.453ZM69.59,3.023h1.75l-2.094,2.3-1.164,0Zm3.727,3.523.039.938a3.122,3.122,0,0,1,2.508-1.094A2.417,2.417,0,0,1,78.277,7.75a3.2,3.2,0,0,1,1.1-.984,3.242,3.242,0,0,1,1.6-.375q2.781,0,2.828,2.945V15H82.355V9.422a1.941,1.941,0,0,0-.414-1.355,1.823,1.823,0,0,0-1.391-.449,1.916,1.916,0,0,0-1.336.48A1.949,1.949,0,0,0,78.6,9.391V15H77.145V9.461a1.613,1.613,0,0,0-1.8-1.844,1.934,1.934,0,0,0-1.945,1.211V15H71.949V6.547Zm16.172,8.609a3.693,3.693,0,0,1-2.8-1.129,4.19,4.19,0,0,1-1.078-3.02v-.266a5.073,5.073,0,0,1,.48-2.246,3.748,3.748,0,0,1,1.344-1.547,3.378,3.378,0,0,1,1.871-.559,3.166,3.166,0,0,1,2.563,1.086,4.7,4.7,0,0,1,.914,3.109v.6H87.059a3,3,0,0,0,.73,2.02,2.3,2.3,0,0,0,1.777.77,2.517,2.517,0,0,0,1.3-.312,3.259,3.259,0,0,0,.93-.828l.883.688A3.55,3.55,0,0,1,89.488,15.156Zm-.18-7.578a1.928,1.928,0,0,0-1.469.637A3.1,3.1,0,0,0,87.105,10H91.34V9.891a2.753,2.753,0,0,0-.594-1.707A1.815,1.815,0,0,0,89.309,7.578ZM96.418,4.5V6.547H98V7.664H96.418v5.249a1.173,1.173,0,0,0,.211.763.888.888,0,0,0,.719.254,3.5,3.5,0,0,0,.688-.094V15a4.215,4.215,0,0,1-1.109.155,1.8,1.8,0,0,1-1.461-.586,2.517,2.517,0,0,1-.492-1.664V7.664H93.434V6.547h1.539V4.5Zm7.352,3.344a4.331,4.331,0,0,0-.711-.055A1.9,1.9,0,0,0,101.129,9v6H99.684V6.547h1.406l.023.977a2.251,2.251,0,0,1,2.016-1.133,1.477,1.477,0,0,1,.641.109Zm.789,2.852a4.993,4.993,0,0,1,.488-2.234,3.643,3.643,0,0,1,1.359-1.531,3.7,3.7,0,0,1,1.988-.539,3.565,3.565,0,0,1,2.793,1.2,4.6,4.6,0,0,1,1.066,3.18v.1a5.036,5.036,0,0,1-.473,2.215,3.589,3.589,0,0,1-1.352,1.527,3.743,3.743,0,0,1-2.02.547,3.556,3.556,0,0,1-2.785-1.2,4.575,4.575,0,0,1-1.066-3.164Zm1.453.172a3.616,3.616,0,0,0,.652,2.258,2.211,2.211,0,0,0,3.5-.012,3.955,3.955,0,0,0,.648-2.418,3.61,3.61,0,0,0-.66-2.254,2.1,2.1,0,0,0-1.754-.863,2.075,2.075,0,0,0-1.727.852A3.925,3.925,0,0,0,106.012,10.867Z" transform="translate(550 2974)" fill="#fff"/>
    <path id="Trazado_778643" data-name="Trazado 778643" d="M29.691,10.4H27.02V15H25.512V3.625h3.766a4.457,4.457,0,0,1,2.957.875A3.148,3.148,0,0,1,33.27,7.047,3.062,3.062,0,0,1,32.7,8.9a3.428,3.428,0,0,1-1.6,1.18l2.672,4.828V15H32.16ZM27.02,9.172h2.3A2.6,2.6,0,0,0,31.1,8.593a1.959,1.959,0,0,0,.66-1.55,2.062,2.062,0,0,0-.629-1.62,2.663,2.663,0,0,0-1.816-.571h-2.3Zm11.633,5.984a3.693,3.693,0,0,1-2.8-1.129,4.19,4.19,0,0,1-1.078-3.02v-.266a5.073,5.073,0,0,1,.48-2.246A3.748,3.748,0,0,1,36.6,6.949a3.378,3.378,0,0,1,1.871-.559,3.166,3.166,0,0,1,2.563,1.086,4.7,4.7,0,0,1,.914,3.109v.6H36.223a3,3,0,0,0,.73,2.02,2.3,2.3,0,0,0,1.777.77,2.517,2.517,0,0,0,1.3-.312,3.259,3.259,0,0,0,.93-.828l.883.688A3.55,3.55,0,0,1,38.652,15.156Zm-.18-7.578A1.928,1.928,0,0,0,37,8.215,3.1,3.1,0,0,0,36.27,10H40.5V9.891a2.753,2.753,0,0,0-.594-1.707A1.815,1.815,0,0,0,38.473,7.578Zm4.8,3.125a4.952,4.952,0,0,1,.922-3.129,3.137,3.137,0,0,1,4.766-.168V3H50.4V15H49.074L49,14.094a2.943,2.943,0,0,1-2.414,1.063,2.887,2.887,0,0,1-2.395-1.2,5.008,5.008,0,0,1-.926-3.141Zm1.445.164a3.749,3.749,0,0,0,.594,2.25,1.92,1.92,0,0,0,1.641.813A2.108,2.108,0,0,0,48.957,12.7V8.813a2.125,2.125,0,0,0-1.992-1.2,1.929,1.929,0,0,0-1.656.82A4.128,4.128,0,0,0,44.715,10.867ZM56.254,10.7a4.952,4.952,0,0,1,.922-3.129,3.137,3.137,0,0,1,4.766-.168V3h1.445V15H62.059l-.07-.906a2.943,2.943,0,0,1-2.414,1.063,2.887,2.887,0,0,1-2.395-1.2,5.008,5.008,0,0,1-.926-3.141Zm1.445.164a3.749,3.749,0,0,0,.594,2.25,1.92,1.92,0,0,0,1.641.813A2.108,2.108,0,0,0,61.941,12.7V8.813a2.125,2.125,0,0,0-1.992-1.2,1.929,1.929,0,0,0-1.656.82A4.128,4.128,0,0,0,57.7,10.867Zm11.438,4.289a3.693,3.693,0,0,1-2.8-1.129,4.19,4.19,0,0,1-1.078-3.02v-.266a5.073,5.073,0,0,1,.48-2.246,3.748,3.748,0,0,1,1.344-1.547,3.378,3.378,0,0,1,1.871-.559A3.166,3.166,0,0,1,71.52,7.477a4.7,4.7,0,0,1,.914,3.109v.6H66.707a3,3,0,0,0,.73,2.02,2.3,2.3,0,0,0,1.777.77,2.517,2.517,0,0,0,1.3-.312,3.259,3.259,0,0,0,.93-.828l.883.688A3.55,3.55,0,0,1,69.137,15.156Zm-.18-7.578a1.928,1.928,0,0,0-1.469.637A3.1,3.1,0,0,0,66.754,10h4.234V9.891a2.753,2.753,0,0,0-.594-1.707A1.815,1.815,0,0,0,68.957,7.578ZM79.9,15H78.4V3.625h1.5Zm3.883-8.453.047,1.063a3.08,3.08,0,0,1,2.531-1.219q2.68,0,2.7,3.023V15H87.621V9.406A1.946,1.946,0,0,0,87.2,8.055a1.675,1.675,0,0,0-1.277-.437,2.086,2.086,0,0,0-1.234.375,2.546,2.546,0,0,0-.828.984V15H82.418V6.547ZM93.207,4.5V6.547h1.578V7.664H93.207v5.249a1.173,1.173,0,0,0,.211.763.888.888,0,0,0,.719.254,3.5,3.5,0,0,0,.688-.094V15a4.215,4.215,0,0,1-1.109.155,1.8,1.8,0,0,1-1.461-.586,2.517,2.517,0,0,1-.492-1.664V7.664H90.223V6.547h1.539V4.5ZM99.98,15.156a3.693,3.693,0,0,1-2.8-1.129,4.19,4.19,0,0,1-1.078-3.02v-.266a5.073,5.073,0,0,1,.48-2.246A3.748,3.748,0,0,1,97.93,6.949,3.378,3.378,0,0,1,99.8,6.391a3.166,3.166,0,0,1,2.563,1.086,4.7,4.7,0,0,1,.914,3.109v.6H97.551a3,3,0,0,0,.73,2.02,2.3,2.3,0,0,0,1.777.77,2.517,2.517,0,0,0,1.3-.312,3.259,3.259,0,0,0,.93-.828l.883.688A3.55,3.55,0,0,1,99.98,15.156ZM99.8,7.578a1.928,1.928,0,0,0-1.469.637A3.1,3.1,0,0,0,97.6,10h4.234V9.891a2.753,2.753,0,0,0-.594-1.707A1.815,1.815,0,0,0,99.8,7.578Zm9.234.266a4.331,4.331,0,0,0-.711-.055A1.9,1.9,0,0,0,106.395,9v6h-1.445V6.547h1.406l.023.977a2.251,2.251,0,0,1,2.016-1.133,1.477,1.477,0,0,1,.641.109Zm2.7-1.3.047,1.063a3.08,3.08,0,0,1,2.531-1.219q2.68,0,2.7,3.023V15h-1.445V9.406a1.946,1.946,0,0,0-.418-1.352,1.675,1.675,0,0,0-1.277-.437,2.086,2.086,0,0,0-1.234.375,2.546,2.546,0,0,0-.828.984V15h-1.445V6.547ZM122.7,15.156a3.693,3.693,0,0,1-2.8-1.129,4.19,4.19,0,0,1-1.078-3.02v-.266A5.073,5.073,0,0,1,119.3,8.5a3.748,3.748,0,0,1,1.344-1.547,3.378,3.378,0,0,1,1.871-.559,3.166,3.166,0,0,1,2.563,1.086A4.7,4.7,0,0,1,126,10.586v.6H120.27a3,3,0,0,0,.73,2.02,2.3,2.3,0,0,0,1.777.77,2.517,2.517,0,0,0,1.3-.312,3.259,3.259,0,0,0,.93-.828l.883.688A3.55,3.55,0,0,1,122.7,15.156Zm-.18-7.578a1.928,1.928,0,0,0-1.469.637A3.1,3.1,0,0,0,120.316,10h4.234V9.891a2.753,2.753,0,0,0-.594-1.707A1.815,1.815,0,0,0,122.52,7.578ZM129.629,4.5V6.547h1.578V7.664h-1.578v5.249a1.173,1.173,0,0,0,.211.763.888.888,0,0,0,.719.254,3.5,3.5,0,0,0,.688-.094V15a4.215,4.215,0,0,1-1.109.155,1.8,1.8,0,0,1-1.461-.586,2.517,2.517,0,0,1-.492-1.664V7.664h-1.539V6.547h1.539V4.5Z" transform="translate(728 2974)" fill="#fff"/>
    <path id="Trazado_778644" data-name="Trazado 778644" d="M70.3,17H68.836l.914-5.258H64.2L63.281,17H61.813L63.789,5.625h1.469l-.852,4.891h5.547L70.8,5.625h1.477ZM77.43,8.391a3.047,3.047,0,0,1,1.82.578,3.285,3.285,0,0,1,1.121,1.551,4.8,4.8,0,0,1,.246,2.16l-.016.172a5.685,5.685,0,0,1-.734,2.23,4.309,4.309,0,0,1-1.516,1.551,3.7,3.7,0,0,1-2.039.523,3.052,3.052,0,0,1-1.816-.578,3.21,3.21,0,0,1-1.113-1.531,4.931,4.931,0,0,1-.25-2.133,5.76,5.76,0,0,1,.711-2.359,4.409,4.409,0,0,1,1.527-1.621A3.652,3.652,0,0,1,77.43,8.391Zm-2.875,4.531a4.8,4.8,0,0,0,0,1.023,2.507,2.507,0,0,0,.551,1.469,1.653,1.653,0,0,0,1.262.57,2.253,2.253,0,0,0,1.3-.348,2.919,2.919,0,0,0,1-1.121,4.721,4.721,0,0,0,.523-1.664,7.5,7.5,0,0,0,.023-1.211,2.6,2.6,0,0,0-.57-1.492,1.69,1.69,0,0,0-1.266-.578,2.3,2.3,0,0,0-1.859.859,4.245,4.245,0,0,0-.945,2.313ZM86.9,14.711q.117-.875-.961-1.234l-1.469-.43q-1.859-.641-1.8-2.125a2.341,2.341,0,0,1,1.02-1.832,3.631,3.631,0,0,1,2.27-.7,3.027,3.027,0,0,1,2.082.746,2.363,2.363,0,0,1,.77,1.9l-1.406-.008a1.319,1.319,0,0,0-.4-1.031,1.576,1.576,0,0,0-1.1-.414,2.059,2.059,0,0,0-1.266.359,1.316,1.316,0,0,0-.57.922q-.1.734.9,1.07l.711.2a4.577,4.577,0,0,1,2.063.977A1.865,1.865,0,0,1,88.3,14.6a2.37,2.37,0,0,1-.516,1.375,2.948,2.948,0,0,1-1.25.895,4.18,4.18,0,0,1-1.664.285,3.3,3.3,0,0,1-2.219-.785,2.427,2.427,0,0,1-.844-1.98l1.414.008a1.5,1.5,0,0,0,.453,1.141,1.732,1.732,0,0,0,1.242.43,2.436,2.436,0,0,0,1.336-.324A1.247,1.247,0,0,0,86.9,14.711ZM93.477,6.5l-.359,2.047h1.539l-.2,1.117H92.93l-.883,5.258a1.833,1.833,0,0,0-.008.375.6.6,0,0,0,.664.609,4.05,4.05,0,0,0,.688-.078l-.109,1.18a3.847,3.847,0,0,1-1.031.141,1.476,1.476,0,0,1-1.266-.621,2.4,2.4,0,0,1-.328-1.629l.859-5.234H90.023l.2-1.117h1.492L92.07,6.5Z" transform="translate(905 2974)" fill="#12263f"/>
    <path id="Trazado_778645" data-name="Trazado 778645" d="M48.367,12.023H43.6L42.531,15H40.984L45.328,3.625h1.313L50.992,15H49.453ZM44.055,10.8h3.867l-1.937-5.32Zm15.383.07a5.062,5.062,0,0,1-.883,3.109,2.829,2.829,0,0,1-2.391,1.18,3.1,3.1,0,0,1-2.422-.977v4.07H52.3V6.547h1.32l.07.938a2.977,2.977,0,0,1,2.453-1.094,2.882,2.882,0,0,1,2.41,1.148,5.117,5.117,0,0,1,.887,3.2ZM57.992,10.7a3.735,3.735,0,0,0-.609-2.258,1.963,1.963,0,0,0-1.672-.828,2.125,2.125,0,0,0-1.969,1.164V12.82a2.129,2.129,0,0,0,1.984,1.156,1.954,1.954,0,0,0,1.652-.824A4.077,4.077,0,0,0,57.992,10.7ZM62.844,15H61.4V3h1.445Zm3.883,0H65.281V6.547h1.445ZM65.164,4.3a.863.863,0,0,1,.215-.594.807.807,0,0,1,.637-.242.819.819,0,0,1,.641.242.854.854,0,0,1,.219.594.826.826,0,0,1-.219.586.834.834,0,0,1-.641.234.821.821,0,0,1-.637-.234A.834.834,0,0,1,65.164,4.3Zm7.266,9.672a2.082,2.082,0,0,0,1.352-.469,1.649,1.649,0,0,0,.641-1.172h1.367a2.621,2.621,0,0,1-.5,1.383,3.293,3.293,0,0,1-1.23,1.047,3.55,3.55,0,0,1-1.629.391A3.482,3.482,0,0,1,69.684,14a4.59,4.59,0,0,1-1.02-3.152v-.242a5.089,5.089,0,0,1,.453-2.2,3.451,3.451,0,0,1,1.3-1.492,3.7,3.7,0,0,1,2-.531,3.39,3.39,0,0,1,2.363.852,3.043,3.043,0,0,1,1,2.211H74.422A1.992,1.992,0,0,0,73.8,8.105a1.932,1.932,0,0,0-1.379-.527,2.023,2.023,0,0,0-1.707.793,3.724,3.724,0,0,0-.605,2.293v.273a3.65,3.65,0,0,0,.6,2.25A2.033,2.033,0,0,0,72.43,13.977ZM82.633,15a3.036,3.036,0,0,1-.2-.891,3.225,3.225,0,0,1-2.406,1.047,2.984,2.984,0,0,1-2.051-.707,2.288,2.288,0,0,1-.8-1.793,2.39,2.39,0,0,1,1-2.051A4.733,4.733,0,0,1,81,9.875h1.406V9.211A1.623,1.623,0,0,0,81.953,8a1.821,1.821,0,0,0-1.336-.449,2.108,2.108,0,0,0-1.3.391,1.151,1.151,0,0,0-.523.945H77.344a2,2,0,0,1,.449-1.223,3.066,3.066,0,0,1,1.219-.934A4.1,4.1,0,0,1,80.7,6.391a3.342,3.342,0,0,1,2.289.73,2.635,2.635,0,0,1,.859,2.012v3.891a4.757,4.757,0,0,0,.3,1.852V15Zm-2.4-1.1a2.54,2.54,0,0,0,1.289-.352,2.127,2.127,0,0,0,.883-.914V10.9H81.273q-2.656,0-2.656,1.555a1.316,1.316,0,0,0,.453,1.063A1.742,1.742,0,0,0,80.234,13.9Zm9.273.078a2.082,2.082,0,0,0,1.352-.469,1.649,1.649,0,0,0,.641-1.172h1.367a2.621,2.621,0,0,1-.5,1.383,3.293,3.293,0,0,1-1.23,1.047,3.55,3.55,0,0,1-1.629.391A3.482,3.482,0,0,1,86.762,14a4.59,4.59,0,0,1-1.02-3.152v-.242a5.089,5.089,0,0,1,.453-2.2,3.451,3.451,0,0,1,1.3-1.492,3.7,3.7,0,0,1,2-.531,3.39,3.39,0,0,1,2.363.852,3.043,3.043,0,0,1,1,2.211H91.5a1.992,1.992,0,0,0-.621-1.348A1.932,1.932,0,0,0,89.5,7.578a2.023,2.023,0,0,0-1.707.793,3.724,3.724,0,0,0-.605,2.293v.273a3.65,3.65,0,0,0,.6,2.25A2.033,2.033,0,0,0,89.508,13.977ZM96.063,15H94.617V6.547h1.445ZM94.5,4.3a.863.863,0,0,1,.215-.594.807.807,0,0,1,.637-.242.819.819,0,0,1,.641.242.854.854,0,0,1,.219.594.826.826,0,0,1-.219.586.834.834,0,0,1-.641.234.821.821,0,0,1-.637-.234A.834.834,0,0,1,94.5,4.3ZM97.992,10.7a4.993,4.993,0,0,1,.488-2.234A3.643,3.643,0,0,1,99.84,6.93a3.7,3.7,0,0,1,1.988-.539,3.565,3.565,0,0,1,2.793,1.2,4.6,4.6,0,0,1,1.066,3.18v.1a5.036,5.036,0,0,1-.473,2.215,3.589,3.589,0,0,1-1.352,1.527,3.743,3.743,0,0,1-2.02.547,3.556,3.556,0,0,1-2.785-1.2A4.575,4.575,0,0,1,97.992,10.8Zm1.453.172a3.616,3.616,0,0,0,.652,2.258,2.211,2.211,0,0,0,3.5-.012,3.955,3.955,0,0,0,.648-2.418,3.61,3.61,0,0,0-.66-2.254,2.1,2.1,0,0,0-1.754-.863,2.075,2.075,0,0,0-1.727.852A3.925,3.925,0,0,0,99.445,10.867Zm3.039-7.852h1.75l-2.094,2.3-1.164,0Zm6.383,3.531.047,1.063a3.08,3.08,0,0,1,2.531-1.219q2.68,0,2.7,3.023V15H112.7V9.406a1.946,1.946,0,0,0-.418-1.352,1.675,1.675,0,0,0-1.277-.437,2.086,2.086,0,0,0-1.234.375,2.546,2.546,0,0,0-.828.984V15H107.5V6.547Z" transform="translate(1084 2974)" fill="#fff"/>
    <path id="Trazado_778646" data-name="Trazado 778646" d="M58.5,15V3.625h3.211a5.169,5.169,0,0,1,2.625.656A4.438,4.438,0,0,1,66.1,6.148a6.078,6.078,0,0,1,.629,2.781v.727a6.1,6.1,0,0,1-.621,2.82,4.369,4.369,0,0,1-1.773,1.859A5.5,5.5,0,0,1,61.648,15ZM60,4.852v8.922h1.578a3.434,3.434,0,0,0,2.7-1.079,4.458,4.458,0,0,0,.965-3.073V8.957a4.529,4.529,0,0,0-.91-3.014A3.239,3.239,0,0,0,61.75,4.852ZM73.984,15a3.036,3.036,0,0,1-.2-.891,3.225,3.225,0,0,1-2.406,1.047,2.984,2.984,0,0,1-2.051-.707,2.288,2.288,0,0,1-.8-1.793,2.39,2.39,0,0,1,1-2.051,4.733,4.733,0,0,1,2.824-.73h1.406V9.211A1.623,1.623,0,0,0,73.3,8a1.821,1.821,0,0,0-1.336-.449,2.108,2.108,0,0,0-1.3.391,1.151,1.151,0,0,0-.523.945H68.7a2,2,0,0,1,.449-1.223,3.066,3.066,0,0,1,1.219-.934,4.1,4.1,0,0,1,1.691-.344,3.342,3.342,0,0,1,2.289.73A2.635,2.635,0,0,1,75.2,9.133v3.891a4.757,4.757,0,0,0,.3,1.852V15Zm-2.4-1.1a2.54,2.54,0,0,0,1.289-.352,2.127,2.127,0,0,0,.883-.914V10.9H72.625q-2.656,0-2.656,1.555a1.316,1.316,0,0,0,.453,1.063A1.742,1.742,0,0,0,71.586,13.9ZM79.43,4.5V6.547h1.578V7.664H79.43v5.249a1.173,1.173,0,0,0,.211.763.888.888,0,0,0,.719.254,3.5,3.5,0,0,0,.688-.094V15a4.215,4.215,0,0,1-1.109.155,1.8,1.8,0,0,1-1.461-.586,2.517,2.517,0,0,1-.492-1.664V7.664H76.445V6.547h1.539V4.5Zm2.727,6.2a4.993,4.993,0,0,1,.488-2.234A3.643,3.643,0,0,1,84,6.93a3.7,3.7,0,0,1,1.988-.539,3.565,3.565,0,0,1,2.793,1.2,4.6,4.6,0,0,1,1.066,3.18v.1a5.036,5.036,0,0,1-.473,2.215,3.589,3.589,0,0,1-1.352,1.527,3.743,3.743,0,0,1-2.02.547,3.556,3.556,0,0,1-2.785-1.2A4.575,4.575,0,0,1,82.156,10.8Zm1.453.172a3.616,3.616,0,0,0,.652,2.258,2.211,2.211,0,0,0,3.5-.012,3.955,3.955,0,0,0,.648-2.418,3.61,3.61,0,0,0-.66-2.254,2.1,2.1,0,0,0-1.754-.863,2.075,2.075,0,0,0-1.727.852A3.925,3.925,0,0,0,83.609,10.867Zm12.977,1.891a1.064,1.064,0,0,0-.441-.91,4.249,4.249,0,0,0-1.539-.559,7.277,7.277,0,0,1-1.742-.562,2.479,2.479,0,0,1-.953-.781A1.869,1.869,0,0,1,91.6,8.867a2.193,2.193,0,0,1,.879-1.758,3.432,3.432,0,0,1,2.246-.719,3.532,3.532,0,0,1,2.332.742,2.357,2.357,0,0,1,.895,1.9H96.5A1.3,1.3,0,0,0,96,8.008a1.888,1.888,0,0,0-1.27-.43,1.976,1.976,0,0,0-1.234.344,1.082,1.082,0,0,0-.445.9.877.877,0,0,0,.414.789,5.1,5.1,0,0,0,1.5.508,7.8,7.8,0,0,1,1.754.578,2.558,2.558,0,0,1,1,.809,1.988,1.988,0,0,1,.324,1.152,2.163,2.163,0,0,1-.906,1.816,3.8,3.8,0,0,1-2.352.684,4.257,4.257,0,0,1-1.8-.359,2.922,2.922,0,0,1-1.223-1,2.42,2.42,0,0,1-.441-1.395h1.445a1.5,1.5,0,0,0,.582,1.152,2.258,2.258,0,0,0,1.434.426,2.331,2.331,0,0,0,1.316-.332A1.02,1.02,0,0,0,96.586,12.758Z" transform="translate(1254 2974)" fill="#fff"/>
    <g id="Enmascarar_grupo_54" data-name="Enmascarar grupo 54" clip-path="url(#clip-path)">
      <g id="programador" transform="translate(243 2887)">
        <path id="Trazado_778462" data-name="Trazado 778462" d="M15.76,27.135v7.031l7.743.243v0l.009-.005V27.1A9.279,9.279,0,0,1,15.76,27.135Z" fill="#eab883"/>
        <path id="Trazado_778463" data-name="Trazado 778463" d="M19.394,27.966a8.962,8.962,0,0,1-3.634-.831v7.031l4.445.14-.563-1.556C19.241,31.639,19.453,31.03,19.394,27.966Z" fill="#dda36f"/>
        <path id="Trazado_778464" data-name="Trazado 778464" d="M22.9,32.613a5.542,5.542,0,0,1-6.5-.038l-.05-.037v7.754h6.657V32.538Z" fill="#efefef"/>
        <path id="Trazado_778465" data-name="Trazado 778465" d="M21.826,38.785,19.964,33.64a5.773,5.773,0,0,1-3.616-1.1v7.754h3.657C20.64,39.829,21.826,38.785,21.826,38.785Z" fill="#ddd"/>
        <path id="Trazado_778466" data-name="Trazado 778466" d="M38.322,56.545,35.128,36.692A4.363,4.363,0,0,0,31.8,33.306h0l-3.568-.987-.435-.257-7.153,6.412,0,0a1.068,1.068,0,0,1-2,0l0,0-7.153-6.412-.435.257-3.568.987h0A4.363,4.363,0,0,0,4.16,36.692L.966,56.545a3.852,3.852,0,0,0,3.777,4.547h29.8A3.852,3.852,0,0,0,38.322,56.545Z" fill="#70b5e8"/>
        <g id="Grupo_1064825" data-name="Grupo 1064825">
          <path id="Trazado_778467" data-name="Trazado 778467" d="M4.591,56.545,7.786,35A4.187,4.187,0,0,1,8.8,32.943l-1.309.362h0A4.363,4.363,0,0,0,4.16,36.692L.966,56.545a3.852,3.852,0,0,0,3.777,4.547H8.369A3.852,3.852,0,0,1,4.591,56.545Z" fill="#52a5d8"/>
          <path id="Trazado_778468" data-name="Trazado 778468" d="M18.647,38.474l-7.588-6.156,4.7-2.773v1.472Z" fill="#52a5d8"/>
          <path id="Trazado_778469" data-name="Trazado 778469" d="M20.641,38.474l7.588-6.156-4.717-2.773v1.472Z" fill="#52a5d8"/>
        </g>
        <path id="Trazado_778470" data-name="Trazado 778470" d="M15.023,56.671v4.421H24.4V56.671a2.617,2.617,0,0,1,1.983-2.534,5.313,5.313,0,0,1-2.528-3.758,1.091,1.091,0,0,0-1.067-.873H16.566a1.092,1.092,0,0,0-1.067.874,5.326,5.326,0,0,1-2.5,3.745A2.617,2.617,0,0,1,15.023,56.671Z" fill="#a4d9f4"/>
        <path id="Trazado_778471" data-name="Trazado 778471" d="M18.156,61.092V56.775a2.792,2.792,0,0,0-.529-1.638,2.283,2.283,0,0,1,.021-2.614,7.141,7.141,0,0,0,1.019-2.513,1.186,1.186,0,0,1,.239-.5h-2.34a1.092,1.092,0,0,0-1.067.874,5.326,5.326,0,0,1-2.5,3.745,2.617,2.617,0,0,1,2.029,2.546v4.421Z" fill="#84c7ef"/>
        <g id="Grupo_1064826" data-name="Grupo 1064826">
          <path id="Trazado_778472" data-name="Trazado 778472" d="M24.946,56.029h-.238a5.078,5.078,0,0,0-5.063,5.063h5.3V56.029Z" fill="#eab883"/>
          <path id="Trazado_778473" data-name="Trazado 778473" d="M14.357,56.029v5.063h5.287a5.078,5.078,0,0,0-5.063-5.063Z" fill="#eab883"/>
        </g>
        <g id="Grupo_1064827" data-name="Grupo 1064827">
          <path id="Trazado_778474" data-name="Trazado 778474" d="M19.644,61.092h5.3V58.56H20.329A5.019,5.019,0,0,0,19.644,61.092Z" fill="#dda36f"/>
          <path id="Trazado_778475" data-name="Trazado 778475" d="M14.357,58.56v2.532h5.287a5.02,5.02,0,0,0-.685-2.532Z" fill="#dda36f"/>
        </g>
        <path id="Trazado_778476" data-name="Trazado 778476" d="M27.062,4.152a1.415,1.415,0,0,1-.8-.492c-3.15-3.926-11.528-3.6-15.884.755C6.359,8.429,8.579,14.834,8.579,14.834h22.2C32.715,6.691,28.551,4.478,27.062,4.152Z" fill="#93482b"/>
        <path id="Trazado_778477" data-name="Trazado 778477" d="M15.879,4.415a12.317,12.317,0,0,1,6.165-3.2,13.1,13.1,0,0,0-11.671,3.2C6.359,8.429,8.579,14.834,8.579,14.834h5.506S11.865,8.429,15.879,4.415Z" fill="#843d26"/>
        <g id="Grupo_1064828" data-name="Grupo 1064828">
          <path id="Trazado_778478" data-name="Trazado 778478" d="M8.594,14.271l0,0a2.193,2.193,0,0,0,0,3.78l0,0a3.243,3.243,0,0,0,1.806.531V13.74h0A3.243,3.243,0,0,0,8.594,14.271Z" fill="#eab883"/>
          <path id="Trazado_778479" data-name="Trazado 778479" d="M30.757,14.271l0,0a2.369,2.369,0,0,1,1.047,1.52l0,.01c.006.036.012.072.016.108,0,.01,0,.02,0,.03,0,.031.007.062.008.093s0,.055,0,.083,0,.028,0,.042v.006c0,.014,0,.028,0,.042s0,.055,0,.083-.005.062-.008.093c0,.01,0,.02,0,.03,0,.036-.01.072-.016.108l0,.01a2.368,2.368,0,0,1-1.047,1.52l0,0a3.243,3.243,0,0,1-1.806.531V13.74A3.275,3.275,0,0,1,30.757,14.271Z" fill="#eab883"/>
        </g>
        <g id="Grupo_1064829" data-name="Grupo 1064829">
          <path id="Trazado_778480" data-name="Trazado 778480" d="M8.591,15.872a2.566,2.566,0,0,1-.771-.8,2.173,2.173,0,0,0,.771,2.977l0,0a3.243,3.243,0,0,0,1.806.531V16.4a3.242,3.242,0,0,1-1.806-.532Z" fill="#dda36f"/>
          <path id="Trazado_778481" data-name="Trazado 778481" d="M31.84,16.113c0-.028,0-.055,0-.083s-.005-.062-.008-.093c0-.01,0-.02,0-.03,0-.036-.01-.072-.016-.108l0-.01a2.137,2.137,0,0,0-.276-.718,2.562,2.562,0,0,1-.771.8l0,0a3.243,3.243,0,0,1-1.806.532v2.176a3.243,3.243,0,0,0,1.806-.531l0,0a2.368,2.368,0,0,0,1.047-1.521l0-.01c.006-.036.012-.072.016-.108,0-.01,0-.02,0-.03,0-.031.007-.062.008-.093s0-.055,0-.083,0-.028,0-.042v-.006C31.841,16.14,31.84,16.127,31.84,16.113Z" fill="#dda36f"/>
        </g>
        <path id="Trazado_778482" data-name="Trazado 778482" d="M28.965,16.854V13.74A4,4,0,0,1,25.276,12.3a.824.824,0,0,0-1.133-.168c-2.2,1.591-8.382,4.053-13.754,1.607v1.779h-.01a37.985,37.985,0,0,0,.26,6.033A9.289,9.289,0,0,0,28.964,19.4c0-1.051,0-1.884,0-2.55h0Z" fill="#f7cf9c"/>
        <path id="Trazado_778483" data-name="Trazado 778483" d="M14.24,21.552a37.984,37.984,0,0,1-.26-6.033h.01V14.7a11.53,11.53,0,0,1-3.6-.962v1.779h-.01a38,38,0,0,0,.26,6.033,9.219,9.219,0,0,0,10.742,6.966A9.333,9.333,0,0,1,14.24,21.552Z" fill="#eab883"/>
        <path id="Trazado_778484" data-name="Trazado 778484" d="M59.6,27.769c-32.734,0-30.554-.063-31,.18a1.492,1.492,0,0,0-.781,1.312V53.109A1.492,1.492,0,0,0,29.306,54.6H59.6a1.492,1.492,0,0,0,1.492-1.492V29.261A1.692,1.692,0,0,0,59.6,27.769Z" fill="#efefef"/>
        <path id="Trazado_778485" data-name="Trazado 778485" d="M33.005,53.109V29.262A1.492,1.492,0,0,1,34.5,27.769c-5.259.06-5.319-.137-5.9.18a1.492,1.492,0,0,0-.781,1.312V53.109A1.492,1.492,0,0,0,29.307,54.6H34.5A1.492,1.492,0,0,1,33.005,53.109Z" fill="#ddd"/>
        <path id="Trazado_778486" data-name="Trazado 778486" d="M57.127,9.68H37.73a1.457,1.457,0,0,0-1.453,1.453V20.94a1.457,1.457,0,0,0,1.453,1.453H54.8a1.6,1.6,0,0,1,1.073.415l1.415,1.286a.77.77,0,0,0,1.288-.57V11.133A1.458,1.458,0,0,0,57.127,9.68Z" fill="#ffb70d"/>
        <path id="Trazado_778487" data-name="Trazado 778487" d="M40.314,20.94V11.133A1.457,1.457,0,0,1,41.767,9.68H37.73a1.457,1.457,0,0,0-1.453,1.453V20.94a1.457,1.457,0,0,0,1.453,1.453h4.037A1.457,1.457,0,0,1,40.314,20.94Z" fill="#f4a403"/>
        <circle id="Elipse_4748" data-name="Elipse 4748" cx="1.97" cy="1.97" r="1.97" transform="translate(42.459 32.641)" fill="#ccc"/>
        <path id="Trazado_778488" data-name="Trazado 778488" d="M44.431,32.642a1.969,1.969,0,1,0,1.7,2.952A1.967,1.967,0,0,1,44.431,32.642Z" fill="#bcbbb8"/>
        <path id="Trazado_778489" data-name="Trazado 778489" d="M47.97,59.449V40.984a0,0,0,0,0,0,0H41.154a0,0,0,0,0,0,0V59.449Z" fill="#ddd"/>
        <path id="Trazado_778490" data-name="Trazado 778490" d="M44.561,40.984a0,0,0,0,1,0,0H41.154a0,0,0,0,0,0,0V59.449h3.409Z" fill="#ccc"/>
        <path id="Trazado_778491" data-name="Trazado 778491" d="M50.875,59.449h0a1.643,1.643,0,0,0-1.643-1.643h-9.56a1.643,1.643,0,0,0-1.643,1.643h0a1.643,1.643,0,0,0,1.643,1.643h9.56A1.644,1.644,0,0,0,50.875,59.449Z" fill="#efefef"/>
        <path id="Trazado_778492" data-name="Trazado 778492" d="M42.915,59.449h0a1.643,1.643,0,0,1,1.643-1.643H39.672a1.643,1.643,0,0,0-1.643,1.643h0a1.643,1.643,0,0,0,1.643,1.643h4.887A1.643,1.643,0,0,1,42.915,59.449Z" fill="#ddd"/>
        <path id="Trazado_778493" data-name="Trazado 778493" d="M41.549,34.61a2.878,2.878,0,1,0,2.878-2.878A2.881,2.881,0,0,0,41.549,34.61Zm3.94,0a1.062,1.062,0,1,1-1.062-1.062A1.063,1.063,0,0,1,45.489,34.61Z"/>
        <path id="Trazado_778494" data-name="Trazado 778494" d="M31.605,49.709a.908.908,0,0,0,0,1.816h2.8a.908.908,0,0,0,0-1.816Z"/>
        <path id="Trazado_778495" data-name="Trazado 778495" d="M38.114,49.975a.917.917,0,0,0-.82-.248.9.9,0,0,0-.17.052.931.931,0,0,0-.157.084.885.885,0,0,0-.251.251.935.935,0,0,0-.136.327.9.9,0,0,0,.544,1.016A.906.906,0,0,0,38.31,50.27,1.211,1.211,0,0,0,38.114,49.975Z"/>
        <path id="Trazado_778496" data-name="Trazado 778496" d="M44.1,12.953a.908.908,0,0,0-1.284,0l-2.241,2.241a.908.908,0,0,0,0,1.284l2.241,2.241A.908.908,0,1,0,44.1,17.435l-1.6-1.6,1.6-1.6A.908.908,0,0,0,44.1,12.953Z"/>
        <path id="Trazado_778497" data-name="Trazado 778497" d="M50.949,18.985c.65,0,.7-.445,2.883-2.507a.908.908,0,0,0,0-1.284l-2.241-2.241a.908.908,0,0,0-1.284,1.284l1.6,1.6-1.6,1.6A.909.909,0,0,0,50.949,18.985Z"/>
        <path id="Trazado_778498" data-name="Trazado 778498" d="M47.512,12.268l-2.517,6.916A.908.908,0,1,0,46.7,19.8l2.517-6.916a.908.908,0,1,0-1.707-.621Z"/>
        <path id="Trazado_778499" data-name="Trazado 778499" d="M59.595,26.861c-31.566.1-30.435-.253-31.435.29a2.4,2.4,0,0,0-1.256,2.11v1.284l-2.485-1.511v-.639A10,10,0,0,0,29.853,19.4v-.014a4.026,4.026,0,0,0,1.317-.533.9.9,0,0,0,.093-.055,3.2,3.2,0,0,0,1.48-2.563,3.056,3.056,0,0,0-.979-2.318c.72-3.389.478-6.077-.726-7.994a5.97,5.97,0,0,0-3.8-2.66.51.51,0,0,1-.291-.174C24.387-.1,18.706-.94,13.731,1.131a.908.908,0,0,0,.7,1.677c4.187-1.743,9.063-1.12,11.1,1.42a2.332,2.332,0,0,0,1.319.811A4.165,4.165,0,0,1,29.5,6.891c.884,1.408,1.084,3.456.6,6.1a3.854,3.854,0,0,0-1.383-.131,3.062,3.062,0,0,1-2.745-1.118,1.731,1.731,0,0,0-2.379-.341c-2.02,1.464-7.762,3.748-12.725,1.567a.9.9,0,0,0-.484-.132.592.592,0,0,0-.076,0,4.281,4.281,0,0,0-1.164.176c-.684-2.966-.211-5.975,1.993-8.087h0A.908.908,0,1,0,9.878,3.611C7.034,6.338,6.46,10.259,7.509,13.961c-1.877,1.877-.8,4.862,1.985,5.433a14.572,14.572,0,0,0,.242,2.366,10.08,10.08,0,0,0,2.184,4.282,10.39,10.39,0,0,0,2.93,2.376v.607L10.7,31.475,7.18,32.45a5.19,5.19,0,0,0-3.913,4.064c0,.011,0,.022-.006.034L.068,56.4A4.832,4.832,0,0,0,4.838,62H34.544a4.727,4.727,0,0,0,3.031-1.1A2.55,2.55,0,0,0,39.67,62h9.56a2.552,2.552,0,0,0,0-5.1h-.353V55.509h3.642a.908.908,0,0,0,0-1.816H48.876V41.767a.908.908,0,0,0-.448-1.7H40.582a.909.909,0,0,0-.341,1.749V53.693c-12.073,0-11.126.053-11.35-.171-.248-.248-.171,1.215-.171-24.261a.584.584,0,0,1,.584-.584c32.27.025,30.324-.063,30.568.07a.585.585,0,0,1,.306.514V53.109a.584.584,0,0,1-.306.514c-.226.123-.155.047-3.116.07a.908.908,0,0,0,0,1.816c2.7-.075,3.546.287,4.536-.7a2.384,2.384,0,0,0,.7-1.7V29.261A2.4,2.4,0,0,0,59.595,26.861ZM24.317,55.134a5.974,5.974,0,0,0-4.675,2.8,5.975,5.975,0,0,0-4.659-2.8,2.631,2.631,0,0,0-.661-.835,6.756,6.756,0,0,0,2.061-3.887H22.9a6.749,6.749,0,0,0,2.069,3.893A2.628,2.628,0,0,0,24.317,55.134Zm-4.829-17-1.469-3.794a6.4,6.4,0,0,0,3.3,0l-1.494,3.8a.163.163,0,0,1-.167.113C19.534,38.255,19.518,38.211,19.488,38.136ZM22.6,29.144V31.08l-.343.872a4.623,4.623,0,0,1-5.164,0l-.429-1.108v-1.67A10.155,10.155,0,0,0,22.6,29.144Zm4.071,3.387-3.918,3.12c1.708-4.343,1.686-4.174,1.663-4.491ZM29.854,17.5V14.819A1.371,1.371,0,0,1,29.854,17.5ZM9.461,14.819c-.013.709-.023,1.672-.014,2.67A1.369,1.369,0,0,1,9.461,14.819ZM13.3,24.859c-2.5-2.907-1.952-5.58-2.019-9.8a16.394,16.394,0,0,0,13.31-2.144,4.743,4.743,0,0,0,3.45,1.759c0,.442-.005,2.1,0,4.727A8.392,8.392,0,0,1,13.3,24.859Zm1.56,6.272c.032.254.127.337,1.708,4.486l-3.921-3.181ZM7.191,32.448q-.038.013-.075.03A.647.647,0,0,1,7.191,32.448ZM1.861,56.69,5.052,36.854c.564-2.77,3.16-2.65,5.8-3.536l3.095,2.51v5.833a.908.908,0,0,0,1.816,0V37.3l2.156,1.749a2,2,0,0,0,3.479,0l2.159-1.719v4.325a.908.908,0,0,0,1.816,0V35.89L26.9,34.669c.009,19.68-.019,18.42.02,18.737a3.437,3.437,0,0,1-1.7-1.708A6.451,6.451,0,0,1,24.6,49.46a.908.908,0,0,0-.907-.862h-8.1a.911.911,0,0,0-.907.859,6.452,6.452,0,0,1-.621,2.24c-1.342,2.666-3.778,1.842-4.734,2l1.736-11.733a.908.908,0,0,0-1.8-.266l-1.775,12H6.557a.908.908,0,1,0,0,1.816h6.092a.8.8,0,0,1,.8.8v3.878H4.838A3.016,3.016,0,0,1,1.861,56.69Zm13.4,3.494V56.993a4.167,4.167,0,0,1,3.371,3.191Zm8.772-3.193v3.193H20.65A4.167,4.167,0,0,1,24.036,56.991Zm25.928,2.458a.736.736,0,0,1-.735.735h-9.56a.735.735,0,1,1,0-1.47h9.56A.736.736,0,0,1,49.964,59.449ZM42.057,56.9V41.889h5V56.9Zm-1.816,0a5.9,5.9,0,0,0-.975.035c-.027-.382-.064-.491-.208-1.423h1.184ZM37.218,55.51l.208,1.292a2.92,2.92,0,0,1-2.882,3.383H25.852V56.306a.8.8,0,0,1,.8-.8Z"/>
        <path id="Trazado_778500" data-name="Trazado 778500" d="M37.728,23.3H54.8c.451,0,.542.318,1.878,1.465a1.678,1.678,0,0,0,2.807-1.242V18.276a.908.908,0,1,0-1.816,0v4.935c-.878-.676-1.457-1.727-2.868-1.727H37.728a.552.552,0,0,1-.545-.545V11.133a.552.552,0,0,1,.545-.545h19.4a.552.552,0,0,1,.545.545v2.906a.908.908,0,1,0,1.816,0V11.133a2.364,2.364,0,0,0-2.361-2.361h-19.4a2.364,2.364,0,0,0-2.361,2.361V20.94A2.364,2.364,0,0,0,37.728,23.3Z"/>
      </g>
    </g>
    <g id="Enmascarar_grupo_55" data-name="Enmascarar grupo 55" clip-path="url(#clip-path-2)">
      <g id="proteger" transform="translate(419 2887)">
        <path id="Trazado_778501" data-name="Trazado 778501" d="M34.38,59.533l-2.692,1.415a1.479,1.479,0,0,1-1.376,0L27.62,59.533C12.84,51.764,3.738,37.429,3.738,21.917V12.442a1.471,1.471,0,0,1,1.3-1.469c5.095-.538,9.145-4.185,9.791-8.8A1.487,1.487,0,0,1,16.3.882H45.7a1.487,1.487,0,0,1,1.467,1.294c.646,4.613,4.7,8.26,9.791,8.8a1.471,1.471,0,0,1,1.3,1.469v9.475C58.262,37.429,49.16,51.764,34.38,59.533Z" fill="#e1e6e9"/>
        <path id="Trazado_778502" data-name="Trazado 778502" d="M56.958,10.974c-5.095-.538-9.145-4.185-9.791-8.8A1.487,1.487,0,0,0,45.7.882h-2c.288,6.4,4.845,10.931,9.776,11.451a1.471,1.471,0,0,1,1.3,1.469v9.475c0,15.512-9.1,29.847-23.882,37.616l-.311.163a1.477,1.477,0,0,0,1.1-.108l2.692-1.415c14.78-7.769,23.882-22.1,23.882-37.616V12.442A1.471,1.471,0,0,0,56.958,10.974Z" fill="#cbcbcb"/>
        <path id="Trazado_778503" data-name="Trazado 778503" d="M30,55.734A42.349,42.349,0,0,1,13.88,41.092,36.689,36.689,0,0,1,8.073,21.425V16.047a1.9,1.9,0,0,1,1.2-1.767,16.665,16.665,0,0,0,8.962-8.237,1.894,1.894,0,0,1,1.713-1.074H42.056a1.9,1.9,0,0,1,1.713,1.074,16.666,16.666,0,0,0,8.962,8.237,1.9,1.9,0,0,1,1.2,1.767v5.378A36.689,36.689,0,0,1,48.12,41.092,42.35,42.35,0,0,1,32,55.734l-.112.059a1.9,1.9,0,0,1-1.772,0Z" fill="#4ad194"/>
        <path id="Trazado_778504" data-name="Trazado 778504" d="M52.731,14.28l-.093-.038-.155-.063-.263-.111L52.07,14q-.14-.062-.278-.127l-.125-.058q-.2-.094-.4-.193l-.029-.015q-.181-.092-.36-.189l-.126-.069c-.087-.048-.173-.1-.259-.145l-.142-.082-.241-.143-.139-.085c-.084-.052-.167-.1-.249-.158L49.6,12.66q-.169-.111-.336-.225l-.025-.017q-.179-.124-.353-.251l-.108-.081q-.12-.089-.239-.18l-.126-.1-.217-.173-.125-.1q-.11-.092-.219-.185l-.112-.1q-.134-.117-.266-.237l-.055-.049q-.158-.145-.312-.294l-.088-.087c-.073-.072-.145-.143-.217-.216l-.109-.112q-.1-.1-.19-.2l-.11-.119q-.094-.1-.186-.208l-.1-.113c-.072-.083-.143-.168-.214-.252l-.062-.074q-.135-.165-.266-.333L45.5,8.87q-.1-.126-.191-.254l-.089-.123q-.081-.112-.16-.226l-.091-.133q-.078-.114-.153-.229l-.084-.128c-.056-.087-.111-.175-.166-.264l-.06-.1q-.11-.181-.215-.366l-.043-.078q-.082-.146-.161-.294l-.069-.131q-.065-.124-.127-.249l-.071-.144c-.018-.036-.036-.073-.054-.109a1.9,1.9,0,0,0-1.713-1.074H31V56.011a1.9,1.9,0,0,0,.886-.219L32,55.734A42.349,42.349,0,0,0,48.12,41.092a36.689,36.689,0,0,0,5.808-19.667V16.047A1.9,1.9,0,0,0,52.731,14.28Z" fill="#35b79e"/>
        <path id="Trazado_778505" data-name="Trazado 778505" d="M52.731,14.28l-.093-.038-.155-.063-.263-.111L52.07,14q-.14-.062-.278-.127l-.125-.058q-.2-.094-.4-.193l-.029-.015q-.181-.092-.36-.189l-.126-.069c-.087-.048-.173-.1-.259-.145l-.142-.082-.241-.143-.139-.085c-.084-.052-.167-.1-.249-.158L49.6,12.66q-.169-.111-.336-.225l-.025-.017q-.179-.124-.353-.251l-.108-.081q-.12-.089-.239-.18l-.126-.1-.217-.173-.125-.1q-.11-.092-.219-.185l-.112-.1q-.134-.117-.266-.237l-.055-.049q-.158-.145-.312-.294l-.088-.087c-.073-.072-.145-.143-.217-.216l-.109-.112q-.1-.1-.19-.2l-.11-.119q-.094-.1-.186-.208l-.1-.113c-.072-.083-.143-.168-.214-.252l-.062-.074q-.135-.165-.266-.333L45.5,8.87q-.1-.126-.191-.254l-.089-.123q-.081-.112-.16-.226l-.091-.133q-.078-.114-.153-.229l-.084-.128c-.056-.087-.111-.176-.166-.264l-.06-.1q-.11-.181-.215-.366l-.043-.078q-.082-.146-.161-.294l-.069-.131q-.065-.124-.127-.249l-.071-.144c-.018-.036-.036-.073-.054-.109a1.9,1.9,0,0,0-1.713-1.074H39A16.983,16.983,0,0,1,40.341,7c.02.035.036.073.054.109l.071.144q.062.125.127.249l.069.131q.079.148.161.294L40.866,8q.1.184.215.366l.06.1q.082.133.166.264l.084.128q.076.115.153.229l.091.133q.079.114.16.226l.089.123c.063.085.127.17.191.254l.066.087q.131.168.266.333l.062.074c.07.085.141.169.214.252l.1.113q.092.1.186.208l.11.119q.094.1.19.2l.109.112q.107.109.217.216l.088.087q.154.149.312.294l.055.049q.132.12.266.237l.112.1q.109.093.219.185l.125.1.217.173.126.1q.118.091.239.18l.108.081q.175.128.353.251l.025.017q.166.114.336.225l.121.078q.124.08.249.158l.139.085.241.143.142.082q.129.073.259.145l.126.069q.179.1.36.189l.029.015q.2.1.4.193l.125.058c.092.043.185.085.278.127l.151.066.263.111.155.063.093.038A1.9,1.9,0,0,1,50.5,17V22.38a36.689,36.689,0,0,1-5.808,19.667A45.186,45.186,0,0,1,31,55.961v.05a1.9,1.9,0,0,0,.886-.219L32,55.734A42.349,42.349,0,0,0,48.12,41.092a36.689,36.689,0,0,0,5.808-19.667V16.047A1.9,1.9,0,0,0,52.731,14.28Z" fill="#1e9690"/>
        <path id="Trazado_778506" data-name="Trazado 778506" d="M41.106,39.386H20.961a1.924,1.924,0,0,1-1.924-1.924V24.829a1.924,1.924,0,0,1,1.924-1.924H41.106a1.924,1.924,0,0,1,1.924,1.924V37.463A1.924,1.924,0,0,1,41.106,39.386Z" fill="#636a75"/>
        <path id="Trazado_778507" data-name="Trazado 778507" d="M41.106,22.905H37.623a1.924,1.924,0,0,1,1.924,1.924V37.463a1.924,1.924,0,0,1-1.924,1.924h3.483a1.924,1.924,0,0,0,1.924-1.924V24.829A1.924,1.924,0,0,0,41.106,22.905Z" fill="#515a66"/>
        <path id="Trazado_778508" data-name="Trazado 778508" d="M30.151,32.058V34.57a.882.882,0,0,0,1.765,0V32.058a2.067,2.067,0,1,0-1.765,0Z"/>
        <path id="Trazado_778509" data-name="Trazado 778509" d="M29.592,56.515h0l.111.059a2.786,2.786,0,0,0,2.593,0l.112-.059a43.232,43.232,0,0,0,16.457-14.95,37.57,37.57,0,0,0,5.945-20.14V16.047a2.765,2.765,0,0,0-1.754-2.588,15.69,15.69,0,0,1-8.49-7.8,2.789,2.789,0,0,0-2.51-1.577H19.944a2.788,2.788,0,0,0-2.51,1.577,15.69,15.69,0,0,1-8.49,7.8A2.765,2.765,0,0,0,7.19,16.047v5.378a37.568,37.568,0,0,0,5.945,20.14A43.231,43.231,0,0,0,29.592,56.515ZM8.955,21.425V16.047a1.01,1.01,0,0,1,.639-.947,17.448,17.448,0,0,0,9.434-8.678,1.015,1.015,0,0,1,.916-.571H42.056a1.016,1.016,0,0,1,.916.571A17.449,17.449,0,0,0,52.407,15.1a1.01,1.01,0,0,1,.639.947v5.378a35.808,35.808,0,0,1-5.67,19.194A41.468,41.468,0,0,1,31.587,54.953l-.112.059a1.021,1.021,0,0,1-.951,0l-.111-.058A41.467,41.467,0,0,1,14.625,40.619,35.808,35.808,0,0,1,8.955,21.425Z"/>
        <path id="Trazado_778510" data-name="Trazado 778510" d="M57.48,29.8a.882.882,0,0,0-1.055.666c-2.687,11.889-10.872,22.2-22.455,28.287l-2.692,1.415a.6.6,0,0,1-.555,0l-2.692-1.415c-11.6-6.1-19.79-16.426-22.466-28.336a.882.882,0,0,0-1.722.387C6.633,43.219,15.149,53.975,27.21,60.314L29.9,61.729a2.361,2.361,0,0,0,2.2,0l2.692-1.415c12.041-6.329,20.554-17.067,23.355-29.46A.882.882,0,0,0,57.48,29.8Z"/>
        <path id="Trazado_778511" data-name="Trazado 778511" d="M57.05,10.1c-4.712-.5-8.416-3.8-9.009-8.042A2.383,2.383,0,0,0,45.7,0H16.3a2.383,2.383,0,0,0-2.341,2.054C13.366,6.292,9.662,9.6,4.95,10.1a2.346,2.346,0,0,0-2.094,2.346v9.475a40.616,40.616,0,0,0,.212,4.137.883.883,0,0,0,.877.792.894.894,0,0,0,.091,0,.882.882,0,0,0,.787-.968,38.856,38.856,0,0,1-.2-3.957V12.442a.592.592,0,0,1,.515-.591C10.654,11.269,15,7.341,15.707,2.3a.6.6,0,0,1,.593-.534H45.7a.6.6,0,0,1,.593.534c.705,5.042,5.053,8.97,10.572,9.553a.592.592,0,0,1,.515.591v9.475a38.871,38.871,0,0,1-.2,3.916.882.882,0,0,0,1.756.178,40.625,40.625,0,0,0,.208-4.095V12.442A2.345,2.345,0,0,0,57.05,10.1Z"/>
        <path id="Trazado_778512" data-name="Trazado 778512" d="M41.106,40.269a2.809,2.809,0,0,0,2.806-2.806V24.829a2.809,2.809,0,0,0-2.806-2.806H39.656V17.811a8.622,8.622,0,0,0-17.244,0v4.212H20.961a2.809,2.809,0,0,0-2.806,2.806V37.463a2.809,2.809,0,0,0,2.806,2.806ZM24.177,17.811a6.857,6.857,0,0,1,13.714,0v4.212H24.177ZM19.92,37.463V24.829a1.043,1.043,0,0,1,1.042-1.042H41.106a1.043,1.043,0,0,1,1.042,1.042V37.463A1.043,1.043,0,0,1,41.106,38.5H20.961A1.043,1.043,0,0,1,19.92,37.463Z"/>
      </g>
    </g>
    <g id="Enmascarar_grupo_56" data-name="Enmascarar grupo 56" clip-path="url(#clip-path-3)">
      <g id="cloud-server-shield-protect-database" transform="translate(594.933 2884.934)">
        <path id="Trazado_778513" data-name="Trazado 778513" d="M17.567,34.1a10.333,10.333,0,0,1-.858-20.625A12.383,12.383,0,0,1,39.6,9.2a8.254,8.254,0,0,1,11.594,4.588A10.326,10.326,0,0,1,48.567,34.1Z" fill="#57a4ff"/>
        <g id="Grupo_1064830" data-name="Grupo 1064830">
          <path id="Trazado_778514" data-name="Trazado 778514" d="M38.988,8.277a8.215,8.215,0,0,0-3.524.92,12.369,12.369,0,0,0-8.608-5.921,12.353,12.353,0,0,1,12.131,5Z" fill="#2488ff"/>
          <path id="Trazado_778515" data-name="Trazado 778515" d="M58.9,23.767A10.333,10.333,0,0,1,48.567,34.1H44.433a10.326,10.326,0,0,0,2.625-20.315,8.275,8.275,0,0,0-5.725-5.249A8.038,8.038,0,0,1,43.4,8.267a8.267,8.267,0,0,1,7.791,5.518A10.324,10.324,0,0,1,58.9,23.767Z" fill="#2488ff"/>
          <path id="Trazado_778516" data-name="Trazado 778516" d="M41.333,8.535A8.37,8.37,0,0,0,39.6,9.2a10.9,10.9,0,0,0-.61-.92,2.519,2.519,0,0,1,.279-.01,8.038,8.038,0,0,1,2.067.269Z" fill="#2488ff"/>
        </g>
        <path id="Trazado_778517" data-name="Trazado 778517" d="M10.333,50.633H55.8v12.4H10.333Z" fill="#fee9ab"/>
        <path id="Trazado_778518" data-name="Trazado 778518" d="M10.333,38.233H55.8v12.4H10.333Z" fill="#ff7956"/>
        <path id="Trazado_778519" data-name="Trazado 778519" d="M51.667,50.633H55.8v12.4H51.667Z" fill="#ffde55"/>
        <path id="Trazado_778520" data-name="Trazado 778520" d="M51.667,38.233H55.8v12.4H51.667Z" fill="#ff5023"/>
        <path id="Trazado_778521" data-name="Trazado 778521" d="M44.433,19.633v8.98a12.5,12.5,0,0,1-4.061,9.176l-.486.444-6.82,6.2-6.82-6.2-.486-.444A12.5,12.5,0,0,1,21.7,28.613v-8.98L33.067,15.5Z" fill="#ffde55"/>
        <circle id="Elipse_4749" data-name="Elipse 4749" cx="2.067" cy="2.067" r="2.067" transform="translate(31 54.767)" fill="#2488ff"/>
        <circle id="Elipse_4750" data-name="Elipse 4750" cx="2.067" cy="2.067" r="2.067" transform="translate(22.733 42.367)" fill="#9cdd05"/>
        <circle id="Elipse_4751" data-name="Elipse 4751" cx="2.067" cy="2.067" r="2.067" transform="translate(22.733 54.767)" fill="#ff3051"/>
        <circle id="Elipse_4752" data-name="Elipse 4752" cx="2.067" cy="2.067" r="2.067" transform="translate(14.467 42.367)" fill="#ff3051"/>
        <path id="Trazado_778522" data-name="Trazado 778522" d="M26.867,44.433a2.067,2.067,0,0,1-3.1,1.788,2.067,2.067,0,0,0,0-3.575,2.067,2.067,0,0,1,3.1,1.788Z" fill="#5eac24"/>
        <path id="Trazado_778523" data-name="Trazado 778523" d="M18.6,44.433a2.067,2.067,0,0,1-3.1,1.788,2.067,2.067,0,0,0,0-3.575,2.067,2.067,0,0,1,3.1,1.788Z" fill="#cd2a00"/>
        <path id="Trazado_778524" data-name="Trazado 778524" d="M26.867,56.833a2.067,2.067,0,0,1-3.1,1.788,2.067,2.067,0,0,0,0-3.575,2.067,2.067,0,0,1,3.1,1.788Z" fill="#cd2a00"/>
        <circle id="Elipse_4753" data-name="Elipse 4753" cx="2.067" cy="2.067" r="2.067" transform="translate(14.467 54.767)" fill="#9cdd05"/>
        <path id="Trazado_778525" data-name="Trazado 778525" d="M44.433,19.633v8.98a12.4,12.4,0,0,1-4.06,9.175l-7.307,6.645L31,42.553l5.239-4.764A12.4,12.4,0,0,0,40.3,28.613v-8.98L31,16.254l2.067-.754Z" fill="#ebbf00"/>
        <path id="Trazado_778526" data-name="Trazado 778526" d="M18.6,56.833a2.067,2.067,0,0,1-3.1,1.788,2.067,2.067,0,0,0,0-3.575,2.067,2.067,0,0,1,3.1,1.788Z" fill="#5eac24"/>
        <path id="Trazado_778527" data-name="Trazado 778527" d="M35.133,56.833a2.067,2.067,0,0,1-3.1,1.788,2.067,2.067,0,0,0,0-3.575,2.067,2.067,0,0,1,3.1,1.788Z" fill="#006df0"/>
        <path id="Trazado_778528" data-name="Trazado 778528" d="M16.533,41.333a3.1,3.1,0,1,0,3.1,3.1A3.1,3.1,0,0,0,16.533,41.333Zm0,4.133a1.033,1.033,0,1,1,1.033-1.033A1.033,1.033,0,0,1,16.533,45.467Z"/>
        <path id="Trazado_778529" data-name="Trazado 778529" d="M55.8,37.2H42.346a14.131,14.131,0,0,0,1.426-2.067h4.795a11.357,11.357,0,0,0,3.4-22.2A9.291,9.291,0,0,0,39.98,7.884a13.412,13.412,0,0,0-24.139,4.65,11.367,11.367,0,0,0,1.726,22.6h4.795A14.131,14.131,0,0,0,23.787,37.2H10.333A1.033,1.033,0,0,0,9.3,38.233v24.8a1.033,1.033,0,0,0,1.033,1.033H55.8a1.033,1.033,0,0,0,1.033-1.033v-24.8A1.033,1.033,0,0,0,55.8,37.2ZM21.442,33.067H17.567a9.3,9.3,0,0,1-.775-18.559,1.043,1.043,0,0,0,.94-.868A11.348,11.348,0,0,1,38.709,9.724a1.033,1.033,0,0,0,1.364.393A7.221,7.221,0,0,1,50.22,14.126a1.04,1.04,0,0,0,.713.661,9.292,9.292,0,0,1-2.366,18.28H44.692a13.5,13.5,0,0,0,.775-4.454v-8.98a1.025,1.025,0,0,0-.682-.971L33.418,14.529a1.026,1.026,0,0,0-.7,0L21.349,18.662a1.025,1.025,0,0,0-.682.971v8.98a13.5,13.5,0,0,0,.775,4.454Zm1.292-4.454V20.357L33.067,16.6,43.4,20.357v8.256a11.387,11.387,0,0,1-3.72,8.411l-6.613,6.014-6.613-6.014a11.387,11.387,0,0,1-3.72-8.411ZM54.767,62h-43.4V51.667h43.4Zm0-12.4h-43.4V39.267H25.844L32.374,45.2a1.026,1.026,0,0,0,1.385,0l6.531-5.931H54.767Z"/>
        <path id="Trazado_778530" data-name="Trazado 778530" d="M50.633,41.333H52.7V43.4H50.633Z"/>
        <path id="Trazado_778531" data-name="Trazado 778531" d="M50.633,45.467H52.7v2.067H50.633Z"/>
        <path id="Trazado_778532" data-name="Trazado 778532" d="M16.533,59.933a3.1,3.1,0,1,0-3.1-3.1A3.1,3.1,0,0,0,16.533,59.933Zm0-4.133A1.033,1.033,0,1,1,15.5,56.833,1.033,1.033,0,0,1,16.533,55.8Z"/>
        <path id="Trazado_778533" data-name="Trazado 778533" d="M24.8,59.933a3.1,3.1,0,1,0-3.1-3.1A3.1,3.1,0,0,0,24.8,59.933Zm0-4.133a1.033,1.033,0,1,1-1.033,1.033A1.033,1.033,0,0,1,24.8,55.8Z"/>
        <path id="Trazado_778534" data-name="Trazado 778534" d="M24.8,41.333a3.1,3.1,0,1,0,3.1,3.1A3.1,3.1,0,0,0,24.8,41.333Zm0,4.133a1.033,1.033,0,1,1,1.033-1.033A1.033,1.033,0,0,1,24.8,45.467Z"/>
        <path id="Trazado_778535" data-name="Trazado 778535" d="M33.067,59.933a3.1,3.1,0,1,0-3.1-3.1A3.1,3.1,0,0,0,33.067,59.933Zm0-4.133a1.033,1.033,0,1,1-1.033,1.033A1.033,1.033,0,0,1,33.067,55.8Z"/>
        <path id="Trazado_778536" data-name="Trazado 778536" d="M50.633,53.733H52.7V55.8H50.633Z"/>
        <path id="Trazado_778537" data-name="Trazado 778537" d="M50.633,57.867H52.7v2.067H50.633Z"/>
        <path id="Trazado_778538" data-name="Trazado 778538" d="M44.433,53.733H46.5V55.8H44.433Z"/>
        <path id="Trazado_778539" data-name="Trazado 778539" d="M44.433,57.867H46.5v2.067H44.433Z"/>
        <path id="Trazado_778540" data-name="Trazado 778540" d="M38.233,53.733H40.3V55.8H38.233Z"/>
        <path id="Trazado_778541" data-name="Trazado 778541" d="M38.233,57.867H40.3v2.067H38.233Z"/>
        <path id="Trazado_778542" data-name="Trazado 778542" d="M44.433,41.333H46.5V43.4H44.433Z"/>
        <path id="Trazado_778543" data-name="Trazado 778543" d="M44.433,45.467H46.5v2.067H44.433Z"/>
        <path id="Trazado_778544" data-name="Trazado 778544" d="M38.233,45.467H40.3v2.067H38.233Z"/>
        <path id="Trazado_778545" data-name="Trazado 778545" d="M2.067,43.4V56.833A1.033,1.033,0,0,0,3.1,57.867H7.233V55.8h-3.1V44.433h3.1V42.367H3.1A1.033,1.033,0,0,0,2.067,43.4Z"/>
        <path id="Trazado_778546" data-name="Trazado 778546" d="M63.033,42.367H58.9v2.067H62V55.8H58.9v2.067h4.133a1.033,1.033,0,0,0,1.033-1.033V43.4A1.033,1.033,0,0,0,63.033,42.367Z"/>
        <path id="Trazado_778547" data-name="Trazado 778547" d="M28.631,28.2l-1.461,1.461L31.3,33.8a1.033,1.033,0,0,0,1.461,0L40,26.564,38.536,25.1l-6.5,6.5Z"/>
      </g>
    </g>
    <g id="Enmascarar_grupo_57" data-name="Enmascarar grupo 57" clip-path="url(#clip-path-4)">
      <g id="lan" transform="translate(769 2887)">
        <path id="Trazado_778548" data-name="Trazado 778548" d="M23,41a2,2,0,1,1-2-2A2,2,0,0,1,23,41Zm0,0" fill="#fcd770"/>
        <path id="Trazado_778549" data-name="Trazado 778549" d="M44,57h8v4H44Zm0,0" fill="#838f9b"/>
        <path id="Trazado_778550" data-name="Trazado 778550" d="M10,25h8v4H10Zm0,0" fill="#838f9b"/>
        <path id="Trazado_778551" data-name="Trazado 778551" d="M61,53v2a2.006,2.006,0,0,1-2,2H37a2.006,2.006,0,0,1-2-2V53Zm0,0" fill="#969faa"/>
        <path id="Trazado_778552" data-name="Trazado 778552" d="M27,21v2a2.006,2.006,0,0,1-2,2H3a2.006,2.006,0,0,1-2-2V21Zm0,0" fill="#969faa"/>
        <g id="Grupo_1064831" data-name="Grupo 1064831">
          <path id="Trazado_778553" data-name="Trazado 778553" d="M61,41V53H35V41a2.006,2.006,0,0,1,2-2H59A2.006,2.006,0,0,1,61,41Zm0,0" fill="#69d6f4"/>
          <path id="Trazado_778554" data-name="Trazado 778554" d="M27,9V21H1V9A2.006,2.006,0,0,1,3,7H25A2.006,2.006,0,0,1,27,9Zm0,0" fill="#69d6f4"/>
          <path id="Trazado_778555" data-name="Trazado 778555" d="M60.56,19.56h.01a14.883,14.883,0,0,1-3.58,6.64l-.01-.01a6.9,6.9,0,0,0-2.75-5.27,4.595,4.595,0,0,0-5.53.01,4.506,4.506,0,0,0-1.65,2.4A27.089,27.089,0,0,0,46,30.81V31a14.82,14.82,0,0,1-5.38-1l.01-.01A3.972,3.972,0,0,0,42,27V23.77a3.123,3.123,0,0,0-1.52-2.68l-1.14-.68a4.83,4.83,0,0,1,.69-8.62A3.139,3.139,0,0,0,42,8.88a10.744,10.744,0,0,0-2.22-6.52A14.7,14.7,0,0,1,46,1V3.33a4.971,4.971,0,0,0,2.22,4.15l1.56,1.04A4.971,4.971,0,0,1,52,12.67a5,5,0,0,0,3.07,4.61Zm0,0" fill="#69d6f4"/>
        </g>
        <path id="Trazado_778556" data-name="Trazado 778556" d="M54.23,20.92a6.9,6.9,0,0,1,2.75,5.27l.01.01A14.962,14.962,0,0,1,46,31v-.19a27.089,27.089,0,0,1,1.05-7.48,4.506,4.506,0,0,1,1.65-2.4,4.595,4.595,0,0,1,5.53-.01Zm0,0" fill="#b4dd7f"/>
        <path id="Trazado_778557" data-name="Trazado 778557" d="M61,16a14.883,14.883,0,0,1-.43,3.56h-.01l-5.49-2.28A5,5,0,0,1,52,12.67a4.971,4.971,0,0,0-2.22-4.15L48.22,7.48A4.971,4.971,0,0,1,46,3.33V1A15.006,15.006,0,0,1,61,16Zm0,0" fill="#b4dd7f"/>
        <path id="Trazado_778558" data-name="Trazado 778558" d="M42,23.77V27a3.972,3.972,0,0,1-1.37,2.99l-.01.01a14.991,14.991,0,0,1-.84-27.64A10.744,10.744,0,0,1,42,8.88a3.139,3.139,0,0,1-1.97,2.91,4.83,4.83,0,0,0-.69,8.62l1.14.68A3.123,3.123,0,0,1,42,23.77Zm0,0" fill="#b4dd7f"/>
        <path id="Trazado_778559" data-name="Trazado 778559" d="M59,38H49V31.708A16,16,0,0,0,46,0H13V6H3A3,3,0,0,0,0,9V23a3,3,0,0,0,3,3H9v2H7v2H21V28H19V26h6a3,3,0,0,0,3-3V9a3,3,0,0,0-3-3H15V2H38.271A15.994,15.994,0,0,0,46,32c.338,0,.668-.03,1-.051V38H37a3,3,0,0,0-3,3V55a3,3,0,0,0,3,3h6v2H41v2H55V60H53V58h6a3,3,0,0,0,3-3V41a3,3,0,0,0-3-3ZM17,28H11V26h6Zm8-4H3a1,1,0,0,1-1-1V22H26v1A1,1,0,0,1,25,24ZM26,9V20H2V9A1,1,0,0,1,3,8H25A1,1,0,0,1,26,9ZM41,20.231l-1.138-.683a3.826,3.826,0,0,1,.547-6.833A4.108,4.108,0,0,0,43,8.882a11.762,11.762,0,0,0-1.705-6.051A13.9,13.9,0,0,1,45,2.051V3.328a5.98,5.98,0,0,0,2.668,4.986l1.554,1.035A3.986,3.986,0,0,1,51,12.672,5.974,5.974,0,0,0,54.688,18.2l4.683,1.951a13.961,13.961,0,0,1-1.818,3.739,7.872,7.872,0,0,0-2.727-3.774,5.6,5.6,0,0,0-8.74,2.941,28.182,28.182,0,0,0-1.056,6.891,13.858,13.858,0,0,1-2.71-.458A4.943,4.943,0,0,0,43,27V23.771a4.153,4.153,0,0,0-2-3.54Zm6.034,9.717a26.253,26.253,0,0,1,.979-6.339,3.6,3.6,0,0,1,5.617-1.89,5.89,5.89,0,0,1,2.321,4.118,13.955,13.955,0,0,1-8.917,4.111ZM60,16a14.014,14.014,0,0,1-.186,2.172l-4.357-1.815A3.982,3.982,0,0,1,53,12.672a5.98,5.98,0,0,0-2.668-4.986L48.778,6.65A3.983,3.983,0,0,1,47,3.328V2.051A14.008,14.008,0,0,1,60,16ZM32,16A14.011,14.011,0,0,1,39.45,3.635,9.767,9.767,0,0,1,41,8.882a2.117,2.117,0,0,1-1.338,1.976A5.8,5.8,0,0,0,36,16.268a5.859,5.859,0,0,0,2.829,5l1.138.683A2.138,2.138,0,0,1,41,23.771V27a2.919,2.919,0,0,1-.629,1.809A14.013,14.013,0,0,1,32,16Zm5,24H59a1,1,0,0,1,1,1V52H36V41A1,1,0,0,1,37,40ZM51,60H45V58h6Zm8-4H37a1,1,0,0,1-1-1V54H60v1A1,1,0,0,1,59,56Zm0,0"/>
        <path id="Trazado_778560" data-name="Trazado 778560" d="M24,41a3,3,0,1,0-3,3A3,3,0,0,0,24,41Zm-4,0a1,1,0,1,1,1,1A1,1,0,0,1,20,41Zm0,0"/>
        <path id="Trazado_778561" data-name="Trazado 778561" d="M16.05,36.051a7,7,0,1,0,9.9,9.9l-1.414-1.414a5,5,0,0,1-7.072-7.07Zm0,0"/>
        <path id="Trazado_778562" data-name="Trazado 778562" d="M14.636,47.364a9.011,9.011,0,0,1,0-12.729l-1.414-1.414A11,11,0,0,0,28.778,48.778l-1.414-1.414a9.009,9.009,0,0,1-12.727,0Zm0,0"/>
      </g>
    </g>
    <g id="Enmascarar_grupo_58" data-name="Enmascarar grupo 58" clip-path="url(#clip-path-5)">
      <g id="hospedaje" transform="translate(946 2886)">
        <g id="Grupo_1064843" data-name="Grupo 1064843">
          <g id="Grupo_1064832" data-name="Grupo 1064832">
            <path id="Trazado_778563" data-name="Trazado 778563" d="M55,14a7.155,7.155,0,0,0-2.32.4A11,11,0,0,0,34.51,8.94a13,13,0,0,0-24.15,3.08c-.12-.01-.24-.02-.36-.02a8,8,0,0,0,0,16H55a7,7,0,0,0,0-14Z" fill="#e6e9ed"/>
          </g>
          <g id="Grupo_1064833" data-name="Grupo 1064833">
            <path id="Trazado_778564" data-name="Trazado 778564" d="M48,18H22a2.006,2.006,0,0,0-2,2V40.67a2.054,2.054,0,0,1,2.13.49l.71.71a.486.486,0,0,1,.11.14,1.976,1.976,0,0,1,.5,1.32,2.1,2.1,0,0,1-.23.94,2.031,2.031,0,0,0-.06,1.72V46H32v4H26v.5a2.084,2.084,0,0,1-1.43,1.97,2.046,2.046,0,0,0-1.26,1.18c-.05.12-.1.23-.15.35H50V20a2.006,2.006,0,0,0-2-2Z" fill="#fcd770"/>
          </g>
          <g id="Grupo_1064834" data-name="Grupo 1064834">
            <path id="Trazado_778565" data-name="Trazado 778565" d="M20.67,59.45a2.069,2.069,0,0,0,1.46-.61l.71-.71a2.065,2.065,0,0,0,.38-2.4A2.02,2.02,0,0,1,23,54.8a1.958,1.958,0,0,1,.16-.79V54H50v6a2.006,2.006,0,0,1-2,2H22a2.006,2.006,0,0,1-2-2v-.67A1.933,1.933,0,0,0,20.67,59.45Z" fill="#ffc729"/>
          </g>
          <g id="Grupo_1064835" data-name="Grupo 1064835">
            <path id="Trazado_778566" data-name="Trazado 778566" d="M42,22h4v4H42Z" fill="#ff826e"/>
          </g>
          <g id="Grupo_1064836" data-name="Grupo 1064836">
            <path id="Trazado_778567" data-name="Trazado 778567" d="M24,22h8v4H24Z" fill="#ff826e"/>
          </g>
          <g id="Grupo_1064837" data-name="Grupo 1064837">
            <path id="Trazado_778568" data-name="Trazado 778568" d="M24,34h4v4H24Z" fill="#ff826e"/>
          </g>
          <g id="Grupo_1064838" data-name="Grupo 1064838">
            <path id="Trazado_778569" data-name="Trazado 778569" d="M38,34h8v4H38Z" fill="#ff826e"/>
          </g>
          <g id="Grupo_1064839" data-name="Grupo 1064839">
            <path id="Trazado_778570" data-name="Trazado 778570" d="M42,46h4v4H42Z" fill="#ff826e"/>
          </g>
          <g id="Grupo_1064840" data-name="Grupo 1064840">
            <path id="Trazado_778571" data-name="Trazado 778571" d="M23.16,46H32v4H26v-.5a2.084,2.084,0,0,0-1.43-1.97,2.046,2.046,0,0,1-1.26-1.18C23.26,46.23,23.21,46.12,23.16,46Z" fill="#ff826e"/>
          </g>
          <g id="Grupo_1064841" data-name="Grupo 1064841">
            <path id="Trazado_778572" data-name="Trazado 778572" d="M20,40.67a2.054,2.054,0,0,1,2.13.49l.71.71a.486.486,0,0,1,.11.14,1.976,1.976,0,0,1,.5,1.32,2.1,2.1,0,0,1-.23.94,2.031,2.031,0,0,0-.06,1.72V46c.05.12.1.23.15.35a2.046,2.046,0,0,0,1.26,1.18A2.084,2.084,0,0,1,26,49.5v1a2.084,2.084,0,0,1-1.43,1.97,2.046,2.046,0,0,0-1.26,1.18c-.05.12-.1.23-.15.35v.01a1.958,1.958,0,0,0-.16.79,2.02,2.02,0,0,0,.22.93,2.065,2.065,0,0,1-.38,2.4l-.71.71a2.069,2.069,0,0,1-1.46.61,1.933,1.933,0,0,1-.67-.12l-.27-.11a2.031,2.031,0,0,0-1.72-.06l-.36.15a2.046,2.046,0,0,0-1.18,1.26A2.084,2.084,0,0,1,14.5,62h-1a2.084,2.084,0,0,1-1.97-1.43,2.046,2.046,0,0,0-1.18-1.26l-.36-.15A1.958,1.958,0,0,0,9.2,59a2.02,2.02,0,0,0-.93.22,2.065,2.065,0,0,1-2.4-.38l-.71-.71a2.069,2.069,0,0,1-.61-1.46,2.1,2.1,0,0,1,.23-.94,2.031,2.031,0,0,0,.06-1.72l-.15-.36a2.046,2.046,0,0,0-1.26-1.18A2.084,2.084,0,0,1,2,50.5v-1a2.084,2.084,0,0,1,1.43-1.97,2.046,2.046,0,0,0,1.26-1.18l.15-.36A1.958,1.958,0,0,0,5,45.2a2.02,2.02,0,0,0-.22-.93,2.065,2.065,0,0,1,.38-2.4l.71-.71a2.069,2.069,0,0,1,1.46-.61,2.1,2.1,0,0,1,.94.23,2.031,2.031,0,0,0,1.72.06l.36-.15a2.046,2.046,0,0,0,1.18-1.26A2.084,2.084,0,0,1,13.5,38h1a2.084,2.084,0,0,1,1.97,1.43,2.046,2.046,0,0,0,1.18,1.26l.36.15a1.958,1.958,0,0,0,.79.16,2.02,2.02,0,0,0,.93-.22c.09-.04.18-.08.27-.11ZM20,50a6,6,0,1,0-6,6A6,6,0,0,0,20,50Z" fill="#a0d468"/>
          </g>
          <g id="Grupo_1064842" data-name="Grupo 1064842">
            <path id="Trazado_778573" data-name="Trazado 778573" d="M14,44a6,6,0,1,1-6,6A6,6,0,0,1,14,44Zm2,6a2,2,0,1,0-2,2A2.006,2.006,0,0,0,16,50Z" fill="#b4dd7f"/>
          </g>
        </g>
        <g id="Grupo_1064844" data-name="Grupo 1064844">
          <path id="Trazado_778574" data-name="Trazado 778574" d="M14,43a7,7,0,1,0,7,7A7.009,7.009,0,0,0,14,43Zm0,12a5,5,0,1,1,5-5A5.006,5.006,0,0,1,14,55Z"/>
          <path id="Trazado_778575" data-name="Trazado 778575" d="M14,47a3,3,0,1,0,3,3A3,3,0,0,0,14,47Zm0,4a1,1,0,1,1,1-1A1,1,0,0,1,14,51Z"/>
          <path id="Trazado_778576" data-name="Trazado 778576" d="M55,13a7.86,7.86,0,0,0-1.636.173A11.972,11.972,0,0,0,34.775,7.434,13.989,13.989,0,0,0,9.591,11.009,9,9,0,0,0,10,29h9V39.96a.988.988,0,0,1-.595-.037c-.128-.056-.258-.108-.391-.16a1.032,1.032,0,0,1-.6-.647A3.065,3.065,0,0,0,14.5,37h-1a3.069,3.069,0,0,0-2.921,2.115,1.026,1.026,0,0,1-.6.647c-.132.052-.262.1-.391.161a1.033,1.033,0,0,1-.873-.038,3.072,3.072,0,0,0-3.561.569l-.7.706a3.069,3.069,0,0,0-.568,3.56,1.027,1.027,0,0,1,.037.875c-.056.128-.108.258-.16.391a1.032,1.032,0,0,1-.647.6A3.065,3.065,0,0,0,1,49.5v1a3.069,3.069,0,0,0,2.115,2.921,1.026,1.026,0,0,1,.647.6c.052.132.1.262.161.391a1.03,1.03,0,0,1-.038.873,3.069,3.069,0,0,0,.569,3.561l.7.706a3.068,3.068,0,0,0,3.56.568,1.03,1.03,0,0,1,.875-.037c.128.056.258.108.391.16a1.032,1.032,0,0,1,.6.647A3.068,3.068,0,0,0,13.5,63h1a3.069,3.069,0,0,0,2.921-2.115,1.026,1.026,0,0,1,.6-.647c.132-.052.262-.1.391-.161a.989.989,0,0,1,.6-.035A3,3,0,0,0,22,63H48a3,3,0,0,0,3-3V29h4a8,8,0,0,0,0-16ZM20.181,58.329a3.022,3.022,0,0,0-2.57-.088c-.106.046-.213.091-.32.133a3.021,3.021,0,0,0-1.771,1.888A1.074,1.074,0,0,1,14.5,61h-1a1.071,1.071,0,0,1-1.021-.74,3.023,3.023,0,0,0-1.771-1.886c-.108-.042-.215-.087-.32-.132A2.976,2.976,0,0,0,9.2,58a3.075,3.075,0,0,0-1.387.333,1.073,1.073,0,0,1-1.244-.2l-.7-.705a1.073,1.073,0,0,1-.2-1.245,3.022,3.022,0,0,0,.088-2.57c-.046-.106-.091-.213-.133-.32A3.021,3.021,0,0,0,3.738,51.52,1.074,1.074,0,0,1,3,50.5v-1a1.071,1.071,0,0,1,.74-1.021A3.023,3.023,0,0,0,5.626,46.71c.042-.108.087-.215.132-.32a3.023,3.023,0,0,0-.087-2.572,1.073,1.073,0,0,1,.2-1.244l.7-.705a1.076,1.076,0,0,1,1.245-.2,3.019,3.019,0,0,0,2.57.088c.106-.046.213-.091.32-.133a3.021,3.021,0,0,0,1.771-1.888A1.074,1.074,0,0,1,13.5,39h1a1.071,1.071,0,0,1,1.021.74,3.023,3.023,0,0,0,1.771,1.886c.108.042.215.087.32.132a3.023,3.023,0,0,0,2.572-.087,1.072,1.072,0,0,1,1.244.2l.7.705a1.073,1.073,0,0,1,.2,1.245,3.022,3.022,0,0,0-.088,2.57c.046.106.091.213.133.32a3.021,3.021,0,0,0,1.888,1.771A1.074,1.074,0,0,1,25,49.5v1a1.071,1.071,0,0,1-.74,1.021,3.023,3.023,0,0,0-1.886,1.771c-.042.108-.087.215-.132.32a3.023,3.023,0,0,0,.087,2.572,1.073,1.073,0,0,1-.2,1.244l-.7.7a1.072,1.072,0,0,1-1.245.2ZM49,60a1,1,0,0,1-1,1H22a1,1,0,0,1-.906-.588,3.066,3.066,0,0,0,1.746-.867l.706-.705a3.069,3.069,0,0,0,.568-3.56A1.074,1.074,0,0,1,24.04,55H49Zm0-7H25.708a3.066,3.066,0,0,0,1.25-2H33V45H24.04a1.056,1.056,0,0,1,.074-.279A3.064,3.064,0,0,0,24.42,43H49ZM25.708,47H31v2H26.958A3.062,3.062,0,0,0,25.708,47ZM49,41H23.385l-.545-.545A3.057,3.057,0,0,0,21,39.578V31H49Zm0-12H21V20a1,1,0,0,1,1-1H48a1,1,0,0,1,1,1Zm6-2H51V20a3,3,0,0,0-3-3H22a3,3,0,0,0-3,3v7H10a7,7,0,0,1,0-14c.053,0,.1,0,.156.008l.985.043.189-.805A11.992,11.992,0,0,1,33.271,8.8a11.994,11.994,0,0,0-1.329,1.658l1.676,1.092a9.993,9.993,0,0,1,18.089,3.092l.261,1.075,1.043-.367A6,6,0,1,1,55,27Z"/>
          <path id="Trazado_778577" data-name="Trazado 778577" d="M47,45H41v6h6Zm-2,4H43V47h2Z"/>
          <path id="Trazado_778578" data-name="Trazado 778578" d="M29,33H23v6h6Zm-2,4H25V35h2Z"/>
          <path id="Trazado_778579" data-name="Trazado 778579" d="M47,33H37v6H47Zm-2,4H39V35h6Z"/>
          <path id="Trazado_778580" data-name="Trazado 778580" d="M41,27h6V21H41Zm2-4h2v2H43Z"/>
          <path id="Trazado_778581" data-name="Trazado 778581" d="M23,27H33V21H23Zm2-4h6v2H25Z"/>
          <path id="Trazado_778582" data-name="Trazado 778582" d="M41,57h2v2H41Z"/>
          <path id="Trazado_778583" data-name="Trazado 778583" d="M45,57h2v2H45Z"/>
          <path id="Trazado_778584" data-name="Trazado 778584" d="M37,57h2v2H37Z"/>
          <path id="Trazado_778585" data-name="Trazado 778585" d="M24.778,7.2a7.937,7.937,0,0,1,1.89.69l.918-1.777a9.935,9.935,0,0,0-2.364-.864Z"/>
          <path id="Trazado_778586" data-name="Trazado 778586" d="M13.247,12.778l1.951.443A7.956,7.956,0,0,1,23,7V5A9.945,9.945,0,0,0,13.247,12.778Z"/>
        </g>
      </g>
    </g>
    <g id="Enmascarar_grupo_59" data-name="Enmascarar grupo 59" clip-path="url(#clip-path-6)">
      <g id="desarrollo-de-aplicaciones" transform="translate(1130 2886)">
        <rect id="Rectángulo_374012" data-name="Rectángulo 374012" width="60" height="48" rx="2" transform="translate(2 2)" fill="#e2e7f6"/>
        <path id="Trazado_778587" data-name="Trazado 778587" d="M4,2A2,2,0,0,0,2,4V47H56a2,2,0,0,0,2-2V2Z" fill="#f7fafd"/>
        <path id="Trazado_778588" data-name="Trazado 778588" d="M60,2H4A2,2,0,0,0,2,4v6H62V4A2,2,0,0,0,60,2Z" fill="#5e87ca"/>
        <path id="Trazado_778589" data-name="Trazado 778589" d="M58,2H4A2,2,0,0,0,2,4v6H58Z" fill="#78a0d4"/>
        <path id="Trazado_778590" data-name="Trazado 778590" d="M60,50H4a2,2,0,0,1-2-2V42H62v6A2,2,0,0,1,60,50Z" fill="#5e87ca"/>
        <path id="Trazado_778591" data-name="Trazado 778591" d="M2,42v5H56a2,2,0,0,0,2-2V42Z" fill="#78a0d4"/>
        <path id="Trazado_778592" data-name="Trazado 778592" d="M5,45h8v2H5Z" fill="#f7fafd"/>
        <path id="Trazado_778593" data-name="Trazado 778593" d="M15,45h2v2H15Z" fill="#f7fafd"/>
        <path id="Trazado_778594" data-name="Trazado 778594" d="M45.764,58H18.236a2,2,0,0,0-1.789,1.106L15,62H49l-1.447-2.894A2,2,0,0,0,45.764,58Z" fill="#3b5892"/>
        <path id="Trazado_778595" data-name="Trazado 778595" d="M40,58l-2-8H26l-2,8Z" fill="#c8cded"/>
        <path id="Trazado_778596" data-name="Trazado 778596" d="M45,59V58H18.236a2,2,0,0,0-1.789,1.106L16,60H44A1,1,0,0,0,45,59Z" fill="#4c6cb5"/>
        <g id="Grupo_1064845" data-name="Grupo 1064845">
          <path id="Trazado_778597" data-name="Trazado 778597" d="M30,5h4V7H30Z" fill="#f7fafd"/>
          <path id="Trazado_778598" data-name="Trazado 778598" d="M36,5h2V7H36Z" fill="#f7fafd"/>
          <path id="Trazado_778599" data-name="Trazado 778599" d="M26,5h2V7H26Z" fill="#f7fafd"/>
        </g>
        <path id="Trazado_778600" data-name="Trazado 778600" d="M26,28V24H23.738a7.968,7.968,0,0,0-.852-2.058l1.6-1.6-2.828-2.828-1.6,1.6A7.968,7.968,0,0,0,18,18.262V16H14v2.262a7.968,7.968,0,0,0-2.058.852l-1.6-1.6L7.515,20.343l1.6,1.6A7.968,7.968,0,0,0,8.262,24H6v4H8.262a7.968,7.968,0,0,0,.852,2.058l-1.6,1.6,2.828,2.828,1.6-1.6A7.968,7.968,0,0,0,14,33.738V36h4V33.738a7.968,7.968,0,0,0,2.058-.852l1.6,1.6,2.828-2.828-1.6-1.6A7.968,7.968,0,0,0,23.738,28Z" fill="#939393"/>
        <circle id="Elipse_4754" data-name="Elipse 4754" cx="4" cy="4" r="4" transform="translate(12 22)" fill="#f2f2f2"/>
        <path id="Trazado_778601" data-name="Trazado 778601" d="M18,16H14v2.262a7.968,7.968,0,0,0-2.058.852l-1.6-1.6L7.515,20.343l1.6,1.6A7.968,7.968,0,0,0,8.262,24H6v4H8.262a7.968,7.968,0,0,0,.852,2.058l-.723.723a9.9,9.9,0,0,0,11.525-9.823,10,10,0,0,0-.2-2.017A7.948,7.948,0,0,0,18,18.262Z" fill="#b5b5b5"/>
        <path id="Trazado_778602" data-name="Trazado 778602" d="M40,14H58v6H40Z" fill="#f0ae42"/>
        <path id="Trazado_778603" data-name="Trazado 778603" d="M56,17V14H40v4H55A1,1,0,0,0,56,17Z" fill="#f9d266"/>
        <path id="Trazado_778604" data-name="Trazado 778604" d="M40,24H58v4H40Z" fill="#f0ae42"/>
        <path id="Trazado_778605" data-name="Trazado 778605" d="M56,25V24H40v2H55A1,1,0,0,0,56,25Z" fill="#f9d266"/>
        <path id="Trazado_778606" data-name="Trazado 778606" d="M40,32H58v6H40Z" fill="#f0ae42"/>
        <path id="Trazado_778607" data-name="Trazado 778607" d="M56,35V32H40v4H55A1,1,0,0,0,56,35Z" fill="#f9d266"/>
        <path id="Trazado_778608" data-name="Trazado 778608" d="M40,18V16H32a1,1,0,0,0-1,1v8H26v2h5v8a1,1,0,0,0,1,1h8V34H33V27h7V25H33V18Z" fill="#3b5892"/>
        <path id="Trazado_778609" data-name="Trazado 778609" d="M19.441,23.993a3.989,3.989,0,1,0-4.8,5.753,9.977,9.977,0,0,0,4.8-5.753Z" fill="#f7fafd"/>
        <path id="Trazado_778610" data-name="Trazado 778610" d="M60,1H4A3,3,0,0,0,1,4V48a3,3,0,0,0,3,3H24.719l-1.5,6H18.236a2.983,2.983,0,0,0-2.683,1.658l-1.448,2.9A1,1,0,0,0,15,63H49a1,1,0,0,0,.9-1.447l-1.448-2.9A2.983,2.983,0,0,0,45.764,57H40.781l-1.5-6H60a3,3,0,0,0,3-3V4a3,3,0,0,0-3-3ZM4,3H60a1,1,0,0,1,1,1V9H3V4A1,1,0,0,1,4,3Zm57,8V41H3V11ZM46.658,59.553,47.382,61H16.618l.724-1.447A.994.994,0,0,1,18.236,59H45.764a.994.994,0,0,1,.894.553ZM38.719,57H25.281l1.5-6H37.219ZM60,49H4a1,1,0,0,1-1-1V43H61v5A1,1,0,0,1,60,49Z"/>
        <path id="Trazado_778611" data-name="Trazado 778611" d="M30,5h4V7H30Z"/>
        <path id="Trazado_778612" data-name="Trazado 778612" d="M36,5h2V7H36Z"/>
        <path id="Trazado_778613" data-name="Trazado 778613" d="M26,5h2V7H26Z"/>
        <path id="Trazado_778614" data-name="Trazado 778614" d="M5,45h8v2H5Z"/>
        <path id="Trazado_778615" data-name="Trazado 778615" d="M15,45h2v2H15Z"/>
        <path id="Trazado_778616" data-name="Trazado 778616" d="M6,29H7.522a9.266,9.266,0,0,0,.362.873L6.808,30.95a1,1,0,0,0,0,1.414l2.828,2.828a1,1,0,0,0,1.414,0l1.077-1.076a9.265,9.265,0,0,0,.873.362V36a1,1,0,0,0,1,1h4a1,1,0,0,0,1-1V34.478a9.265,9.265,0,0,0,.873-.362l1.077,1.076a1,1,0,0,0,1.414,0l2.828-2.828a1,1,0,0,0,0-1.414l-1.076-1.077A9.267,9.267,0,0,0,24.478,29H26a1,1,0,0,0,1-1V27h4v8a1,1,0,0,0,1,1h7v2a1,1,0,0,0,1,1H58a1,1,0,0,0,1-1V32a1,1,0,0,0-1-1H40a1,1,0,0,0-1,1v2H33V27h6v1a1,1,0,0,0,1,1H58a1,1,0,0,0,1-1V24a1,1,0,0,0-1-1H40a1,1,0,0,0-1,1v1H33V18h6v2a1,1,0,0,0,1,1H58a1,1,0,0,0,1-1V14a1,1,0,0,0-1-1H40a1,1,0,0,0-1,1v2H32a1,1,0,0,0-1,1v8H27V24a1,1,0,0,0-1-1H24.478a9.267,9.267,0,0,0-.362-.873l1.076-1.077a1,1,0,0,0,0-1.414l-2.828-2.828a1,1,0,0,0-1.414,0l-1.077,1.076A9.265,9.265,0,0,0,19,17.522V16a1,1,0,0,0-1-1H14a1,1,0,0,0-1,1v1.522a9.266,9.266,0,0,0-.873.362L11.05,16.808a1,1,0,0,0-1.414,0L6.808,19.636a1,1,0,0,0,0,1.414l1.076,1.077A9.266,9.266,0,0,0,7.522,23H6a1,1,0,0,0-1,1v4A1,1,0,0,0,6,29Zm35,4H57v4H41Zm0-8H57v2H41Zm0-10H57v4H41ZM7,25H8.262a1,1,0,0,0,.968-.75,7,7,0,0,1,.745-1.8,1,1,0,0,0-.154-1.216l-.892-.892,1.414-1.414.892.892a1,1,0,0,0,1.216.154,7,7,0,0,1,1.8-.745,1,1,0,0,0,.75-.968V17h2v1.262a1,1,0,0,0,.75.968,7,7,0,0,1,1.8.745,1,1,0,0,0,1.216-.154l.892-.892,1.414,1.414-.892.892a1,1,0,0,0-.154,1.216,7,7,0,0,1,.745,1.8,1,1,0,0,0,.968.75H25v2H23.738a1,1,0,0,0-.968.75,7,7,0,0,1-.745,1.8,1,1,0,0,0,.154,1.216l.892.892-1.414,1.414-.892-.892a1,1,0,0,0-1.216-.154,7,7,0,0,1-1.8.745,1,1,0,0,0-.75.968V35H15V33.738a1,1,0,0,0-.75-.968,7,7,0,0,1-1.8-.745,1,1,0,0,0-1.216.154l-.892.892L8.929,31.657l.892-.892a1,1,0,0,0,.154-1.216,7,7,0,0,1-.745-1.8A1,1,0,0,0,8.262,27H7Z"/>
        <path id="Trazado_778617" data-name="Trazado 778617" d="M16,31a5,5,0,1,0-5-5,5,5,0,0,0,5,5Zm0-8a3,3,0,1,1-3,3A3,3,0,0,1,16,23Z"/>
      </g>
    </g>
    <g id="Enmascarar_grupo_60" data-name="Enmascarar grupo 60" clip-path="url(#clip-path-7)">
      <g id="carpeta" transform="translate(1301 2887)">
        <path id="Trazado_778618" data-name="Trazado 778618" d="M46.531,33.912H29.863a1.941,1.941,0,0,1-1.373-.569l-2.461-2.461a2.912,2.912,0,0,0-2.059-.853h-8.5a2.912,2.912,0,0,0-2.912,2.912V58.18a2.912,2.912,0,0,0,2.912,2.912H46.532a2.912,2.912,0,0,0,2.912-2.912V36.824a2.912,2.912,0,0,0-2.912-2.912Z" fill="#ffe09f"/>
        <path id="Trazado_778619" data-name="Trazado 778619" d="M49.265,58.18H20.322a4.859,4.859,0,0,1-4.854-4.854v-23.3a2.912,2.912,0,0,0-2.912,2.912V58.18a2.912,2.912,0,0,0,2.912,2.912H46.531a2.912,2.912,0,0,0,2.912-2.912h-.178Z" fill="#f6d190"/>
        <path id="Trazado_778620" data-name="Trazado 778620" d="M50.107,59.1l6.676-20.028a.971.971,0,0,0-.921-1.278H22.421a2.912,2.912,0,0,0-2.763,1.991L13.011,59.729a2.9,2.9,0,0,0,2.458,1.363H47.345A2.913,2.913,0,0,0,50.107,59.1Z" fill="#ecbd83"/>
        <path id="Trazado_778621" data-name="Trazado 778621" d="M11.586.908H3.82a.971.971,0,0,0-.971.971V17.41a.971.971,0,0,0,.971.971H15.469a.971.971,0,0,0,.971-.971V5.762Z" fill="#eceaec"/>
        <circle id="Elipse_4755" data-name="Elipse 4755" cx="1.941" cy="1.941" r="1.941" transform="translate(29.059 22.264)" fill="#b6b1b7"/>
        <path id="Trazado_778622" data-name="Trazado 778622" d="M5.762,12.557V.908H3.82a.971.971,0,0,0-.971.971V17.41a.971.971,0,0,0,.971.971H15.469a.971.971,0,0,0,.971-.971V15.469H8.674a2.912,2.912,0,0,1-2.912-2.912Z" fill="#dad8db"/>
        <path id="Trazado_778623" data-name="Trazado 778623" d="M11.586,4.791a.971.971,0,0,0,.971.971H16.44L11.586.908Z" fill="#dad8db"/>
        <path id="Trazado_778624" data-name="Trazado 778624" d="M20.322,58.18a4.859,4.859,0,0,1-4.854-4.854v-.971l-2.458,7.373a2.9,2.9,0,0,0,2.458,1.363H47.345A2.912,2.912,0,0,0,50.107,59.1l.307-.921Z" fill="#e2a975"/>
        <path id="Trazado_778625" data-name="Trazado 778625" d="M32.942.908H25.176a.971.971,0,0,0-.971.971V17.41a.971.971,0,0,0,.971.971H36.824a.971.971,0,0,0,.971-.971V5.762Z" fill="#eceaec"/>
        <path id="Trazado_778626" data-name="Trazado 778626" d="M27.117,12.557V.908H25.176a.971.971,0,0,0-.971.971V17.41a.971.971,0,0,0,.971.971H36.824a.971.971,0,0,0,.971-.971V15.469H30.029a2.912,2.912,0,0,1-2.912-2.912Z" fill="#dad8db"/>
        <path id="Trazado_778627" data-name="Trazado 778627" d="M32.942,4.791a.971.971,0,0,0,.971.971H37.8L32.942.908Z" fill="#dad8db"/>
        <path id="Trazado_778628" data-name="Trazado 778628" d="M54.3.908H46.531a.971.971,0,0,0-.971.971V17.41a.971.971,0,0,0,.971.971H58.18a.971.971,0,0,0,.971-.971V5.762Z" fill="#eceaec"/>
        <path id="Trazado_778629" data-name="Trazado 778629" d="M48.473,12.557V.908H46.531a.971.971,0,0,0-.971.971V17.41a.971.971,0,0,0,.971.971H58.18a.971.971,0,0,0,.971-.971V15.469H51.385a2.912,2.912,0,0,1-2.912-2.912Z" fill="#dad8db"/>
        <path id="Trazado_778630" data-name="Trazado 778630" d="M54.3,4.791a.971.971,0,0,0,.971.971h3.883L54.3.908Z" fill="#dad8db"/>
        <path id="Trazado_778631" data-name="Trazado 778631" d="M45.561,55.33H38.766a.908.908,0,0,0,0,1.816h6.795a.908.908,0,0,0,0-1.816Z"/>
        <path id="Trazado_778632" data-name="Trazado 778632" d="M47.5,51.447H40.707a.908.908,0,1,0,0,1.816H47.5a.908.908,0,1,0,0-1.816Z"/>
        <path id="Trazado_778633" data-name="Trazado 778633" d="M6.732,10.553h4.854a.908.908,0,0,0,0-1.816H6.732a.908.908,0,1,0,0,1.816Z"/>
        <path id="Trazado_778634" data-name="Trazado 778634" d="M12.494,13.527a.908.908,0,0,0-.908-.908H6.732a.908.908,0,1,0,0,1.816h4.854A.908.908,0,0,0,12.494,13.527Z"/>
        <path id="Trazado_778635" data-name="Trazado 778635" d="M28.088,10.553h4.854a.908.908,0,0,0,0-1.816H28.088a.908.908,0,0,0,0,1.816Z"/>
        <path id="Trazado_778636" data-name="Trazado 778636" d="M33.85,13.527a.908.908,0,0,0-.908-.908H28.088a.908.908,0,0,0,0,1.816h4.854A.908.908,0,0,0,33.85,13.527Z"/>
        <path id="Trazado_778637" data-name="Trazado 778637" d="M59.793,5.12,54.939.266A.908.908,0,0,0,54.3,0H46.531a1.881,1.881,0,0,0-1.879,1.879V17.41a1.881,1.881,0,0,0,1.879,1.879h4.916v2.975A1.034,1.034,0,0,1,50.414,23.3H33.7A2.862,2.862,0,0,0,31.908,21.5V19.289h4.916A1.881,1.881,0,0,0,38.7,17.41V5.762a.908.908,0,0,0-.266-.642L33.584.266A.908.908,0,0,0,32.942,0H25.176A1.881,1.881,0,0,0,23.3,1.879V17.41a1.881,1.881,0,0,0,1.879,1.879h4.916V21.5A2.862,2.862,0,0,0,28.3,23.3H11.586a1.034,1.034,0,0,1-1.033-1.033V19.289h4.916a1.881,1.881,0,0,0,1.879-1.879V5.762a.908.908,0,0,0-.266-.642L12.228.266A.908.908,0,0,0,11.586,0H3.82A1.881,1.881,0,0,0,1.941,1.879V17.41A1.881,1.881,0,0,0,3.82,19.289H8.736v2.975a2.853,2.853,0,0,0,2.85,2.85H28.3a2.862,2.862,0,0,0,1.792,1.792V33a1.987,1.987,0,0,1-1.244-.579L26.671,30.24a3.8,3.8,0,0,0-2.7-1.119h-8.5a3.825,3.825,0,0,0-3.82,3.82V58.18A3.825,3.825,0,0,0,15.468,62H47.344a3.816,3.816,0,0,0,3.624-2.612L57.645,39.36a1.879,1.879,0,0,0-1.783-2.473H50.352v-.062A3.825,3.825,0,0,0,46.531,33H34.883a.908.908,0,0,0,0,1.816H46.531a2.006,2.006,0,0,1,2,2v.062H31.908V26.905A2.862,2.862,0,0,0,33.7,25.113H50.414a2.853,2.853,0,0,0,2.85-2.85V19.289H58.18a1.881,1.881,0,0,0,1.879-1.879V5.762a.908.908,0,0,0-.266-.642ZM33.85,3.1,35.6,4.853h-1.69a.062.062,0,0,1-.062-.062ZM25.113,17.41V1.879a.062.062,0,0,1,.062-.062h6.857V4.791A1.881,1.881,0,0,0,33.912,6.67h2.975V17.41a.062.062,0,0,1-.062.062H25.176a.062.062,0,0,1-.062-.062ZM12.494,3.1l1.753,1.753h-1.69a.062.062,0,0,1-.062-.062ZM3.758,17.41V1.879a.062.062,0,0,1,.062-.062h6.857V4.791A1.881,1.881,0,0,0,12.557,6.67h2.975V17.41a.063.063,0,0,1-.063.062H3.82a.062.062,0,0,1-.062-.062ZM31,23.172A1.034,1.034,0,0,1,32.033,24.2v0A1.033,1.033,0,1,1,31,23.172ZM55.913,38.729a.057.057,0,0,1,.009.056L49.246,58.814a2,2,0,0,1-1.9,1.37H15.469a2,2,0,0,1-1.446-.62l6.5-19.491a2,2,0,0,1,1.9-1.37H55.862a.057.057,0,0,1,.051.026ZM22.421,36.887A3.816,3.816,0,0,0,18.8,39.5l-5.332,16V32.942a2.006,2.006,0,0,1,2-2h8.5a1.99,1.99,0,0,1,1.417.587L27.563,33.7a3.793,3.793,0,0,0,2.528,1.115v2.071ZM55.205,3.1l1.753,1.753h-1.69a.062.062,0,0,1-.062-.062ZM58.18,17.473H46.532a.063.063,0,0,1-.063-.062V1.879a.063.063,0,0,1,.063-.062h6.857V4.791A1.881,1.881,0,0,0,55.268,6.67h2.975V17.41a.063.063,0,0,1-.062.063Z"/>
        <path id="Trazado_778638" data-name="Trazado 778638" d="M54.3,8.736H49.444a.908.908,0,1,0,0,1.816H54.3a.908.908,0,0,0,0-1.816Z"/>
        <path id="Trazado_778639" data-name="Trazado 778639" d="M54.3,12.619H49.444a.908.908,0,0,0,0,1.816H54.3a.908.908,0,0,0,0-1.816Z"/>
      </g>
    </g>
  </g>
</svg>
