<svg xmlns="http://www.w3.org/2000/svg" xmlns:xlink="http://www.w3.org/1999/xlink" width="70" height="70" viewBox="0 0 70 70">
  <defs>
    <clipPath id="clip-path">
      <rect id="Rectángulo_373507" data-name="Rectángulo 373507" width="70" height="70" transform="translate(766 3517)" fill="#8f52f5"/>
    </clipPath>
  </defs>
  <g id="Enmascarar_grupo_6" data-name="Enmascarar grupo 6" transform="translate(-766 -3517)" clip-path="url(#clip-path)">
    <g id="empleados" transform="translate(766 3517)">
      <g id="Grupo_1064207" data-name="Grupo 1064207">
        <g id="Grupo_1064206" data-name="Grupo 1064206">
          <path id="Trazado_777669" data-name="Trazado 777669" d="M43.073,49.449H39.236a1.025,1.025,0,1,0,0,2.051h3.837a1.025,1.025,0,1,0,0-2.051Z" fill="#8f52f5"/>
        </g>
      </g>
      <g id="Grupo_1064209" data-name="Grupo 1064209">
        <g id="Grupo_1064208" data-name="Grupo 1064208">
          <path id="Trazado_777670" data-name="Trazado 777670" d="M65.659,38.472l-5.584-2.154-2.847-2.847a1.021,1.021,0,0,0-.659-.3V30.909a10.575,10.575,0,0,0,2.682-5.283,2.933,2.933,0,0,0,.719-.057,3.035,3.035,0,0,0,2.355-3.01v-.748a3.073,3.073,0,0,0-.9-2.181c.905-4.925.16-8.938-2.166-11.624-2.25-2.6-5.875-3.84-10.483-3.591A13.734,13.734,0,0,0,40.9,7.321a5.4,5.4,0,0,0-2.11.717c-1.139.683-2.5,2.119-2.5,5.076A25.605,25.605,0,0,0,37,19.07a3.039,3.039,0,0,0-1.67,2.752v.736a3.035,3.035,0,0,0,2.355,3.01,2.927,2.927,0,0,0,.719.057,10.576,10.576,0,0,0,2.682,5.283v2.265a1.021,1.021,0,0,0-.659.3l-2.847,2.847L32,38.472a6.79,6.79,0,0,0-1.371.718,1.025,1.025,0,1,0,1.152,1.7,4.744,4.744,0,0,1,.957-.5l5.182-2,3.962,5.943a2.933,2.933,0,0,0,2.159,1.3c.1.01.2.014.293.014a2.927,2.927,0,0,0,1.443-.382l-.85,19.287a1.025,1.025,0,0,0,.979,1.07h.046a1.025,1.025,0,0,0,1.024-.98l.789-17.9h2.129l.789,17.9a1.025,1.025,0,0,0,1.024.98h.046a1.025,1.025,0,0,0,.979-1.07l-.85-19.287a2.926,2.926,0,0,0,1.443.382c.1,0,.2,0,.293-.014a2.934,2.934,0,0,0,2.159-1.3l3.962-5.943,5.182,2a4.72,4.72,0,0,1,1.844,1.285L63.22,45.216a6.737,6.737,0,0,0-1.986,4.8v14.58a1.025,1.025,0,1,0,2.051,0V50.011a4.7,4.7,0,0,1,1.386-3.345l3.111-3.111a4.725,4.725,0,0,1,.164,1.433l-.794,19.562a1.026,1.026,0,0,0,.983,1.066h.042a1.025,1.025,0,0,0,1.024-.984l.794-19.562A6.779,6.779,0,0,0,65.659,38.472ZM40.413,25.2a2,2,0,0,0-2.076-1.627.88.88,0,0,1-.239-.016.994.994,0,0,1-.715-1v-.736a.972.972,0,0,1,.724-.975.891.891,0,0,1,.878.336,1.43,1.43,0,0,0,1.965.308,7.444,7.444,0,0,0,1.682-1.644,1.025,1.025,0,0,0-1.646-1.224,5.443,5.443,0,0,1-.8.863,2.933,2.933,0,0,0-1.112-.594,23.583,23.583,0,0,1-.732-5.779,3.592,3.592,0,0,1,1.439-3.28,3.328,3.328,0,0,1,1.533-.492,1.035,1.035,0,0,0,.708-.283,11.551,11.551,0,0,1,6.862-2.6c3.951-.213,7,.784,8.822,2.885,1.834,2.118,2.445,5.369,1.782,9.439a4.444,4.444,0,0,0-.875.061l-.963-2.314a1.026,1.026,0,0,0-1.206-.6c-.1.025-9.565,2.425-13.535-2.518a1.025,1.025,0,1,0-1.6,1.284c4.055,5.048,12.1,3.95,14.778,3.414l.745,1.789a1.685,1.685,0,0,0,1.948,1,2.213,2.213,0,0,1,.767-.056.967.967,0,0,1,.727.962v.748a.994.994,0,0,1-.715,1,.869.869,0,0,1-.239.016A2,2,0,0,0,57.244,25.2a8.557,8.557,0,0,1-16.831,0Zm4.549,18.126a.893.893,0,0,1-1.375-.136L39.6,37.205,41.2,35.6l6.128,5.362Zm2.893,1.354.062-1.409.912-.912.912.912.062,1.409Zm.974-5.134-5.69-4.979V32.608a10.612,10.612,0,0,0,11.38,0V34.57Zm5.242,3.643a.893.893,0,0,1-1.375.136l-2.367-2.367L56.457,35.6,58.062,37.2Z" fill="#8f52f5"/>
        </g>
      </g>
      <g id="Grupo_1064211" data-name="Grupo 1064211">
        <g id="Grupo_1064210" data-name="Grupo 1064210">
          <path id="Trazado_777671" data-name="Trazado 777671" d="M32.518,43.846,27.511,41.66l-2.737-2.737a1.019,1.019,0,0,0-.659-.3V37.013a10.591,10.591,0,0,0,4.6-6.895,2.946,2.946,0,0,0,.809-.077,3.052,3.052,0,0,0,2.264-2.99V26.3a3.057,3.057,0,0,0-1.314-2.522,11.6,11.6,0,0,0,.355-2.841A11.955,11.955,0,0,0,25.073,10.8a6.648,6.648,0,0,0-6.78-6.419,6.648,6.648,0,0,0-6.78,6.419A11.956,11.956,0,0,0,5.756,20.941a11.6,11.6,0,0,0,.352,2.833A3.064,3.064,0,0,0,4.8,26.315v.736a3.052,3.052,0,0,0,2.264,2.99,2.94,2.94,0,0,0,.809.077,10.591,10.591,0,0,0,4.6,6.895v1.613a1.019,1.019,0,0,0-.659.3L9.075,41.66,4.068,43.846a6.824,6.824,0,0,0-4.062,6.5L.612,64.634a1.026,1.026,0,0,0,1.024.982h.044a1.025,1.025,0,0,0,.981-1.068L2.055,50.261a4.721,4.721,0,0,1,.65-2.582L5.4,50.908a5.7,5.7,0,0,1,1.319,3.643v10.04a1.025,1.025,0,0,0,2.051,0V54.551A7.755,7.755,0,0,0,6.972,49.6L4.111,46.162a4.649,4.649,0,0,1,.778-.437l4.364-1.9,3.084,5.005a1.985,1.985,0,0,0,2.978.469l1.954-1.667V64.591a1.025,1.025,0,0,0,2.051,0V47.627l1.954,1.667a1.985,1.985,0,0,0,2.978-.469l3.084-5.005,4.364,1.9a4.654,4.654,0,0,1,.778.437L29.615,49.6a7.755,7.755,0,0,0-1.794,4.955v10.04a1.025,1.025,0,0,0,2.051,0V54.551a5.7,5.7,0,0,1,1.319-3.643l2.691-3.23a4.721,4.721,0,0,1,.65,2.582l-.606,14.286a1.026,1.026,0,0,0,.981,1.068h.044a1.025,1.025,0,0,0,1.024-.982l.606-14.286A6.825,6.825,0,0,0,32.518,43.846ZM18.293,6.434a4.7,4.7,0,0,1,4.566,3.277,13,13,0,0,0-9.133,0A4.7,4.7,0,0,1,18.293,6.434ZM9.877,29.7A2,2,0,0,0,7.8,28.068a.886.886,0,0,1-.268-.023,1,1,0,0,1-.686-.994v-.736a.972.972,0,0,1,.724-.975.891.891,0,0,1,.877.336,1.43,1.43,0,0,0,1.965.309,7.438,7.438,0,0,0,1.66-1.615,1.025,1.025,0,0,0-1.64-1.231,5.436,5.436,0,0,1-.782.841A2.938,2.938,0,0,0,8.1,23.3a9.55,9.55,0,0,1-.3-2.357A10.267,10.267,0,0,1,18.293,10.935,10.267,10.267,0,0,1,28.78,20.941a9.546,9.546,0,0,1-.3,2.352,4.7,4.7,0,0,0-.8.132l-.771-.634a1.969,1.969,0,0,0-1.368-.449c-1.507.089-9.226.293-13.186-4.447a1.025,1.025,0,1,0-1.574,1.315,14.654,14.654,0,0,0,8.514,4.7,25.1,25.1,0,0,0,6.332.483l1.2.989A1.023,1.023,0,0,0,28,25.476a2.263,2.263,0,0,1,1.01-.135.967.967,0,0,1,.727.963v.748a1,1,0,0,1-.686.994.877.877,0,0,1-.268.023A2,2,0,0,0,26.709,29.7a8.557,8.557,0,0,1-16.832,0Zm4.164,17.989-3.084-5.006,1.58-1.58,4.246,4.246Zm4.252-3.73-3.771-3.771V38.061a10.6,10.6,0,0,0,7.543,0v2.121Zm4.252,3.73L19.8,45.345,24.049,41.1l1.58,1.58Z" fill="#8f52f5"/>
        </g>
      </g>
      <g id="Grupo_1064213" data-name="Grupo 1064213">
        <g id="Grupo_1064212" data-name="Grupo 1064212">
          <path id="Trazado_777672" data-name="Trazado 777672" d="M14.456,53.972H11.578a1.025,1.025,0,0,0,0,2.051h2.878a1.025,1.025,0,0,0,0-2.051Z" fill="#8f52f5"/>
        </g>
      </g>
    </g>
  </g>
</svg>
