<svg xmlns="http://www.w3.org/2000/svg" xmlns:xlink="http://www.w3.org/1999/xlink" width="128" height="128" viewBox="0 0 128 128">
  <defs>
    <clipPath id="clip-path">
      <rect id="Rectángulo_373545" data-name="Rectángulo 373545" width="128" height="128" transform="translate(410 6276)" fill="#e01650"/>
    </clipPath>
  </defs>
  <g id="Enmascarar_grupo_49" data-name="Enmascarar grupo 49" transform="translate(-410 -6276)" clip-path="url(#clip-path)">
    <g id="conciencia-de-si-mismo" transform="translate(410 6276)">
      <g id="Grupo_1064818" data-name="Grupo 1064818">
        <path id="Trazado_778370" data-name="Trazado 778370" d="M44.12,9.221A36.525,36.525,0,0,0,7.7,48.56l.754,9.759A2.452,2.452,0,0,1,8.1,59.8L6.086,63.036A27.822,27.822,0,0,0,1.894,77.723,1.358,1.358,0,0,0,3.251,79.08H9.427l2.8,16.285a5.813,5.813,0,0,0,5.707,4.828l16.465.064a4.758,4.758,0,0,1,4.74,4.759V115a3.758,3.758,0,0,0,3.78,3.758l11.512-.042,2.321-1.591H72.84l.771,1.521h.064L73.658,84.48l7.609-25.293A38.791,38.791,0,0,0,44.12,9.221Z" fill="#fd8087"/>
        <path id="Trazado_778371" data-name="Trazado 778371" d="M49.234,115.626v-11.55A10.726,10.726,0,0,0,38.55,93.35l-10.52-.041a5.813,5.813,0,0,1-5.707-4.828L20.177,76.009A4.592,4.592,0,0,0,15.652,72.2H13.346a1.358,1.358,0,0,1-1.358-1.358,27.823,27.823,0,0,1,4.192-14.687l2.009-3.233a2.453,2.453,0,0,0,.362-1.484L17.8,41.675A36.42,36.42,0,0,1,28.9,12.528,36.539,36.539,0,0,0,7.7,48.56l.754,9.759A2.452,2.452,0,0,1,8.1,59.8L6.086,63.036A27.822,27.822,0,0,0,1.894,77.723,1.358,1.358,0,0,0,3.251,79.08H9.427l2.8,16.285a5.813,5.813,0,0,0,5.707,4.828l16.465.064a4.758,4.758,0,0,1,4.74,4.758V115a3.758,3.758,0,0,0,3.78,3.758l7.927-.048a3.75,3.75,0,0,1-1.613-3.083Z" fill="#fe646f"/>
        <path id="Trazado_778372" data-name="Trazado 778372" d="M122,62.992l-2.009-3.233a2.455,2.455,0,0,1-.363-1.484l.754-9.759A36.525,36.525,0,0,0,83.962,9.177,38.791,38.791,0,0,0,46.815,59.143l7.609,25.293.009,34.251h.027l2.627-2.663H72.241l1.4,2.679,11.52.01a3.758,3.758,0,0,0,3.78-3.758v-9.983a4.758,4.758,0,0,1,4.74-4.758l16.465-.064a5.813,5.813,0,0,0,5.707-4.828l2.8-16.285h6.176a1.358,1.358,0,0,0,1.358-1.358A27.824,27.824,0,0,0,122,62.992Z" fill="#99e6fc"/>
        <path id="Trazado_778373" data-name="Trazado 778373" d="M73.641,84.6,81.25,59.306A39.024,39.024,0,0,0,64.005,14.674,38.992,38.992,0,0,0,46.824,59.306L54.433,84.6v34.115l9.6.034,9.6-.045V84.6Z" fill="#fef48b"/>
        <path id="Trazado_778374" data-name="Trazado 778374" d="M28.43,75.8l11.61-9.729a1.237,1.237,0,0,1,2.031.948v5.04H59.6a1.273,1.273,0,0,1,1.273,1.273v6.831A1.273,1.273,0,0,1,59.6,81.432H42.071v5.04a1.237,1.237,0,0,1-2.031.948L28.43,77.692a1.236,1.236,0,0,1,0-1.9Z" fill="#62dbfb"/>
        <path id="Trazado_778375" data-name="Trazado 778375" d="M105.971,40.622l-11.61-9.729a1.237,1.237,0,0,0-2.031.948v5.04H74.806a1.273,1.273,0,0,0-1.273,1.273v6.831a1.273,1.273,0,0,0,1.273,1.273H92.331V51.3a1.237,1.237,0,0,0,2.031.948l11.61-9.729A1.237,1.237,0,0,0,105.971,40.622Z" fill="#fe646f"/>
      </g>
      <g id="Grupo_1064819" data-name="Grupo 1064819">
        <path id="Trazado_778376" data-name="Trazado 778376" d="M76.873,72.052a1.878,1.878,0,0,0-2.339,1.257l-3.157,10.5a1.877,1.877,0,0,0-.08.541v33.869a1.878,1.878,0,0,0,3.756,0V84.623L78.13,74.391a1.878,1.878,0,0,0-1.257-2.339Z"/>
        <path id="Trazado_778377" data-name="Trazado 778377" d="M82.238,51.913A1.878,1.878,0,0,0,80.1,53.489a37.593,37.593,0,0,1-1.166,5.188l-2.1,6.968a1.878,1.878,0,1,0,3.6,1.082l2.1-6.968a41.36,41.36,0,0,0,1.283-5.709A1.878,1.878,0,0,0,82.238,51.913Z"/>
        <path id="Trazado_778378" data-name="Trazado 778378" d="M34.18,98.144l-16.357-.064A3.892,3.892,0,0,1,14,94.843L11.213,78.664A1.878,1.878,0,0,0,9.362,77.1h-5.6a25.737,25.737,0,0,1,3.877-13.07l2-3.212a4.287,4.287,0,0,0,.637-2.61l-.749-9.7a34.409,34.409,0,0,1,34.307-37.06c.436,0,.89.008,1.348.025a1.878,1.878,0,1,0,.133-3.753c-.5-.018-1-.027-1.482-.027a38.165,38.165,0,0,0-38.051,41.1l.749,9.7a.557.557,0,0,1-.083.339l-2,3.212A29.491,29.491,0,0,0,0,77.633,3.23,3.23,0,0,0,3.227,80.86H7.78l2.515,14.62a7.643,7.643,0,0,0,7.513,6.356l16.357.064A2.855,2.855,0,0,1,37,104.749v13.673a1.878,1.878,0,0,0,3.756,0V104.749a6.618,6.618,0,0,0-6.58-6.605Z"/>
        <path id="Trazado_778379" data-name="Trazado 778379" d="M123.552,62.051l-2-3.212a.558.558,0,0,1-.083-.339l.749-9.7A38.165,38.165,0,0,0,84.171,7.7,40.229,40.229,0,0,0,63.96,13.068a39.746,39.746,0,0,0-9.722-4.022,1.878,1.878,0,1,0-.96,3.631A35.872,35.872,0,0,1,60.391,15.4,40.759,40.759,0,0,0,51.736,24a40.055,40.055,0,0,0-6.268,35.756l1.6,5.326A1.878,1.878,0,1,0,50.667,64l-1.6-5.326a36.333,36.333,0,0,1,5.686-32.433,36.849,36.849,0,0,1,9.219-8.759,37.035,37.035,0,0,1,11.891,12.8,1.878,1.878,0,1,0,3.279-1.832A40.789,40.789,0,0,0,67.547,15.4a36.576,36.576,0,0,1,16.624-3.944,34.409,34.409,0,0,1,34.307,37.06l-.749,9.7a4.286,4.286,0,0,0,.638,2.611l2,3.212a25.737,25.737,0,0,1,3.877,13.07h-5.6a1.878,1.878,0,0,0-1.851,1.56L114,94.843a3.892,3.892,0,0,1-3.826,3.237l-16.357.064a6.618,6.618,0,0,0-6.579,6.605v13.673a1.878,1.878,0,1,0,3.756,0V104.749a2.855,2.855,0,0,1,2.838-2.849l16.357-.064a7.643,7.643,0,0,0,7.513-6.356L120.22,80.86h4.553A3.23,3.23,0,0,0,128,77.633a29.488,29.488,0,0,0-4.448-15.582Z"/>
        <path id="Trazado_778380" data-name="Trazado 778380" d="M54.826,87.066a1.878,1.878,0,0,0-1.878,1.878v29.271a1.878,1.878,0,0,0,3.756,0V88.944A1.878,1.878,0,0,0,54.826,87.066Z"/>
        <path id="Trazado_778381" data-name="Trazado 778381" d="M92.25,54.12a3.132,3.132,0,0,0,1.325.3,3.093,3.093,0,0,0,1.992-.732l11.61-9.729a3.114,3.114,0,0,0,0-4.774l-11.61-9.729a3.114,3.114,0,0,0-5.115,2.387V35H74.806a3.154,3.154,0,0,0-3.151,3.151v6.831a3.154,3.154,0,0,0,3.151,3.151H90.453V51.3a3.085,3.085,0,0,0,1.8,2.823ZM75.411,44.379V38.759h16.92a1.878,1.878,0,0,0,1.878-1.878V33.215l9.969,8.354-9.969,8.354V46.257a1.878,1.878,0,0,0-1.878-1.878Z"/>
        <path id="Trazado_778382" data-name="Trazado 778382" d="M59.6,70.178H43.948V67.015a3.115,3.115,0,0,0-5.115-2.387l-11.61,9.729a3.114,3.114,0,0,0,0,4.774l11.61,9.729a3.093,3.093,0,0,0,1.992.732,3.13,3.13,0,0,0,1.325-.3,3.086,3.086,0,0,0,1.8-2.822V83.31H59.6a3.154,3.154,0,0,0,3.151-3.151V73.328A3.154,3.154,0,0,0,59.6,70.178Zm-.6,9.377H42.07a1.878,1.878,0,0,0-1.878,1.878V85.1l-9.97-8.354,9.97-8.354v3.666a1.878,1.878,0,0,0,1.878,1.878H58.99Z"/>
      </g>
    </g>
  </g>
</svg>
