<svg xmlns="http://www.w3.org/2000/svg" xmlns:xlink="http://www.w3.org/1999/xlink" width="400" height="617.024" viewBox="0 0 400 617.024">
  <defs>
    <linearGradient id="linear-gradient" x1="1" y1="0.5" x2="0" y2="0.5" gradientUnits="objectBoundingBox">
      <stop offset="0" stop-color="#ffb206"/>
      <stop offset="1" stop-color="#ffb206" stop-opacity="0"/>
    </linearGradient>
    <linearGradient id="linear-gradient-2" y1="0.5" x2="1" y2="0.5" gradientUnits="objectBoundingBox">
      <stop offset="0" stop-color="#e01650"/>
      <stop offset="1" stop-color="#e01650" stop-opacity="0"/>
    </linearGradient>
  </defs>
  <g id="Grupo_1064268" data-name="Grupo 1064268" transform="translate(-1020 -7013.976)">
    <path id="Rectángulo_373558" data-name="Rectángulo 373558" d="M135,0H384a0,0,0,0,1,0,0V305a0,0,0,0,1,0,0H0a0,0,0,0,1,0,0V135A135,135,0,0,1,135,0Z" transform="translate(1036 7326)" fill="#8f52f5"/>
    <g id="Grupo_1064267" data-name="Grupo 1064267" transform="translate(306.247 -819.444)">
      <path id="Trazado_777822" data-name="Trazado 777822" d="M161.991,505.334c16.012-59.253,51.678-167.9,51.678-167.9l7.942-57L82.548,295.4S60.337,433.064,52.641,505.334Z" transform="translate(725.125 7945.11)" fill="#12305c"/>
      <path id="Trazado_777823" data-name="Trazado 777823" d="M250.829,508.26c1.45-54.684,4.559-161.348,7.019-199.318,1.139-17.582-14.569-35.081-14.569-35.081L139.595,289.419s6.505,141.95,10.283,218.842Z" transform="translate(763.874 7942.184)" fill="#12305c"/>
      <path id="Trazado_777824" data-name="Trazado 777824" d="M186.3,92.294C52.682,92.628,62.148,149.509,74.517,208.479c15.269,72.79.694,151.039,3.3,224.854,29.868,7.218,201.941-4.847,208.394-3.934-3.808-120.77,9.068-127.173,15.1-201.3,1.229-67.495,9.229-136.114-115.011-135.8" transform="translate(731.918 7861.273)" fill="#12305c"/>
      <path id="Trazado_777825" data-name="Trazado 777825" d="M219.423,361.9a26.423,26.423,0,0,1-15.121-4.616c-7.533-5.152-11.811-11.6-12.716-19.176-1.928-16.119,12.239-32.073,12.382-32.232a.252.252,0,1,1,.374.338c-.142.158-14.158,15.945-12.256,31.836.889,7.42,5.094,13.752,12.5,18.818,11.893,8.135,24.59,2.848,24.717,2.793a.252.252,0,0,1,.2.464,28.4,28.4,0,0,1-10.079,1.775" transform="translate(786.961 7956.412)" fill="#042041"/>
      <path id="Trazado_777826" data-name="Trazado 777826" d="M151.358,386.661a.251.251,0,0,1-.246-.2l-11.377-50.955a.253.253,0,0,1,.493-.11L151.6,386.353a.25.25,0,0,1-.191.3.186.186,0,0,1-.055.007" transform="translate(763.933 7969.519)" fill="#042041"/>
      <path id="Trazado_777827" data-name="Trazado 777827" d="M288.338,165.53s28.026,88.8,18.884,115.112c-9.447,27.192-147.935,44.852-147.935,44.852l4.169-51.8,86.619-29.008-32.324-54.25Z" transform="translate(772.648 7893.909)" fill="#f5a292"/>
      <path id="Trazado_777828" data-name="Trazado 777828" d="M235.095,107.592s40.668,37.619,50.5,98.223c-40.756,39.341-73.932,19.669-73.932,19.669S180.248,167.9,181.245,137.63s42.068-39.346,53.849-30.039" transform="translate(782.423 7866.535)" fill="#12305c"/>
      <path id="Trazado_777829" data-name="Trazado 777829" d="M274.146,162.008c-5.1,8.324-73.546,32.671-76.141,24.67-.875,8.11.6,15.689,7.913,21.949,3.373,11.144,78.1-11.445,74.73-22.589q5.193-11.5-6.5-24.029" transform="translate(789.802 7892.34)" fill="#1e498a"/>
      <path id="Trazado_777830" data-name="Trazado 777830" d="M203.239,189.335a.662.662,0,0,0,.424-1.065c-6.278-7.908-12.159-18.956-16.132-30.312a.66.66,0,1,0-1.246.435c4.019,11.49,9.975,22.679,16.343,30.7a.662.662,0,0,0,.612.244" transform="translate(784.663 7890.337)" fill="#231f20"/>
      <path id="Trazado_777831" data-name="Trazado 777831" d="M72.794,489.763a.253.253,0,0,1-.249-.3c11.762-63.347,24.048-125.947,36.518-186.059a.252.252,0,1,1,.494.1c-12.47,60.108-24.756,122.7-36.516,186.049a.252.252,0,0,1-.247.207" transform="translate(733.993 7955.26)"/>
      <path id="Trazado_777832" data-name="Trazado 777832" d="M164.576,488.181a.254.254,0,0,1-.253-.252c-.267-62.678.509-126.635,1.3-180.933a.252.252,0,0,1,.252-.249h0a.252.252,0,0,1,.249.254c-.8,54.295-1.571,118.249-1.3,180.924a.254.254,0,0,1-.252.253Z" transform="translate(774.869 7956.839)"/>
      <path id="Trazado_777833" data-name="Trazado 777833" d="M283.98,280.886s9.382,27.126,3.325,36.435-203.816-1-212.518-8.442c-5.535-4.733-1.645-32.259,6.758-31.8s186.2,2.471,202.435,3.809" transform="translate(733.844 7943.615)" fill="#042041"/>
      <path id="Trazado_777834" data-name="Trazado 777834" d="M245.024,321.356c-23.752,0-53.312-1.073-77.8-2.382-43.03-2.3-88.328-6.234-92.529-9.824-3.868-3.308-3.227-17.121.094-25.413,1.848-4.613,4.207-6.981,6.842-6.833,2.981.162,27.386.522,58.283.977,56.418.831,133.686,1.969,144.159,2.832a.252.252,0,0,1,.217.169c.384,1.113,9.352,27.351,3.3,36.655-.617.948-2.9,1.7-6.988,2.286-7.591,1.1-20.4,1.534-35.578,1.534M81.42,277.4c-2.29,0-4.471,2.3-6.16,6.523C72,292.07,71.3,305.58,75.026,308.765c3.5,3,41.429,6.987,92.226,9.7,40.112,2.147,93.847,3.657,113.278.854,4.831-.7,6.277-1.506,6.638-2.061,5.686-8.737-2.552-33.836-3.3-36.06-11.075-.86-87.835-1.991-143.96-2.818-30.9-.455-55.312-.815-58.3-.977-.062,0-.124-.006-.186-.006" transform="translate(733.77 7943.537)" fill="#042041"/>
      <path id="Trazado_777835" data-name="Trazado 777835" d="M124.13,399.64H124.1a.546.546,0,0,1-.4-.283c-3.351-5.475,29.058-133.088,38.253-158.511,9.736-26.92,2.4-129.036,2.325-130.064a.252.252,0,0,1,.233-.27.247.247,0,0,1,.269.234c.077,1.029,7.42,103.251-2.352,130.272-4.6,12.724-14.816,49.964-24.289,88.549-11.556,47.067-15.342,68.857-13.969,69.574a.252.252,0,0,1-.035.5" transform="translate(756.681 7869.39)"/>
      <path id="Trazado_777836" data-name="Trazado 777836" d="M163.339,26.857c25.084,3.053,37.627,77.36-5.016,80.413S123.473,22,163.339,26.857" transform="translate(759.466 7832.027)" fill="#f5a292"/>
      <path id="Trazado_777837" data-name="Trazado 777837" d="M138.652,55.045c-1.287-10.089-14.977-16.591-15.458-.607,1.529,21.317,16.656,8.317,15.458.607" transform="translate(756.564 7840.104)" fill="#f5a292"/>
      <path id="Trazado_777838" data-name="Trazado 777838" d="M176.668,74.059c-.056-.742-45.964-1.135-41.446.409.507,10.864-.869,28.94.734,35.444,2.923,11.87,10.3,18.77,21.1,18.77,13.592,0,18.287-12.185,19.6-22.056,1.047-7.843.817-21.687.007-32.567" transform="translate(761.786 7852.857)" fill="#f5a292"/>
      <path id="Trazado_777839" data-name="Trazado 777839" d="M150.352,64.953c-2.264,0-3.575-.4-4.218-1.289-.993-1.369-.172-3.692.963-6.907a49.866,49.866,0,0,0,2.7-10.062.252.252,0,0,1,.5.069,50.322,50.322,0,0,1-2.722,10.16c-1.084,3.071-1.868,5.29-1.029,6.443.575.792,1.957,1.13,4.322,1.074h.006a.252.252,0,0,1,.007.5c-.181,0-.356.007-.526.007" transform="translate(766.588 7840.856)"/>
      <path id="Trazado_777840" data-name="Trazado 777840" d="M153.544,46.358a.509.509,0,0,1-.458-.28.515.515,0,0,1,.227-.691l.12-.059c3.53-1.774,6.58-3.308,13.433-1.22a.514.514,0,0,1,.341.64.509.509,0,0,1-.64.34c-6.462-1.966-9.2-.587-12.672,1.158l-.12.058a.507.507,0,0,1-.23.055" transform="translate(769.861 7839.352)"/>
      <path id="Trazado_777841" data-name="Trazado 777841" d="M149.687,46.481a.5.5,0,0,1-.241-.061l-.117-.062c-3.426-1.83-6.134-3.274-12.642-1.466a.513.513,0,0,1-.273-.989c6.9-1.92,9.913-.312,13.4,1.55l.117.062a.513.513,0,0,1-.241.966" transform="translate(762.288 7839.323)"/>
      <path id="Trazado_777842" data-name="Trazado 777842" d="M127.4,58.919a.256.256,0,0,1-.217-.123,10.075,10.075,0,0,1-.347-9.472.252.252,0,1,1,.451.227,9.554,9.554,0,0,0,.33,8.986.252.252,0,0,1-.088.346.248.248,0,0,1-.129.036" transform="translate(757.736 7842.063)"/>
      <path id="Trazado_777843" data-name="Trazado 777843" d="M165.073,55.045c1.287-10.089,14.977-16.591,15.458-.607-1.529,21.317-16.656,8.317-15.458.607" transform="translate(775.197 7840.104)" fill="#f5a292"/>
      <path id="Trazado_777844" data-name="Trazado 777844" d="M170.585,58.919a.244.244,0,0,1-.129-.036.252.252,0,0,1-.088-.346,9.554,9.554,0,0,0,.33-8.986.252.252,0,1,1,.451-.227A10.075,10.075,0,0,1,170.8,58.8a.256.256,0,0,1-.217.123" transform="translate(777.571 7842.063)"/>
      <path id="Trazado_777845" data-name="Trazado 777845" d="M152.531,83.337a25.383,25.383,0,0,1-8.471-1.709.253.253,0,0,1,.171-.476c4.706,1.69,11.646,3.35,17.572-1.717a.252.252,0,0,1,.327.385,14.31,14.31,0,0,1-9.6,3.517" transform="translate(765.789 7855.517)"/>
      <path id="Trazado_777846" data-name="Trazado 777846" d="M130.556,62.84c11.17,3.883,2.086-48.77,40.479-28.43,3.55,4.293,10.657,35.562,16.668,29.109,2.936-58.108-62.3-56.144-57.147-.679" transform="translate(759.716 7829.32)" fill="#2b1708"/>
      <path id="Trazado_777847" data-name="Trazado 777847" d="M142.529,50.808a1.962,1.962,0,1,1-1.962-1.962,1.962,1.962,0,0,1,1.962,1.962" transform="translate(763.433 7841.912)"/>
      <path id="Trazado_777848" data-name="Trazado 777848" d="M161.076,50.808a1.962,1.962,0,1,1-1.962-1.962,1.962,1.962,0,0,1,1.962,1.962" transform="translate(771.698 7841.912)"/>
      <path id="Trazado_777849" data-name="Trazado 777849" d="M185.811,33.124c-2.958-2.278-54.2-1.19-54.267,2.158,0,0,10.842,10.893,34.042,9.311,12.664-.862,20.226-11.47,20.226-11.47" transform="translate(760.286 7834.37)" fill="#12305c"/>
      <path id="Trazado_777850" data-name="Trazado 777850" d="M131.232,37.282l56-2.219.918-7.47L129,29.49a16.1,16.1,0,0,0,2.235,7.792" transform="translate(759.151 7832.441)" fill="#1e498a"/>
      <path id="Trazado_777851" data-name="Trazado 777851" d="M129.28,38.694c-6.046.029-8.1-5.191-.016-8.4,19.169-7.621,13.184-21.108,32.8-21.106,9.573,0,14.482,12.457,30.524,19.235,5.7,2.408,4.016,4.958.83,7.662-7.41,2.158-57.808,2.583-64.138,2.614" transform="translate(756.9 7824.237)" fill="#12305c"/>
      <path id="Trazado_777852" data-name="Trazado 777852" d="M161.881,69.972a.254.254,0,0,1-.172-.068c-1.45-1.346-14.709-1.555-19.7-1.518h0a.253.253,0,0,1,0-.506c1.858-.009,18.186-.072,20.046,1.654a.255.255,0,0,1,.013.357.251.251,0,0,1-.185.081" transform="translate(764.836 7850.393)"/>
      <path id="Trazado_777853" data-name="Trazado 777853" d="M131.824,109.318s13.412,16.707,20.415,16.667c3.058-.017,8.143-9.764,8.143-9.764s3.592,9.074,4.973,9.765,16.765-7.792,17.96-16.529c.674-4.93-26.344-1.519-26.344-1.519Z" transform="translate(760.411 7867.732)" fill="#042041"/>
      <path id="Trazado_777854" data-name="Trazado 777854" d="M137.817,89.69s3.987,17.245,15.14,20.925,9.573,5.787,9.573,5.787l-8.614,14.831s-16.336-5.2-21.661-17.625c-4.833-11.279-5.7-26.4,5.563-23.918" transform="translate(759.093 7859.992)" fill="#1e498a"/>
      <path id="Trazado_777855" data-name="Trazado 777855" d="M169.557,90.923s.431,12.574-7.838,18.062c-8.016,5.318-7.14,4.064-9.233,5.654-3.936,2.991,6.229,17.131,6.229,17.131s12.909-5.477,16.694-17.444c3.435-10.861,3.1-26.138-5.852-23.4" transform="translate(769.214 7860.519)" fill="#1e498a"/>
      <path id="Trazado_777856" data-name="Trazado 777856" d="M102.929,103.956c-13.784,3.4-45.888,23.108-47.279,31.454s12.61,52.151,30.884,52.027,37.752-3.425,41.345-12.5,6.508-78.729-24.95-70.976" transform="translate(726.423 7866.203)" fill="#12305c"/>
      <path id="Trazado_777857" data-name="Trazado 777857" d="M57.567,190.418s18.693,9.394,31.6,4.385,13.149-31.726,13.149-38.105-4.207-18.727-16.305-20.969-50.048,20.1-28.443,54.689" transform="translate(724.412 7880.56)" fill="#042041"/>
      <path id="Trazado_777858" data-name="Trazado 777858" d="M57.281,213.25c-14.516-17.261-3.432-20.3-6.917-24.947-2.22-2.962-4.327-4.759-5.18-6.018-7.364-10.862-5.55-29.887-5.382-36.674-2.744-10.719-8.789-29.047-9.256-35.658-.165-2.323,1.093-5.858,3.179-6.9A5.214,5.214,0,0,1,40,104.526l7.274,22.1c.419-.218-1.638-29.189-1.372-33.948.13-2.326,1.823-5.674,4.022-6.44a5.216,5.216,0,0,1,6.041,2.247l6.371,32.839.08.016c-.022-13.519-.108-36.243.971-42.073.441-2.378,2.624-5.6,4.99-6.1a5.415,5.415,0,0,1,5.923,3.11l3.221,44.132c.549.395,7.02-35.879,7.02-35.879a5.414,5.414,0,0,1,6.163-2.6c2.316.7,4.221,4.091,4.461,6.5.668,6.716-2.007,35.113-2.984,46.994a7.11,7.11,0,0,0,2.02,4.121c6.583-8.685,14.841-18.724,18.078-22.215,1.584-1.707,5.024-3.2,7.206-2.391a5.215,5.215,0,0,1,3.217,5.583l-18.484,39.96,0,0a102.733,102.733,0,0,1-12.324,29.462c-.022,1.119,7.471,6.054-3.818,21.115" transform="translate(715.272 7852.703)" fill="#f5a292"/>
      <path id="Trazado_777859" data-name="Trazado 777859" d="M58.334,161.466a.256.256,0,0,1-.247-.189c-.033-.126-3.287-12.6,2.407-22.719,4.853-8.629,15.519-13.044,15.626-13.087a.256.256,0,0,1,.194.474c-.106.043-10.608,4.395-15.371,12.865-5.595,9.943-2.393,22.212-2.361,22.333a.256.256,0,0,1-.181.315.263.263,0,0,1-.066.009" transform="translate(727.125 7876.049)" fill="#010001"/>
      <path id="Trazado_777860" data-name="Trazado 777860" d="M55.941,125.266a82.866,82.866,0,0,1-13.655-1.142.257.257,0,0,1,.1-.5A82.009,82.009,0,0,0,58.793,124.7c8.687-.354,21.774-5.34,21.906-5.389a.256.256,0,1,1,.184.479c-.132.051-13.3,5.065-22.067,5.424-.974.039-1.936.056-2.874.056" transform="translate(720.417 7873.304)" fill="#010001"/>
      <path id="Trazado_777861" data-name="Trazado 777861" d="M89.773,150.186s10.339,16.847,4.941,28.694c-8,17.553-33.177,18.63-42.079,8.844-12.687-13.947-10.328-28.4-10.328-37.2" transform="translate(720.442 7887.071)" fill="#f5a292"/>
      <path id="Trazado_777862" data-name="Trazado 777862" d="M63.19,159.03c-12.733,0-18.98-5.929-19.04-5.989a.256.256,0,1,1,.357-.367c.061.058,6.173,5.843,18.683,5.843a63.188,63.188,0,0,0,22.559-4.262.256.256,0,1,1,.2.47A63.719,63.719,0,0,1,63.19,159.03" transform="translate(721.306 7888.147)" fill="#010001"/>
      <path id="Trazado_777863" data-name="Trazado 777863" d="M125.1,152.762c.014-.348.022-.525.025-.607a26.934,26.934,0,0,1-6.891-2.917,21.6,21.6,0,0,1-5.284-4.354l-.023.02a19.307,19.307,0,0,1-2.55,2.1,24.46,24.46,0,0,1-4.147,2.293c-.75.33-1.516.64-2.309.9a26.408,26.408,0,0,1-3.656.934c-.009.205-.042,1-.147,3.611-.022.523-.046,1.12-.074,1.8q-.022.51-.043,1.081c-.048,1.148-.1,2.492-.166,4.069a16.416,16.416,0,0,0,.776,5.756,16.616,16.616,0,0,0,.642,1.673,19.19,19.19,0,0,0,2.653,4.285,24.229,24.229,0,0,0,3.133,3.188,26.874,26.874,0,0,0,3.55,2.546c.441.263.779.444.977.546a27.531,27.531,0,0,0,3.707-2.017,26.6,26.6,0,0,0,2.193-1.583c.376-.3.755-.626,1.132-.969a17.562,17.562,0,0,0,6.1-12.408c.257-6.306.364-8.908.406-9.955" transform="translate(746.15 7884.708)" fill="#ffae00"/>
      <rect id="Rectángulo_373559" data-name="Rectángulo 373559" width="6.446" height="35.155" transform="translate(839.05 8077.009) rotate(-86.582)" fill="#1e498a"/>
      <path id="Trazado_777864" data-name="Trazado 777864" d="M216.456,187.065h0c0-.331,0-.477,0-.51,0,.062,0,.51,0,.51" transform="translate(798.124 7903.278)" fill="#d7ffff"/>
      <path id="Trazado_777865" data-name="Trazado 777865" d="M216.456,187.065h0c0-.331,0-.477,0-.51,0,.062,0,.51,0,.51" transform="translate(798.124 7903.278)" fill="#d7ffff"/>
      <path id="Trazado_777866" data-name="Trazado 777866" d="M62.543,186.988s0-.448,0-.51c0,.033,0,.179,0,.51" transform="translate(729.537 7903.245)" fill="#d7ffff"/>
      <path id="Trazado_777867" data-name="Trazado 777867" d="M62.543,186.988s0-.448,0-.51c0,.033,0,.179,0,.51" transform="translate(729.537 7903.245)" fill="#d7ffff"/>
      <path id="Trazado_777868" data-name="Trazado 777868" d="M173.48,149.669c25.843,24.759,67.148,45.14,111.391,53.941,0,2.622.027,17.16.136,84.154.146,89.37-95.864,132.613-110.77,139.25-14.4-5.954-111.32-49.991-111.466-139.362-.108-66.993-.132-81.527-.136-84.151,44.214-8.758,85.081-29.1,110.845-53.831" transform="translate(729.578 7886.841)" fill="#0062a8"/>
      <path id="Trazado_777869" data-name="Trazado 777869" d="M169.733,161.019c.074-.059.15-.116.221-.176,25.32,20.779,60.44,37.179,99.09,46.205l.123,75.72c.056,34.649-15.564,65.922-46.429,92.957A221.689,221.689,0,0,1,170.359,409.4c-.463-.211-.971-.45-1.472-.682a222.715,222.715,0,0,1-51.018-33.043c-30.951-27.065-46.673-58.355-46.73-93l-.123-75.722c38.51-8.96,73.482-25.259,98.716-45.929" transform="translate(733.313 7891.821)" fill="#fff"/>
      <path id="Trazado_777870" data-name="Trazado 777870" d="M108.039,237.393l-.265,67.074c12.859-.577,71.064.338,91.612.367l.265-67.074Zm39.025,30.144a6.663,6.663,0,1,1,9.368,6.076l-.045,11.217a2.729,2.729,0,1,1-5.457-.022l.045-11.192a6.614,6.614,0,0,1-3.91-6.079" transform="translate(749.693 7925.933)" fill="#ffa700"/>
      <path id="Trazado_777871" data-name="Trazado 777871" d="M113.48,251.555l9.274.038.017-4.518a28.511,28.511,0,0,1,57.021.228l-.017,4.516,9.274.038.017-4.516a37.785,37.785,0,0,0-75.569-.3Z" transform="translate(752.236 7913.538)" fill="#ffa700"/>
    </g>
    <rect id="Rectángulo_373560" data-name="Rectángulo 373560" width="105" height="19.342" transform="translate(1315 7196.707)" fill="url(#linear-gradient)"/>
    <rect id="Rectángulo_373561" data-name="Rectángulo 373561" width="125.429" height="13.667" transform="translate(1020 7596.799)" fill="url(#linear-gradient-2)"/>
  </g>
</svg>
