<svg id="Grupo_1064187" data-name="Grupo 1064187" xmlns="http://www.w3.org/2000/svg" xmlns:xlink="http://www.w3.org/1999/xlink" width="282" height="249.662" viewBox="0 0 282 249.662">
  <defs>
    <clipPath id="clip-path">
      <rect id="Rectángulo_373490" data-name="Rectángulo 373490" width="282" height="249.662" fill="none"/>
    </clipPath>
    <clipPath id="clip-path-3">
      <rect id="Rectángulo_373479" data-name="Rectángulo 373479" width="112.529" height="7.899" fill="none"/>
    </clipPath>
    <clipPath id="clip-path-4">
      <path id="Trazado_777445" data-name="Trazado 777445" d="M161.655,252.88v14.065a20.11,20.11,0,0,1-4.5,12.624l-1.854,2.293h55.024l-1.847-2.293a20.079,20.079,0,0,1-4.494-12.624V252.88Z" transform="translate(-155.3 -252.88)" fill="none"/>
    </clipPath>
    <clipPath id="clip-path-5">
      <rect id="Rectángulo_373484" data-name="Rectángulo 373484" width="47.522" height="23.92" fill="none"/>
    </clipPath>
  </defs>
  <g id="Grupo_1064186" data-name="Grupo 1064186" clip-path="url(#clip-path)">
    <path id="Trazado_777401" data-name="Trazado 777401" d="M238.25,298.906H99.19l10.979-10.6h117.1Z" transform="translate(-27.64 -80.341)" fill="#fff"/>
    <g id="Grupo_1064178" data-name="Grupo 1064178">
      <g id="Grupo_1064177" data-name="Grupo 1064177" clip-path="url(#clip-path)">
        <path id="Trazado_777402" data-name="Trazado 777402" d="M238.11,299.128H99.051a.36.36,0,0,1-.25-.62l10.979-10.6a.358.358,0,0,1,.25-.1h117.1a.359.359,0,0,1,.251.1l10.979,10.6a.361.361,0,0,1-.251.62m-138.167-.721H237.217l-10.231-9.875H110.176Z" transform="translate(-27.501 -80.202)" fill="#263238"/>
        <path id="Trazado_777403" data-name="Trazado 777403" d="M227.079,292.452c0,2.164-25.182,3.946-56.264,3.946s-56.264-1.767-56.264-3.946,25.182-3.953,56.264-3.953,56.264,1.767,56.264,3.953" transform="translate(-31.921 -80.394)" fill="#ffb206"/>
        <g id="Grupo_1064176" data-name="Grupo 1064176" transform="translate(82.629 208.106)" opacity="0.5" style="isolation: isolate">
          <g id="Grupo_1064175" data-name="Grupo 1064175">
            <g id="Grupo_1064174" data-name="Grupo 1064174" clip-path="url(#clip-path-3)">
              <path id="Trazado_777404" data-name="Trazado 777404" d="M227.079,292.452c0,2.164-25.182,3.946-56.264,3.946s-56.264-1.767-56.264-3.946,25.182-3.953,56.264-3.953,56.264,1.767,56.264,3.953" transform="translate(-114.55 -288.499)" fill="#fff"/>
            </g>
          </g>
        </g>
        <rect id="Rectángulo_373480" data-name="Rectángulo 373480" width="139.06" height="9.817" transform="translate(71.55 218.566)" fill="#263238"/>
        <path id="Trazado_777405" data-name="Trazado 777405" d="M238.11,313.039H99.051a.361.361,0,0,1-.361-.361v-9.817a.36.36,0,0,1,.361-.361H238.11a.36.36,0,0,1,.361.361v9.817a.361.361,0,0,1-.361.361m-138.7-.721H237.75v-9.1H99.411Z" transform="translate(-27.501 -84.295)" fill="#263238"/>
        <path id="Trazado_777406" data-name="Trazado 777406" d="M244.288,327.2H85.55l9.839-10.589h139.06Z" transform="translate(-23.84 -88.227)" fill="#fff"/>
        <path id="Trazado_777407" data-name="Trazado 777407" d="M244.148,327.421H85.411a.361.361,0,0,1-.264-.607l9.838-10.589a.364.364,0,0,1,.265-.115H234.309a.364.364,0,0,1,.265.115l9.839,10.589a.361.361,0,0,1-.264.607M86.238,326.7H243.321l-9.169-9.868H95.406Z" transform="translate(-23.7 -88.088)" fill="#263238"/>
        <rect id="Rectángulo_373481" data-name="Rectángulo 373481" width="158.68" height="10.33" transform="translate(61.739 238.972)" fill="#263238"/>
        <path id="Trazado_777408" data-name="Trazado 777408" d="M244.131,341.841H85.451a.361.361,0,0,1-.361-.361v-10.33a.36.36,0,0,1,.361-.361h158.68a.36.36,0,0,1,.361.361v10.33a.36.36,0,0,1-.361.361M85.811,341.12H243.77v-9.608H85.811Z" transform="translate(-23.711 -92.178)" fill="#263238"/>
        <path id="Trazado_777409" data-name="Trazado 777409" d="M193.672,121.573h-.721V55.188h25.124V27.77h.721V55.909H193.672Z" transform="translate(-53.768 -7.738)" fill="#263238"/>
        <rect id="Rectángulo_373482" data-name="Rectángulo 373482" width="0.721" height="27.469" transform="translate(149 20.032)" fill="#263238"/>
        <path id="Trazado_777410" data-name="Trazado 777410" d="M312.085,166.267H196.05v-.721H311.363V149.1h22.47v.721H312.085Z" transform="translate(-54.632 -41.548)" fill="#263238"/>
        <path id="Trazado_777411" data-name="Trazado 777411" d="M136.5,165.043H26.141V147.471H2.69v-.721H26.862v17.572H136.5Z" transform="translate(-0.75 -40.893)" fill="#263238"/>
        <path id="Trazado_777412" data-name="Trazado 777412" d="M160.4,97.52h-.721V44.581H142.1V27.99h14.174V3.4H157V28.711H142.822V43.859H160.4Z" transform="translate(-39.598 -0.947)" fill="#263238"/>
        <path id="Trazado_777413" data-name="Trazado 777413" d="M270.162,85.728h-.721V49.646h9.636V34.34h8.3v.721H279.8V50.368h-9.636Z" transform="translate(-75.083 -9.569)" fill="#263238"/>
        <path id="Trazado_777414" data-name="Trazado 777414" d="M105.173,79.622h-.721V52.555L96.51,44.613V24.62h.721V44.314l7.942,7.941Z" transform="translate(-26.894 -6.861)" fill="#263238"/>
        <path id="Trazado_777415" data-name="Trazado 777415" d="M320.015,115.215h-20.2v-.721h19.483V101.452h13.042V94.079h11.7V94.8H333.057v7.372H320.015Z" transform="translate(-83.546 -26.216)" fill="#263238"/>
        <path id="Trazado_777416" data-name="Trazado 777416" d="M61.008,123.037H39.67V106.591H10.55v-.721H40.392v16.447H61.008Z" transform="translate(-2.94 -29.502)" fill="#263238"/>
        <path id="Trazado_777417" data-name="Trazado 777417" d="M83.5,284.121H55.35V283.4H82.775V266.953h9.637V252.57h.721v15.1H83.5Z" transform="translate(-15.424 -70.382)" fill="#263238"/>
        <path id="Trazado_777418" data-name="Trazado 777418" d="M301.711,278.189H282.069V265.155H276.55v6.232H253.72V255.72h.721v14.945h21.388v-6.232h6.962v13.035h18.92Z" transform="translate(-70.702 -71.259)" fill="#263238"/>
        <path id="Trazado_777419" data-name="Trazado 777419" d="M229.272,27.142a1.619,1.619,0,1,1,0-.007v.007" transform="translate(-62.989 -7.111)" fill="#263238"/>
        <path id="Trazado_777420" data-name="Trazado 777420" d="M227.516,28.973h-.009A1.976,1.976,0,1,1,229.493,27v.009a1.979,1.979,0,0,1-1.976,1.968m0-3.232a1.255,1.255,0,0,0-.006,2.51h.006A1.257,1.257,0,0,0,228.772,27V27a1.256,1.256,0,0,0-1.255-1.255M229.132,27h0Z" transform="translate(-62.849 -6.972)" fill="#263238"/>
        <path id="Trazado_777421" data-name="Trazado 777421" d="M208.132,27.142a1.619,1.619,0,1,1,0-.007v.007" transform="translate(-57.098 -7.111)" fill="#263238"/>
        <path id="Trazado_777422" data-name="Trazado 777422" d="M206.377,28.973h-.009A1.976,1.976,0,1,1,208.353,27v.009a1.976,1.976,0,0,1-1.976,1.968m0-3.232a1.255,1.255,0,0,0-.006,2.51h.006A1.255,1.255,0,0,0,207.632,27V27a1.256,1.256,0,0,0-1.255-1.255M207.993,27h0Z" transform="translate(-56.959 -6.972)" fill="#263238"/>
        <path id="Trazado_777423" data-name="Trazado 777423" d="M163.256,2.122A1.623,1.623,0,1,1,161.633.5h.007a1.617,1.617,0,0,1,1.616,1.617v.006" transform="translate(-44.589 -0.139)" fill="#263238"/>
        <path id="Trazado_777424" data-name="Trazado 777424" d="M161.494,3.967a1.984,1.984,0,1,1,1.984-1.991v.007a1.985,1.985,0,0,1-1.984,1.984M161.5.721a1.262,1.262,0,1,0,1.255,1.262V1.976A1.256,1.256,0,0,0,161.5.721" transform="translate(-44.449)" fill="#263238"/>
        <path id="Trazado_777425" data-name="Trazado 777425" d="M98.022,22.862a1.619,1.619,0,1,1,0-.007v.007" transform="translate(-26.414 -5.918)" fill="#263238"/>
        <path id="Trazado_777426" data-name="Trazado 777426" d="M96.267,24.692h-.009a1.976,1.976,0,1,1,1.985-1.976v.009a1.975,1.975,0,0,1-1.976,1.968m0-3.232a1.255,1.255,0,0,0-.006,2.51,1.192,1.192,0,0,0,.889-.364,1.246,1.246,0,0,0,.371-.886v-.006a1.256,1.256,0,0,0-1.255-1.255m1.616,1.262h0Z" transform="translate(-26.275 -5.779)" fill="#263238"/>
        <path id="Trazado_777427" data-name="Trazado 777427" d="M11.536,105.745a1.623,1.623,0,1,1-1.63-1.615H9.92a1.615,1.615,0,0,1,1.616,1.615" transform="translate(-2.31 -29.017)" fill="#263238"/>
        <path id="Trazado_777428" data-name="Trazado 777428" d="M9.774,107.6a1.973,1.973,0,1,1,.009,0Zm.007-3.246a1.262,1.262,0,1,0-.007,2.525h.006a1.262,1.262,0,0,0,1.257-1.268h0a1.256,1.256,0,0,0-1.255-1.255m1.976,1.255h0Z" transform="translate(-2.171 -28.878)" fill="#263238"/>
        <path id="Trazado_777429" data-name="Trazado 777429" d="M3.746,146.552a1.623,1.623,0,1,1-1.623-1.623,1.622,1.622,0,0,1,1.623,1.623" transform="translate(-0.139 -40.386)" fill="#263238"/>
        <path id="Trazado_777430" data-name="Trazado 777430" d="M1.984,148.4a1.984,1.984,0,1,1,1.984-1.984A1.985,1.985,0,0,1,1.984,148.4m0-3.246a1.262,1.262,0,1,0,1.262,1.262,1.264,1.264,0,0,0-1.262-1.262" transform="translate(0 -40.247)" fill="#263238"/>
        <path id="Trazado_777431" data-name="Trazado 777431" d="M56.536,294.752a1.623,1.623,0,1,1-1.623-1.623h.007a1.616,1.616,0,0,1,1.616,1.616v.007" transform="translate(-14.85 -81.684)" fill="#263238"/>
        <path id="Trazado_777432" data-name="Trazado 777432" d="M54.774,296.6a1.984,1.984,0,1,1,1.984-1.991v.007a1.986,1.986,0,0,1-1.984,1.984m.007-3.246a1.262,1.262,0,1,0,1.255,1.262v-.007a1.256,1.256,0,0,0-1.255-1.255" transform="translate(-14.711 -81.544)" fill="#263238"/>
        <path id="Trazado_777433" data-name="Trazado 777433" d="M322.376,285.3a1.623,1.623,0,1,1-1.63-1.616h.007a1.616,1.616,0,0,1,1.623,1.609v.007" transform="translate(-88.929 -79.053)" fill="#263238"/>
        <path id="Trazado_777434" data-name="Trazado 777434" d="M320.614,287.156a1.984,1.984,0,0,1-.009-3.967h.008a1.975,1.975,0,0,1,1.984,1.969l-.361.008h.361a1.983,1.983,0,0,1-1.974,1.992Zm.007-3.246h-.005a1.262,1.262,0,1,0,0,2.525h.007a1.262,1.262,0,0,0,1.256-1.268h0v-.007a1.255,1.255,0,0,0-1.256-1.248" transform="translate(-88.79 -78.914)" fill="#263238"/>
        <path id="Trazado_777435" data-name="Trazado 777435" d="M389.192,148.535a1.616,1.616,0,1,1-1.616-1.616,1.616,1.616,0,0,1,1.616,1.616" transform="translate(-107.552 -40.941)" fill="#263238"/>
        <path id="Trazado_777436" data-name="Trazado 777436" d="M387.436,150.373a1.976,1.976,0,1,1,1.976-1.976,1.979,1.979,0,0,1-1.976,1.976m0-3.232a1.255,1.255,0,1,0,1.255,1.255,1.256,1.256,0,0,0-1.255-1.255" transform="translate(-107.413 -40.802)" fill="#263238"/>
        <path id="Trazado_777437" data-name="Trazado 777437" d="M363.172,93.475a1.616,1.616,0,1,1-1.616-1.616,1.615,1.615,0,0,1,1.616,1.616" transform="translate(-100.301 -25.598)" fill="#263238"/>
        <path id="Trazado_777438" data-name="Trazado 777438" d="M361.417,95.312a1.976,1.976,0,1,1,1.976-1.976,1.978,1.978,0,0,1-1.976,1.976m0-3.232a1.255,1.255,0,1,0,1.255,1.255,1.256,1.256,0,0,0-1.255-1.255" transform="translate(-100.162 -25.458)" fill="#263238"/>
        <path id="Trazado_777439" data-name="Trazado 777439" d="M296.752,34.155a1.616,1.616,0,1,1-1.616-1.616,1.616,1.616,0,0,1,1.616,1.616" transform="translate(-81.793 -9.067)" fill="#263238"/>
        <path id="Trazado_777440" data-name="Trazado 777440" d="M295,35.993a1.976,1.976,0,1,1,1.976-1.976A1.978,1.978,0,0,1,295,35.993m0-3.232a1.255,1.255,0,1,0,1.255,1.255A1.256,1.256,0,0,0,295,32.761" transform="translate(-81.654 -8.928)" fill="#263238"/>
        <path id="Trazado_777441" data-name="Trazado 777441" d="M203.983,266.945V252.879H161.655v14.066a20.109,20.109,0,0,1-4.5,12.623l-1.854,2.294h55.024l-1.847-2.294a20.073,20.073,0,0,1-4.494-12.623" transform="translate(-43.276 -70.468)" fill="#fff"/>
      </g>
    </g>
    <g id="Grupo_1064183" data-name="Grupo 1064183" transform="translate(112.024 182.412)">
      <g id="Grupo_1064182" data-name="Grupo 1064182" clip-path="url(#clip-path-4)">
        <path id="Trazado_777442" data-name="Trazado 777442" d="M160.51,276.8h47.522a20.031,20.031,0,0,1-2.6-9.854V252.879H163.107v14.066a20.031,20.031,0,0,1-2.6,9.854" transform="translate(-156.752 -252.88)" fill="#ffb206"/>
        <g id="Grupo_1064181" data-name="Grupo 1064181" transform="translate(3.758 0)" opacity="0.3" style="isolation: isolate">
          <g id="Grupo_1064180" data-name="Grupo 1064180">
            <g id="Grupo_1064179" data-name="Grupo 1064179" clip-path="url(#clip-path-5)">
              <path id="Trazado_777443" data-name="Trazado 777443" d="M160.51,276.8h47.522a20.031,20.031,0,0,1-2.6-9.854V252.879H163.107v14.066a20.031,20.031,0,0,1-2.6,9.854" transform="translate(-160.51 -252.879)" fill="#fff"/>
            </g>
          </g>
        </g>
        <path id="Trazado_777444" data-name="Trazado 777444" d="M160.51,256.239h47.522a20.031,20.031,0,0,1-2.6-9.854V232.319H163.107v14.066a20.031,20.031,0,0,1-2.6,9.854" transform="translate(-156.752 -247.15)" fill="#263238"/>
      </g>
    </g>
    <g id="Grupo_1064185" data-name="Grupo 1064185">
      <g id="Grupo_1064184" data-name="Grupo 1064184" clip-path="url(#clip-path)">
        <path id="Trazado_777446" data-name="Trazado 777446" d="M210.184,282.084H155.161a.361.361,0,0,1-.281-.587l1.854-2.294a19.811,19.811,0,0,0,4.421-12.4V252.74a.361.361,0,0,1,.361-.361h42.328a.361.361,0,0,1,.361.361v14.065a19.774,19.774,0,0,0,4.413,12.4l1.848,2.3a.361.361,0,0,1-.281.586m-54.268-.721h53.515l-1.374-1.707a20.5,20.5,0,0,1-4.574-12.849h0V253.1H161.876v13.705a20.539,20.539,0,0,1-4.582,12.851Z" transform="translate(-43.137 -70.328)" fill="#263238"/>
        <path id="Trazado_777447" data-name="Trazado 777447" d="M81.657,85.869H239.529a6.118,6.118,0,0,1,6.117,6.117V204.652a6.117,6.117,0,0,1-6.117,6.117H81.657a6.117,6.117,0,0,1-6.117-6.117V91.986a6.118,6.118,0,0,1,6.117-6.117" transform="translate(-21.05 -23.928)" fill="#263238"/>
        <path id="Trazado_777448" data-name="Trazado 777448" d="M239.39,210.99H81.518a6.484,6.484,0,0,1-6.478-6.477V91.848a6.485,6.485,0,0,1,6.478-6.478H239.39a6.485,6.485,0,0,1,6.478,6.478V204.513a6.484,6.484,0,0,1-6.478,6.477M81.518,86.091a5.763,5.763,0,0,0-5.756,5.756V204.513a5.762,5.762,0,0,0,5.756,5.756H239.39a5.762,5.762,0,0,0,5.756-5.756V91.848a5.763,5.763,0,0,0-5.756-5.756Z" transform="translate(-20.911 -23.789)" fill="#263238"/>
        <path id="Trazado_777449" data-name="Trazado 777449" d="M75.54,232.109H245.646V245.4a6.117,6.117,0,0,1-6.117,6.117H81.657A6.117,6.117,0,0,1,75.54,245.4Z" transform="translate(-21.05 -64.68)" fill="#fff"/>
        <path id="Trazado_777450" data-name="Trazado 777450" d="M239.39,251.742H81.518a6.484,6.484,0,0,1-6.478-6.477V231.971a.361.361,0,0,1,.361-.361H245.507a.36.36,0,0,1,.361.361v13.294a6.484,6.484,0,0,1-6.478,6.477M75.761,232.331v12.934a5.762,5.762,0,0,0,5.756,5.756H239.39a5.762,5.762,0,0,0,5.756-5.756V232.331Z" transform="translate(-20.911 -64.541)" fill="#263238"/>
        <rect id="Rectángulo_373485" data-name="Rectángulo 373485" width="152.989" height="88.241" transform="translate(63.045 69.717)" fill="#fff"/>
        <path id="Trazado_777451" data-name="Trazado 777451" d="M240.249,185.112H87.261a.36.36,0,0,1-.361-.361V96.511a.36.36,0,0,1,.361-.361H240.249a.36.36,0,0,1,.361.361v88.241a.36.36,0,0,1-.361.361m-152.628-.721H239.889V96.871H87.621Z" transform="translate(-24.216 -26.793)" fill="#263238"/>
        <path id="Trazado_777452" data-name="Trazado 777452" d="M195.376,248.642a3.138,3.138,0,1,0-3.2,3.072h.064a3.109,3.109,0,0,0,3.138-3.073" transform="translate(-52.695 -68.394)" fill="#263238"/>
        <path id="Trazado_777453" data-name="Trazado 777453" d="M192.129,251.936h-.107a3.5,3.5,0,1,1,.107,0m-.03-6.276a2.777,2.777,0,0,0-.058,5.554h.028a2.764,2.764,0,0,0,2.806-2.715v0a2.78,2.78,0,0,0-2.719-2.834H192.1" transform="translate(-52.556 -68.255)" fill="#263238"/>
        <rect id="Rectángulo_373486" data-name="Rectángulo 373486" width="55.031" height="2.51" transform="translate(112.031 211.417)" fill="#fff"/>
        <path id="Trazado_777454" data-name="Trazado 777454" d="M210.2,295.821H155.171a.361.361,0,0,1-.361-.361V292.95a.361.361,0,0,1,.361-.361H210.2a.361.361,0,0,1,.361.361v2.511a.361.361,0,0,1-.361.361m-54.671-.721h54.31v-1.789h-54.31Z" transform="translate(-43.14 -81.533)" fill="#263238"/>
        <path id="Trazado_777455" data-name="Trazado 777455" d="M174.317,90.3c-7.689,7.213-27.411,14.427-50.357,29.784,0,0,1.443,51.936,50.357,80.292Z" transform="translate(-34.543 -25.163)" fill="#ffb206"/>
        <path id="Trazado_777456" data-name="Trazado 777456" d="M174.177,200.6a.359.359,0,0,1-.181-.049,100.9,100.9,0,0,1-43.676-50.96c-6.424-16.4-6.857-29.5-6.861-29.634a.361.361,0,0,1,.159-.309,333.954,333.954,0,0,1,31.116-18.062c8.611-4.547,15.413-8.137,19.2-11.686a.361.361,0,0,1,.607.263V200.236a.362.362,0,0,1-.361.361m-49.988-80.465A98.774,98.774,0,0,0,131,149.351a100.182,100.182,0,0,0,42.814,50.256V90.971c-3.943,3.434-10.524,6.908-18.745,11.249a334.284,334.284,0,0,0-30.883,17.912" transform="translate(-34.404 -25.024)" fill="#263238"/>
        <path id="Trazado_777457" data-name="Trazado 777457" d="M193.77,90.3c7.7,7.213,27.411,14.427,50.364,29.784,0,0-1.443,51.936-50.364,80.292Z" transform="translate(-53.996 -25.163)" fill="#263238"/>
        <path id="Trazado_777458" data-name="Trazado 777458" d="M193.631,200.6a.359.359,0,0,1-.361-.361V90.16a.361.361,0,0,1,.607-.263c3.786,3.548,10.587,7.138,19.2,11.684A334.456,334.456,0,0,1,244.2,119.645a.361.361,0,0,1,.16.309c0,.131-.437,13.237-6.861,29.635a100.908,100.908,0,0,1-43.683,50.96.358.358,0,0,1-.18.048m.361-109.625V199.608a100.18,100.18,0,0,0,42.83-50.282,98.72,98.72,0,0,0,6.8-29.194,334.756,334.756,0,0,0-30.887-17.912c-8.222-4.34-14.8-7.815-18.748-11.249" transform="translate(-53.857 -25.024)" fill="#263238"/>
        <path id="Trazado_777459" data-name="Trazado 777459" d="M175.743,96.429c-9.305,6.449-25.384,12.588-46.663,26.827,0,0,1.334,48.113,46.663,74.413,45.336-26.3,46.671-74.413,46.671-74.413-21.279-14.239-37.308-20.378-46.671-26.827" transform="translate(-35.97 -26.871)" fill="#263238"/>
        <path id="Trazado_777460" data-name="Trazado 777460" d="M175.6,197.89a.358.358,0,0,1-.181-.048,93.594,93.594,0,0,1-40.485-47.25,91.079,91.079,0,0,1-6.358-27.466.36.36,0,0,1,.16-.309,316.235,316.235,0,0,1,31.675-18.352A149.248,149.248,0,0,0,175.4,95.993a.359.359,0,0,1,.41,0,152,152,0,0,0,14.911,8.421,317.122,317.122,0,0,1,31.756,18.4.361.361,0,0,1,.159.309,91.043,91.043,0,0,1-6.359,27.466,93.6,93.6,0,0,1-40.491,47.25.362.362,0,0,1-.181.048M129.309,123.3a91.552,91.552,0,0,0,6.311,27.052A92.873,92.873,0,0,0,175.6,197.112a92.877,92.877,0,0,0,39.99-46.757,91.552,91.552,0,0,0,6.311-27.052,317.168,317.168,0,0,0-31.52-18.251,156.12,156.12,0,0,1-14.78-8.326,153.408,153.408,0,0,1-14.857,8.378,316.212,316.212,0,0,0-31.439,18.2" transform="translate(-35.83 -26.732)" fill="#263238"/>
        <path id="Trazado_777461" data-name="Trazado 777461" d="M240.441,123.256c-21.279-14.232-37.308-20.378-46.671-26.826V197.669c45.336-26.3,46.671-74.413,46.671-74.413" transform="translate(-53.996 -26.871)" fill="#ffb206"/>
        <path id="Trazado_777462" data-name="Trazado 777462" d="M193.631,197.891a.359.359,0,0,1-.361-.361V96.291a.361.361,0,0,1,.566-.3,151.725,151.725,0,0,0,14.923,8.429,318.228,318.228,0,0,1,31.743,18.4.359.359,0,0,1,.16.309,91.087,91.087,0,0,1-6.359,27.466,93.6,93.6,0,0,1-40.491,47.25.362.362,0,0,1-.181.048m.361-100.92V196.9a92.871,92.871,0,0,0,39.63-46.546,91.526,91.526,0,0,0,6.311-27.052,317.972,317.972,0,0,0-31.507-18.243,163.909,163.909,0,0,1-14.433-8.091" transform="translate(-53.857 -26.732)" fill="#263238"/>
        <rect id="Rectángulo_373487" data-name="Rectángulo 373487" width="171.159" height="11.08" transform="translate(53.963 121.856)" fill="#263238"/>
        <path id="Trazado_777463" data-name="Trazado 777463" d="M245.83,180.231H74.671a.361.361,0,0,1-.361-.361V168.79a.361.361,0,0,1,.361-.361H245.83a.361.361,0,0,1,.361.361v11.08a.361.361,0,0,1-.361.361m-170.8-.721H245.469V169.151H75.031Z" transform="translate(-20.707 -46.935)" fill="#263238"/>
        <path id="Trazado_777464" data-name="Trazado 777464" d="M78.594,170.934a1.147,1.147,0,1,1-1.169-1.125h.022a1.133,1.133,0,0,1,1.147,1.118v.007" transform="translate(-21.262 -47.319)" fill="#fff"/>
        <path id="Trazado_777465" data-name="Trazado 777465" d="M76.98,171.764a.915.915,0,0,0,1.58-.62.88.88,0,0,0-.231-.585,13.184,13.184,0,0,0-1.349,1.2" transform="translate(-21.451 -47.528)" fill="#263238"/>
        <path id="Trazado_777466" data-name="Trazado 777466" d="M84.828,170.934a1.154,1.154,0,1,1-1.182-1.124h.028A1.14,1.14,0,0,1,84.828,170.934Z" transform="translate(-22.995 -47.319)" fill="#fff"/>
        <path id="Trazado_777467" data-name="Trazado 777467" d="M83.21,171.764a.915.915,0,0,0,1.58-.62.88.88,0,0,0-.231-.585,14.242,14.242,0,0,0-1.349,1.2" transform="translate(-23.187 -47.528)" fill="#263238"/>
        <path id="Trazado_777468" data-name="Trazado 777468" d="M91.061,170.958A1.154,1.154,0,1,1,90,169.9a1.155,1.155,0,0,1,1.06,1.06" transform="translate(-24.734 -47.343)" fill="#fff"/>
        <path id="Trazado_777469" data-name="Trazado 777469" d="M89.44,171.764a.922.922,0,0,0,.664.282.909.909,0,0,0,.916-.9.851.851,0,0,0-.231-.585,14.242,14.242,0,0,0-1.349,1.2" transform="translate(-24.924 -47.528)" fill="#263238"/>
        <path id="Trazado_777470" data-name="Trazado 777470" d="M97.294,170.934a1.147,1.147,0,1,1-1.169-1.125h.022a1.133,1.133,0,0,1,1.147,1.118v.007" transform="translate(-26.473 -47.319)" fill="#fff"/>
        <path id="Trazado_777471" data-name="Trazado 777471" d="M95.67,171.764a.923.923,0,0,0,1.587-.62.88.88,0,0,0-.231-.585,13.262,13.262,0,0,0-1.356,1.2" transform="translate(-26.66 -47.528)" fill="#263238"/>
        <path id="Trazado_777472" data-name="Trazado 777472" d="M103.524,170.934a1.147,1.147,0,1,1-1.169-1.125h.022a1.133,1.133,0,0,1,1.147,1.118v.007" transform="translate(-28.209 -47.319)" fill="#fff"/>
        <path id="Trazado_777473" data-name="Trazado 777473" d="M101.87,171.764a.935.935,0,0,0,.664.282.909.909,0,0,0,.923-.894v-.007a.88.88,0,0,0-.231-.585,14.237,14.237,0,0,0-1.356,1.2" transform="translate(-28.387 -47.528)" fill="#263238"/>
        <path id="Trazado_777474" data-name="Trazado 777474" d="M109.754,170.934a1.147,1.147,0,1,1-1.169-1.125h.022a1.133,1.133,0,0,1,1.147,1.118v.007" transform="translate(-29.945 -47.319)" fill="#fff"/>
        <path id="Trazado_777475" data-name="Trazado 777475" d="M108.14,171.764a.915.915,0,0,0,1.58-.62.88.88,0,0,0-.231-.585,13.184,13.184,0,0,0-1.349,1.2" transform="translate(-30.134 -47.528)" fill="#263238"/>
        <path id="Trazado_777476" data-name="Trazado 777476" d="M115.978,170.934a1.154,1.154,0,1,1-1.182-1.124h.028A1.14,1.14,0,0,1,115.978,170.934Z" transform="translate(-31.676 -47.319)" fill="#fff"/>
        <path id="Trazado_777477" data-name="Trazado 777477" d="M114.37,171.764a.915.915,0,0,0,1.58-.62.88.88,0,0,0-.231-.585,14.24,14.24,0,0,0-1.349,1.2" transform="translate(-31.871 -47.528)" fill="#263238"/>
        <path id="Trazado_777478" data-name="Trazado 777478" d="M122.224,170.934a1.147,1.147,0,1,1-1.169-1.125h.022a1.133,1.133,0,0,1,1.147,1.118v.007" transform="translate(-33.42 -47.319)" fill="#fff"/>
        <path id="Trazado_777479" data-name="Trazado 777479" d="M120.6,171.764a.922.922,0,0,0,.664.282.909.909,0,0,0,.916-.9.851.851,0,0,0-.231-.585,14.24,14.24,0,0,0-1.349,1.2" transform="translate(-33.607 -47.528)" fill="#263238"/>
        <path id="Trazado_777480" data-name="Trazado 777480" d="M128.454,170.934a1.147,1.147,0,1,1-1.169-1.125h.022a1.133,1.133,0,0,1,1.147,1.118v.007" transform="translate(-35.156 -47.319)" fill="#fff"/>
        <path id="Trazado_777481" data-name="Trazado 777481" d="M126.87,171.764a.923.923,0,0,0,1.587-.62.88.88,0,0,0-.231-.585,14.24,14.24,0,0,0-1.356,1.2" transform="translate(-35.354 -47.528)" fill="#263238"/>
        <path id="Trazado_777482" data-name="Trazado 777482" d="M134.684,170.934a1.147,1.147,0,1,1-1.169-1.125h.022a1.133,1.133,0,0,1,1.147,1.118v.007" transform="translate(-36.892 -47.319)" fill="#fff"/>
        <path id="Trazado_777483" data-name="Trazado 777483" d="M133.06,171.764a.935.935,0,0,0,.664.282.909.909,0,0,0,.923-.894v-.007a.88.88,0,0,0-.231-.585,14.237,14.237,0,0,0-1.356,1.2" transform="translate(-37.079 -47.528)" fill="#263238"/>
        <path id="Trazado_777484" data-name="Trazado 777484" d="M140.914,170.934a1.147,1.147,0,1,1-1.169-1.125h.022a1.133,1.133,0,0,1,1.147,1.118v.007" transform="translate(-38.628 -47.319)" fill="#fff"/>
        <path id="Trazado_777485" data-name="Trazado 777485" d="M139.3,171.764a.915.915,0,0,0,1.58-.62.88.88,0,0,0-.231-.585,14.24,14.24,0,0,0-1.349,1.2" transform="translate(-38.818 -47.528)" fill="#263238"/>
        <path id="Trazado_777486" data-name="Trazado 777486" d="M147.148,170.934a1.154,1.154,0,1,1-1.182-1.125H146a1.133,1.133,0,0,1,1.147,1.118v.007" transform="translate(-40.361 -47.319)" fill="#fff"/>
        <path id="Trazado_777487" data-name="Trazado 777487" d="M145.53,171.764a.915.915,0,0,0,1.58-.62.851.851,0,0,0-.231-.585,14.242,14.242,0,0,0-1.349,1.2" transform="translate(-40.554 -47.528)" fill="#263238"/>
        <path id="Trazado_777488" data-name="Trazado 777488" d="M153.384,170.934a1.147,1.147,0,1,1-1.169-1.125h.022a1.133,1.133,0,0,1,1.147,1.118v.007" transform="translate(-42.103 -47.319)" fill="#fff"/>
        <path id="Trazado_777489" data-name="Trazado 777489" d="M151.76,171.764a.923.923,0,0,0,1.587-.62.88.88,0,0,0-.231-.585,13.262,13.262,0,0,0-1.356,1.2" transform="translate(-42.29 -47.528)" fill="#263238"/>
        <path id="Trazado_777490" data-name="Trazado 777490" d="M159.614,170.934a1.147,1.147,0,1,1-1.169-1.125h.022a1.133,1.133,0,0,1,1.147,1.118v.007" transform="translate(-43.839 -47.319)" fill="#fff"/>
        <path id="Trazado_777491" data-name="Trazado 777491" d="M157.99,171.764a.935.935,0,0,0,.664.282.909.909,0,0,0,.923-.894v-.007a.881.881,0,0,0-.231-.585,14.237,14.237,0,0,0-1.356,1.2" transform="translate(-44.026 -47.528)" fill="#263238"/>
        <path id="Trazado_777492" data-name="Trazado 777492" d="M78.594,180.847a1.147,1.147,0,1,1-1.176-1.117h.029A1.133,1.133,0,0,1,78.594,180.847Z" transform="translate(-21.262 -50.084)" fill="#fff"/>
        <path id="Trazado_777493" data-name="Trazado 777493" d="M76.98,181.684a.9.9,0,0,0,.656.282.917.917,0,0,0,.923-.91.883.883,0,0,0-.231-.577,13.183,13.183,0,0,0-1.349,1.2" transform="translate(-21.451 -50.293)" fill="#263238"/>
        <path id="Trazado_777494" data-name="Trazado 777494" d="M84.829,180.847a1.154,1.154,0,1,1-1.189-1.117h.035a1.139,1.139,0,0,1,1.154,1.118" transform="translate(-22.995 -50.084)" fill="#fff"/>
        <path id="Trazado_777495" data-name="Trazado 777495" d="M83.21,181.684a.9.9,0,0,0,.656.282.917.917,0,0,0,.923-.91.883.883,0,0,0-.231-.577,14.143,14.143,0,0,0-1.349,1.2" transform="translate(-23.187 -50.293)" fill="#263238"/>
        <path id="Trazado_777496" data-name="Trazado 777496" d="M91.059,180.847a1.154,1.154,0,1,1-1.189-1.117h.043A1.133,1.133,0,0,1,91.059,180.847Z" transform="translate(-24.732 -50.084)" fill="#fff"/>
        <path id="Trazado_777497" data-name="Trazado 777497" d="M89.44,181.684a.915.915,0,0,0,1.58-.628.842.842,0,0,0-.231-.577,14.143,14.143,0,0,0-1.349,1.2" transform="translate(-24.924 -50.293)" fill="#263238"/>
        <path id="Trazado_777498" data-name="Trazado 777498" d="M97.294,180.847a1.147,1.147,0,1,1-1.176-1.117h.029A1.133,1.133,0,0,1,97.294,180.847Z" transform="translate(-26.473 -50.084)" fill="#fff"/>
        <path id="Trazado_777499" data-name="Trazado 777499" d="M95.67,181.684a.923.923,0,0,0,1.587-.628.884.884,0,0,0-.231-.577,13.262,13.262,0,0,0-1.356,1.2" transform="translate(-26.66 -50.293)" fill="#263238"/>
        <path id="Trazado_777500" data-name="Trazado 777500" d="M103.524,180.847a1.147,1.147,0,1,1-1.176-1.117h.029A1.133,1.133,0,0,1,103.524,180.847Z" transform="translate(-28.209 -50.084)" fill="#fff"/>
        <path id="Trazado_777501" data-name="Trazado 777501" d="M101.87,181.684a.934.934,0,0,0,.664.282.917.917,0,0,0,.923-.91.883.883,0,0,0-.231-.577,14.138,14.138,0,0,0-1.356,1.2" transform="translate(-28.387 -50.293)" fill="#263238"/>
        <path id="Trazado_777502" data-name="Trazado 777502" d="M109.754,180.847a1.147,1.147,0,1,1-1.176-1.117h.029A1.133,1.133,0,0,1,109.754,180.847Z" transform="translate(-29.945 -50.084)" fill="#fff"/>
        <path id="Trazado_777503" data-name="Trazado 777503" d="M108.14,181.684a.9.9,0,0,0,.656.282.917.917,0,0,0,.923-.91.883.883,0,0,0-.231-.577,13.183,13.183,0,0,0-1.349,1.2" transform="translate(-30.134 -50.293)" fill="#263238"/>
        <path id="Trazado_777504" data-name="Trazado 777504" d="M115.979,180.847a1.154,1.154,0,1,1-1.189-1.117h.035a1.139,1.139,0,0,1,1.154,1.118" transform="translate(-31.676 -50.084)" fill="#fff"/>
        <path id="Trazado_777505" data-name="Trazado 777505" d="M114.37,181.684a.9.9,0,0,0,.656.282.917.917,0,0,0,.923-.91.883.883,0,0,0-.231-.577,14.141,14.141,0,0,0-1.349,1.2" transform="translate(-31.871 -50.293)" fill="#263238"/>
        <path id="Trazado_777506" data-name="Trazado 777506" d="M122.224,180.847a1.147,1.147,0,1,1-1.176-1.117h.029A1.133,1.133,0,0,1,122.224,180.847Z" transform="translate(-33.42 -50.084)" fill="#fff"/>
        <path id="Trazado_777507" data-name="Trazado 777507" d="M120.6,181.684a.915.915,0,0,0,1.58-.628.842.842,0,0,0-.231-.577,14.141,14.141,0,0,0-1.349,1.2" transform="translate(-33.607 -50.293)" fill="#263238"/>
        <path id="Trazado_777508" data-name="Trazado 777508" d="M128.454,180.847a1.147,1.147,0,1,1-1.176-1.117h.029A1.133,1.133,0,0,1,128.454,180.847Z" transform="translate(-35.156 -50.084)" fill="#fff"/>
        <path id="Trazado_777509" data-name="Trazado 777509" d="M126.87,181.684a.923.923,0,0,0,1.587-.628.883.883,0,0,0-.231-.577,14.142,14.142,0,0,0-1.356,1.2" transform="translate(-35.354 -50.293)" fill="#263238"/>
        <path id="Trazado_777510" data-name="Trazado 777510" d="M134.684,180.847a1.147,1.147,0,1,1-1.176-1.117h.029A1.133,1.133,0,0,1,134.684,180.847Z" transform="translate(-36.892 -50.084)" fill="#fff"/>
        <path id="Trazado_777511" data-name="Trazado 777511" d="M133.06,181.684a.934.934,0,0,0,.664.282.917.917,0,0,0,.923-.91.883.883,0,0,0-.231-.577,14.138,14.138,0,0,0-1.356,1.2" transform="translate(-37.079 -50.293)" fill="#263238"/>
        <path id="Trazado_777512" data-name="Trazado 777512" d="M140.914,180.847a1.147,1.147,0,1,1-1.176-1.117h.029A1.133,1.133,0,0,1,140.914,180.847Z" transform="translate(-38.628 -50.084)" fill="#fff"/>
        <path id="Trazado_777513" data-name="Trazado 777513" d="M139.3,181.684a.9.9,0,0,0,.656.282.917.917,0,0,0,.923-.91.883.883,0,0,0-.231-.577,14.141,14.141,0,0,0-1.349,1.2" transform="translate(-38.818 -50.293)" fill="#263238"/>
        <path id="Trazado_777514" data-name="Trazado 777514" d="M147.149,180.847a1.154,1.154,0,1,1-1.189-1.117H146A1.133,1.133,0,0,1,147.149,180.847Z" transform="translate(-40.362 -50.084)" fill="#fff"/>
        <path id="Trazado_777515" data-name="Trazado 777515" d="M145.53,181.684a.915.915,0,0,0,1.58-.628.842.842,0,0,0-.231-.577,14.143,14.143,0,0,0-1.349,1.2" transform="translate(-40.554 -50.293)" fill="#263238"/>
        <path id="Trazado_777516" data-name="Trazado 777516" d="M153.384,180.847a1.147,1.147,0,1,1-1.176-1.117h.029A1.133,1.133,0,0,1,153.384,180.847Z" transform="translate(-42.103 -50.084)" fill="#fff"/>
        <path id="Trazado_777517" data-name="Trazado 777517" d="M151.76,181.684a.923.923,0,0,0,1.587-.628.883.883,0,0,0-.231-.577,13.262,13.262,0,0,0-1.356,1.2" transform="translate(-42.29 -50.293)" fill="#263238"/>
        <path id="Trazado_777518" data-name="Trazado 777518" d="M159.614,180.847a1.147,1.147,0,1,1-1.176-1.117h.029A1.133,1.133,0,0,1,159.614,180.847Z" transform="translate(-43.839 -50.084)" fill="#fff"/>
        <path id="Trazado_777519" data-name="Trazado 777519" d="M157.99,181.684a.934.934,0,0,0,.664.282.917.917,0,0,0,.923-.91.883.883,0,0,0-.231-.577,14.139,14.139,0,0,0-1.356,1.2" transform="translate(-44.026 -50.293)" fill="#263238"/>
        <path id="Trazado_777520" data-name="Trazado 777520" d="M228.664,170.934a1.147,1.147,0,1,1-1.169-1.125h.022a1.133,1.133,0,0,1,1.147,1.118v.007" transform="translate(-63.081 -47.319)" fill="#fff"/>
        <path id="Trazado_777521" data-name="Trazado 777521" d="M227.05,171.764a.915.915,0,0,0,1.58-.62.881.881,0,0,0-.231-.585,14.238,14.238,0,0,0-1.349,1.2" transform="translate(-63.27 -47.528)" fill="#263238"/>
        <path id="Trazado_777522" data-name="Trazado 777522" d="M234.9,170.934a1.154,1.154,0,1,1-1.182-1.125h.035a1.133,1.133,0,0,1,1.147,1.118v.007" transform="translate(-64.814 -47.319)" fill="#fff"/>
        <path id="Trazado_777523" data-name="Trazado 777523" d="M233.28,171.764a.915.915,0,0,0,1.58-.62.851.851,0,0,0-.231-.585,14.242,14.242,0,0,0-1.349,1.2" transform="translate(-65.006 -47.528)" fill="#263238"/>
        <path id="Trazado_777524" data-name="Trazado 777524" d="M241.134,170.934a1.147,1.147,0,1,1-1.169-1.125h.022a1.133,1.133,0,0,1,1.147,1.118v.007" transform="translate(-66.556 -47.319)" fill="#fff"/>
        <path id="Trazado_777525" data-name="Trazado 777525" d="M239.51,171.764a.923.923,0,0,0,1.587-.62.881.881,0,0,0-.231-.585,13.263,13.263,0,0,0-1.356,1.2" transform="translate(-66.742 -47.528)" fill="#263238"/>
        <path id="Trazado_777526" data-name="Trazado 777526" d="M247.364,170.934a1.147,1.147,0,1,1-1.169-1.125h.022a1.133,1.133,0,0,1,1.147,1.118v.007" transform="translate(-68.292 -47.319)" fill="#fff"/>
        <path id="Trazado_777527" data-name="Trazado 777527" d="M245.74,171.764a.935.935,0,0,0,.664.282.909.909,0,0,0,.923-.894v-.007a.88.88,0,0,0-.231-.585,14.235,14.235,0,0,0-1.356,1.2" transform="translate(-68.478 -47.528)" fill="#263238"/>
        <path id="Trazado_777528" data-name="Trazado 777528" d="M253.594,170.934a1.147,1.147,0,1,1-1.169-1.125h.022a1.133,1.133,0,0,1,1.147,1.118v.007" transform="translate(-70.028 -47.319)" fill="#fff"/>
        <path id="Trazado_777529" data-name="Trazado 777529" d="M251.98,171.764a.916.916,0,0,0,1.58-.62.88.88,0,0,0-.231-.585,13.192,13.192,0,0,0-1.349,1.2" transform="translate(-70.217 -47.528)" fill="#263238"/>
        <path id="Trazado_777530" data-name="Trazado 777530" d="M259.828,170.934a1.154,1.154,0,1,1-1.182-1.124h.028A1.14,1.14,0,0,1,259.828,170.934Z" transform="translate(-71.761 -47.319)" fill="#fff"/>
        <path id="Trazado_777531" data-name="Trazado 777531" d="M258.21,171.764a.915.915,0,0,0,1.58-.62.88.88,0,0,0-.231-.585,14.238,14.238,0,0,0-1.349,1.2" transform="translate(-71.953 -47.528)" fill="#263238"/>
        <path id="Trazado_777532" data-name="Trazado 777532" d="M266.058,170.934a1.154,1.154,0,1,1-1.182-1.125h.035a1.133,1.133,0,0,1,1.147,1.118v.007" transform="translate(-73.497 -47.319)" fill="#fff"/>
        <path id="Trazado_777533" data-name="Trazado 777533" d="M264.44,171.764a.915.915,0,0,0,1.58-.62.851.851,0,0,0-.231-.585,14.242,14.242,0,0,0-1.349,1.2" transform="translate(-73.689 -47.528)" fill="#263238"/>
        <path id="Trazado_777534" data-name="Trazado 777534" d="M272.294,170.934a1.147,1.147,0,1,1-1.169-1.125h.022a1.133,1.133,0,0,1,1.147,1.118v.007" transform="translate(-75.239 -47.319)" fill="#fff"/>
        <path id="Trazado_777535" data-name="Trazado 777535" d="M270.67,171.764a.923.923,0,0,0,1.587-.62.881.881,0,0,0-.231-.585,13.257,13.257,0,0,0-1.356,1.2" transform="translate(-75.425 -47.528)" fill="#263238"/>
        <path id="Trazado_777536" data-name="Trazado 777536" d="M278.524,170.934a1.147,1.147,0,1,1-1.169-1.125h.022a1.133,1.133,0,0,1,1.147,1.118v.007" transform="translate(-76.975 -47.319)" fill="#fff"/>
        <path id="Trazado_777537" data-name="Trazado 777537" d="M276.87,171.764a.935.935,0,0,0,.664.282.909.909,0,0,0,.923-.894v-.007a.88.88,0,0,0-.231-.585,14.233,14.233,0,0,0-1.356,1.2" transform="translate(-77.153 -47.528)" fill="#263238"/>
        <path id="Trazado_777538" data-name="Trazado 777538" d="M284.754,170.934a1.147,1.147,0,1,1-1.169-1.125h.022a1.133,1.133,0,0,1,1.147,1.118v.007" transform="translate(-78.711 -47.319)" fill="#fff"/>
        <path id="Trazado_777539" data-name="Trazado 777539" d="M283.14,171.764a.915.915,0,0,0,1.58-.62.88.88,0,0,0-.231-.585,13.185,13.185,0,0,0-1.349,1.2" transform="translate(-78.9 -47.528)" fill="#263238"/>
        <path id="Trazado_777540" data-name="Trazado 777540" d="M290.978,170.934a1.154,1.154,0,1,1-1.182-1.124h.028A1.14,1.14,0,0,1,290.978,170.934Z" transform="translate(-80.441 -47.319)" fill="#fff"/>
        <path id="Trazado_777541" data-name="Trazado 777541" d="M289.37,171.764a.915.915,0,0,0,1.58-.62.881.881,0,0,0-.231-.585,14.242,14.242,0,0,0-1.349,1.2" transform="translate(-80.636 -47.528)" fill="#263238"/>
        <path id="Trazado_777542" data-name="Trazado 777542" d="M297.224,170.934a1.147,1.147,0,1,1-1.169-1.125h.022a1.133,1.133,0,0,1,1.147,1.118v.007" transform="translate(-82.186 -47.319)" fill="#fff"/>
        <path id="Trazado_777543" data-name="Trazado 777543" d="M295.6,171.764a.922.922,0,0,0,.664.282.909.909,0,0,0,.916-.9.851.851,0,0,0-.231-.585,14.238,14.238,0,0,0-1.349,1.2" transform="translate(-82.372 -47.528)" fill="#263238"/>
        <path id="Trazado_777544" data-name="Trazado 777544" d="M303.454,170.934a1.147,1.147,0,1,1-1.169-1.125h.022a1.133,1.133,0,0,1,1.147,1.118v.007" transform="translate(-83.922 -47.319)" fill="#fff"/>
        <path id="Trazado_777545" data-name="Trazado 777545" d="M301.87,171.764a.923.923,0,0,0,1.587-.62.881.881,0,0,0-.231-.585,14.237,14.237,0,0,0-1.356,1.2" transform="translate(-84.12 -47.528)" fill="#263238"/>
        <path id="Trazado_777546" data-name="Trazado 777546" d="M309.684,170.934a1.147,1.147,0,1,1-1.169-1.125h.022a1.133,1.133,0,0,1,1.147,1.118v.007" transform="translate(-85.658 -47.319)" fill="#fff"/>
        <path id="Trazado_777547" data-name="Trazado 777547" d="M308.06,171.764a.934.934,0,0,0,.664.282.909.909,0,0,0,.923-.894v-.007a.88.88,0,0,0-.231-.585,14.24,14.24,0,0,0-1.356,1.2" transform="translate(-85.845 -47.528)" fill="#263238"/>
        <path id="Trazado_777548" data-name="Trazado 777548" d="M228.664,180.847a1.147,1.147,0,1,1-1.175-1.117h.028A1.133,1.133,0,0,1,228.664,180.847Z" transform="translate(-63.081 -50.084)" fill="#fff"/>
        <path id="Trazado_777549" data-name="Trazado 777549" d="M227.05,181.684a.9.9,0,0,0,.656.282.917.917,0,0,0,.923-.91.884.884,0,0,0-.231-.577,14.139,14.139,0,0,0-1.349,1.2" transform="translate(-63.27 -50.293)" fill="#263238"/>
        <path id="Trazado_777550" data-name="Trazado 777550" d="M234.9,180.847a1.154,1.154,0,1,1-1.189-1.117h.043A1.133,1.133,0,0,1,234.9,180.847Z" transform="translate(-64.814 -50.084)" fill="#fff"/>
        <path id="Trazado_777551" data-name="Trazado 777551" d="M233.28,181.684a.915.915,0,0,0,1.58-.628.842.842,0,0,0-.231-.577,14.143,14.143,0,0,0-1.349,1.2" transform="translate(-65.006 -50.293)" fill="#263238"/>
        <path id="Trazado_777552" data-name="Trazado 777552" d="M241.134,180.847a1.147,1.147,0,1,1-1.175-1.117h.028A1.133,1.133,0,0,1,241.134,180.847Z" transform="translate(-66.556 -50.084)" fill="#fff"/>
        <path id="Trazado_777553" data-name="Trazado 777553" d="M239.51,181.684a.923.923,0,0,0,1.587-.628.883.883,0,0,0-.231-.577,13.263,13.263,0,0,0-1.356,1.2" transform="translate(-66.742 -50.293)" fill="#263238"/>
        <path id="Trazado_777554" data-name="Trazado 777554" d="M247.364,180.847a1.147,1.147,0,1,1-1.175-1.117h.028A1.133,1.133,0,0,1,247.364,180.847Z" transform="translate(-68.292 -50.084)" fill="#fff"/>
        <path id="Trazado_777555" data-name="Trazado 777555" d="M245.74,181.684a.934.934,0,0,0,.664.282.917.917,0,0,0,.923-.91.883.883,0,0,0-.231-.577,14.137,14.137,0,0,0-1.356,1.2" transform="translate(-68.478 -50.293)" fill="#263238"/>
        <path id="Trazado_777556" data-name="Trazado 777556" d="M253.594,180.847a1.147,1.147,0,1,1-1.175-1.117h.028A1.133,1.133,0,0,1,253.594,180.847Z" transform="translate(-70.028 -50.084)" fill="#fff"/>
        <path id="Trazado_777557" data-name="Trazado 777557" d="M251.98,181.684a.9.9,0,0,0,.656.282.917.917,0,0,0,.923-.91.883.883,0,0,0-.231-.577,13.192,13.192,0,0,0-1.349,1.2" transform="translate(-70.217 -50.293)" fill="#263238"/>
        <path id="Trazado_777558" data-name="Trazado 777558" d="M259.829,180.847a1.154,1.154,0,1,1-1.189-1.117h.035a1.139,1.139,0,0,1,1.154,1.118" transform="translate(-71.761 -50.084)" fill="#fff"/>
        <path id="Trazado_777559" data-name="Trazado 777559" d="M258.21,181.684a.9.9,0,0,0,.656.282.917.917,0,0,0,.923-.91.883.883,0,0,0-.231-.577,14.139,14.139,0,0,0-1.349,1.2" transform="translate(-71.953 -50.293)" fill="#263238"/>
        <path id="Trazado_777560" data-name="Trazado 777560" d="M266.059,180.847a1.154,1.154,0,1,1-1.19-1.117h.043A1.133,1.133,0,0,1,266.059,180.847Z" transform="translate(-73.497 -50.084)" fill="#fff"/>
        <path id="Trazado_777561" data-name="Trazado 777561" d="M264.44,181.684a.915.915,0,0,0,1.58-.628.842.842,0,0,0-.231-.577,14.143,14.143,0,0,0-1.349,1.2" transform="translate(-73.689 -50.293)" fill="#263238"/>
        <path id="Trazado_777562" data-name="Trazado 777562" d="M272.294,180.847a1.147,1.147,0,1,1-1.175-1.117h.028A1.133,1.133,0,0,1,272.294,180.847Z" transform="translate(-75.239 -50.084)" fill="#fff"/>
        <path id="Trazado_777563" data-name="Trazado 777563" d="M270.67,181.684a.923.923,0,0,0,1.587-.628.883.883,0,0,0-.231-.577,13.257,13.257,0,0,0-1.356,1.2" transform="translate(-75.425 -50.293)" fill="#263238"/>
        <path id="Trazado_777564" data-name="Trazado 777564" d="M278.524,180.847a1.147,1.147,0,1,1-1.175-1.117h.028A1.133,1.133,0,0,1,278.524,180.847Z" transform="translate(-76.975 -50.084)" fill="#fff"/>
        <path id="Trazado_777565" data-name="Trazado 777565" d="M276.87,181.684a.934.934,0,0,0,.664.282.917.917,0,0,0,.923-.91.884.884,0,0,0-.231-.577,14.135,14.135,0,0,0-1.356,1.2" transform="translate(-77.153 -50.293)" fill="#263238"/>
        <path id="Trazado_777566" data-name="Trazado 777566" d="M284.754,180.847a1.147,1.147,0,1,1-1.175-1.117h.028A1.133,1.133,0,0,1,284.754,180.847Z" transform="translate(-78.711 -50.084)" fill="#fff"/>
        <path id="Trazado_777567" data-name="Trazado 777567" d="M283.14,181.684a.9.9,0,0,0,.656.282.917.917,0,0,0,.923-.91.883.883,0,0,0-.231-.577,13.185,13.185,0,0,0-1.349,1.2" transform="translate(-78.9 -50.293)" fill="#263238"/>
        <path id="Trazado_777568" data-name="Trazado 777568" d="M290.979,180.847a1.154,1.154,0,1,1-1.19-1.117h.035a1.139,1.139,0,0,1,1.154,1.118" transform="translate(-80.442 -50.084)" fill="#fff"/>
        <path id="Trazado_777569" data-name="Trazado 777569" d="M289.37,181.684a.9.9,0,0,0,.656.282.917.917,0,0,0,.923-.91.884.884,0,0,0-.231-.577,14.143,14.143,0,0,0-1.349,1.2" transform="translate(-80.636 -50.293)" fill="#263238"/>
        <path id="Trazado_777570" data-name="Trazado 777570" d="M297.224,180.847a1.147,1.147,0,1,1-1.175-1.117h.028A1.133,1.133,0,0,1,297.224,180.847Z" transform="translate(-82.186 -50.084)" fill="#fff"/>
        <path id="Trazado_777571" data-name="Trazado 777571" d="M295.6,181.684a.915.915,0,0,0,1.58-.628.842.842,0,0,0-.231-.577,14.139,14.139,0,0,0-1.349,1.2" transform="translate(-82.372 -50.293)" fill="#263238"/>
        <path id="Trazado_777572" data-name="Trazado 777572" d="M303.454,180.847a1.147,1.147,0,1,1-1.175-1.117h.028A1.133,1.133,0,0,1,303.454,180.847Z" transform="translate(-83.922 -50.084)" fill="#fff"/>
        <path id="Trazado_777573" data-name="Trazado 777573" d="M301.87,181.684a.923.923,0,0,0,1.587-.628.884.884,0,0,0-.231-.577,14.138,14.138,0,0,0-1.356,1.2" transform="translate(-84.12 -50.293)" fill="#263238"/>
        <path id="Trazado_777574" data-name="Trazado 777574" d="M309.684,180.847a1.147,1.147,0,1,1-1.175-1.117h.028A1.133,1.133,0,0,1,309.684,180.847Z" transform="translate(-85.658 -50.084)" fill="#fff"/>
        <path id="Trazado_777575" data-name="Trazado 777575" d="M308.06,181.684a.934.934,0,0,0,.664.282.917.917,0,0,0,.923-.91.883.883,0,0,0-.231-.577,14.142,14.142,0,0,0-1.356,1.2" transform="translate(-85.845 -50.293)" fill="#263238"/>
        <path id="Trazado_777576" data-name="Trazado 777576" d="M203.731,148.72H168.955a2.885,2.885,0,0,1-2.885-2.828V129.85a20.285,20.285,0,0,1,40.561,0v16.043a2.886,2.886,0,0,1-2.9,2.828m-31.89-5.626h29V129.85a14.5,14.5,0,0,0-29,0Z" transform="translate(-46.277 -30.653)" fill="#fff"/>
        <path id="Trazado_777577" data-name="Trazado 777577" d="M203.607,148.942H168.815a3.263,3.263,0,0,1-3.245-3.18V129.711a20.645,20.645,0,0,1,41.281,0v16.043a3.259,3.259,0,0,1-3.245,3.188m-34.791-.721h34.791a2.533,2.533,0,0,0,2.523-2.474V129.711a19.924,19.924,0,0,0-39.839,0v16.043a2.537,2.537,0,0,0,2.524,2.467Zm31.883-4.905h-29a.361.361,0,0,1-.361-.361V129.711a14.879,14.879,0,0,1,14.853-14.854h.006a14.876,14.876,0,0,1,14.86,14.854v13.244a.36.36,0,0,1-.361.361m-28.637-.721h28.276V129.711A14.155,14.155,0,0,0,186.2,115.578h-.006a14.157,14.157,0,0,0-14.132,14.132Z" transform="translate(-46.138 -30.513)" fill="#263238"/>
        <rect id="Rectángulo_373488" data-name="Rectángulo 373488" width="44.276" height="36.63" transform="translate(117.636 110.336)" fill="#ffb206"/>
        <path id="Trazado_777578" data-name="Trazado 777578" d="M207.216,189.811H162.941a.361.361,0,0,1-.361-.361v-36.63a.36.36,0,0,1,.361-.361h44.276a.36.36,0,0,1,.361.361v36.63a.361.361,0,0,1-.361.361M163.3,189.09h43.554V153.181H163.3Z" transform="translate(-45.305 -42.485)" fill="#263238"/>
        <path id="Trazado_777579" data-name="Trazado 777579" d="M196.434,172.257a4.826,4.826,0,0,0-9.644,0,4.71,4.71,0,0,0,2.532,4.155l-.808,8.317h6.2l-.808-8.317a4.71,4.71,0,0,0,2.532-4.155" transform="translate(-52.051 -46.709)" fill="#263238"/>
        <path id="Trazado_777580" data-name="Trazado 777580" d="M194.571,184.95h-6.2a.364.364,0,0,1-.267-.118.36.36,0,0,1-.092-.277l.785-8.081a5.062,5.062,0,0,1-2.511-4.355,5.214,5.214,0,0,1,4.982-5,5.186,5.186,0,0,1,5.383,4.981v.016a5.059,5.059,0,0,1-2.511,4.355l.786,8.081a.36.36,0,0,1-.359.395m-5.8-.721h5.4l-.77-7.92a.36.36,0,0,1,.192-.355,4.339,4.339,0,0,0,2.339-3.83,4.467,4.467,0,0,0-4.634-4.281,4.487,4.487,0,0,0-4.289,4.289,4.336,4.336,0,0,0,2.339,3.822.36.36,0,0,1,.192.355Z" transform="translate(-51.912 -46.57)" fill="#263238"/>
      </g>
    </g>
  </g>
</svg>
