<svg id="Grupo_1064173" data-name="Grupo 1064173" xmlns="http://www.w3.org/2000/svg" xmlns:xlink="http://www.w3.org/1999/xlink" width="282.51" height="251.64" viewBox="0 0 282.51 251.64">
  <defs>
    <clipPath id="clip-path">
      <rect id="Rectángulo_373478" data-name="Rectángulo 373478" width="282.51" height="251.64" fill="none"/>
    </clipPath>
    <clipPath id="clip-path-3">
      <rect id="Rectángulo_373444" data-name="Rectángulo 373444" width="143.908" height="167" transform="translate(69.35 48.09)" fill="none"/>
    </clipPath>
    <clipPath id="clip-path-4">
      <rect id="Rectángulo_373474" data-name="Rectángulo 373474" width="49.564" height="15.806" transform="translate(111.78 85.928)" fill="none"/>
    </clipPath>
  </defs>
  <g id="Grupo_1064171" data-name="Grupo 1064171" clip-path="url(#clip-path)">
    <g id="Grupo_1064170" data-name="Grupo 1064170">
      <g id="Grupo_1064169" data-name="Grupo 1064169" clip-path="url(#clip-path)">
        <path id="Trazado_777266" data-name="Trazado 777266" d="M139.259,245.41h-.1q-1.467,0-2.924-.034l.024-1q1.445.034,2.9.034Zm3.023-.039-.025-1q1.5-.038,3-.112l.049,1q-1.506.076-3.022.114m-9.068-.1q-1.514-.073-3.018-.183l.073-1q1.493.109,2.993.183Zm15.107-.2-.074-1q1.5-.112,2.987-.26l.1.994c-1,.1-2,.187-3.013.264m-21.136-.245q-1.509-.147-3.006-.333l.123-.992q1.485.183,2.98.329Zm27.153-.357-.125-.992q1.492-.187,2.971-.408l.149.988q-1.491.223-2.995.412m-33.155-.382q-1.5-.221-2.985-.481l.172-.985q1.474.257,2.96.478Zm39.134-.516-.174-.985q1.48-.261,2.948-.556l.2.98q-1.479.3-2.971.561m-45.091-.521q-1.485-.3-2.957-.631l.222-.974q1.458.33,2.932.625Zm51.019-.675-.223-.974q1.465-.336,2.915-.7l.246.968q-1.461.372-2.938.71m-56.916-.661q-1.467-.371-2.921-.777l.269-.963q1.441.4,2.9.771Zm62.775-.831-.271-.963q1.446-.406,2.877-.848l.295.955q-1.443.446-2.9.856m-68.6-.8q-1.453-.446-2.89-.927l.318-.948q1.425.479,2.865.92Zm74.376-.987-.321-.947q1.425-.481,2.83-.993l.344.939q-1.418.518-2.853,1m-80.13-.94q-1.426-.518-2.838-1.071l.365-.931q1.4.549,2.814,1.062Zm85.811-1.133-.367-.93q1.4-.549,2.768-1.13l.388.922q-1.385.585-2.789,1.138M92.1,235.945q-1.4-.591-2.779-1.213l.412-.912q1.37.619,2.756,1.2Zm97.009-1.267-.412-.91q1.363-.62,2.708-1.268l.436.9q-1.357.654-2.732,1.277M86.579,233.451q-1.367-.657-2.713-1.349l.457-.889q1.335.684,2.69,1.338Zm107.964-1.4-.457-.889q1.329-.684,2.642-1.4l.479.877q-1.321.722-2.664,1.412m-113.355-1.37q-1.331-.728-2.642-1.485l.5-.865q1.3.753,2.619,1.471Zm118.65-1.522-.5-.865q1.294-.75,2.57-1.531l.522.853q-1.285.787-2.591,1.543M75.944,227.655q-1.292-.792-2.562-1.613l.542-.84q1.261.814,2.543,1.6Zm129.038-1.641-.543-.84q1.259-.814,2.493-1.658l.565.826q-1.246.851-2.515,1.672M70.86,224.367q-1.25-.854-2.478-1.738l.584-.812q1.218.877,2.458,1.723Zm139.109-1.759-.586-.811q1.215-.877,2.41-1.781l.6.8q-1.2.91-2.427,1.795M65.948,220.83q-1.206-.915-2.389-1.858l.624-.781q1.173.935,2.369,1.843Zm148.831-1.874-.623-.781q1.17-.935,2.318-1.9l.643.765q-1.157.972-2.338,1.914m-153.56-1.9q-1.158-.972-2.293-1.974l.662-.75q1.125.993,2.274,1.958Zm158.188-1.985-.662-.75q1.124-.991,2.223-2.011l.679.732q-1.107,1.029-2.24,2.029M56.684,213.054q-1.108-1.029-2.191-2.084l.7-.715q1.074,1.047,2.173,2.067Zm167.154-2.1-.7-.716q1.072-1.045,2.122-2.12l.714.7q-1.055,1.082-2.136,2.136M52.355,208.833q-1.054-1.08-2.084-2.19l.733-.68q1.02,1.1,2.067,2.171Zm175.7-2.2-.732-.68q1.02-1.1,2.013-2.223l.75.662q-1,1.134-2.031,2.241M48.241,204.4q-1-1.133-1.972-2.29l.766-.643q.965,1.147,1.956,2.27ZM232.065,202.1l-.765-.645q.963-1.145,1.9-2.319l.781.623q-.945,1.184-1.917,2.341M44.354,199.78Q43.41,198.6,42.5,197.4l.8-.606q.906,1.194,1.841,2.364Zm191.486-2.409-.8-.6q.9-1.2,1.785-2.414l.81.584q-.884,1.229-1.8,2.433M40.7,194.968q-.882-1.223-1.734-2.471l.825-.564q.846,1.237,1.721,2.451Zm198.678-2.506-.826-.564q.846-1.239,1.662-2.5l.839.543q-.82,1.271-1.675,2.521M37.294,189.984q-.82-1.266-1.61-2.553l.853-.523q.783,1.276,1.6,2.533Zm205.374-2.606-.854-.522q.785-1.281,1.537-2.581l.866.5q-.759,1.311-1.549,2.6M34.139,184.84q-.754-1.3-1.48-2.629l.878-.48q.717,1.314,1.468,2.607Zm211.562-2.7-.877-.479q.72-1.318,1.406-2.656l.889.457q-.693,1.349-1.418,2.678M31.245,179.547q-.689-1.339-1.346-2.7l.9-.435q.651,1.347,1.335,2.676Zm217.225-2.8-.9-.434q.652-1.353,1.272-2.724l.912.412q-.626,1.383-1.283,2.746M28.621,174.118q-.621-1.371-1.209-2.761l.921-.389q.583,1.377,1.2,2.737Zm222.344-2.9-.922-.389q.584-1.385,1.134-2.785l.931.365q-.555,1.413-1.143,2.809M26.273,168.569q-.554-1.405-1.073-2.828l.939-.343q.515,1.412,1.064,2.8Zm226.907-2.994-.939-.342q.515-1.413.993-2.84l.947.317q-.481,1.441-1,2.865M24.2,162.888q-.483-1.43-.93-2.877l.955-.295q.444,1.434.922,2.853Zm230.913-3.067-.957-.293q.439-1.431.846-2.878l.963.271q-.409,1.456-.852,2.9m-232.7-2.709q-.409-1.452-.784-2.92l.969-.247q.372,1.455.778,2.9ZM256.741,154l-.969-.245q.367-1.452.7-2.916l.975.221q-.336,1.478-.706,2.94M20.917,151.253q-.336-1.472-.637-2.956l.981-.2q.3,1.473.63,2.932ZM258.079,148.1l-.981-.2q.3-1.467.554-2.947l.985.172q-.26,1.492-.558,2.972M19.718,145.326q-.263-1.486-.489-2.984l.99-.149q.222,1.485.483,2.959Zm239.4-3.18-.988-.148q.219-1.479.4-2.971l.992.122q-.185,1.5-.408,3m-240.3-2.8q-.187-1.5-.339-3l.995-.1q.15,1.5.336,2.98Zm241.044-3.2-.995-.1q.148-1.488.257-2.987l1,.073q-.111,1.511-.26,3.013M18.214,133.331q-.114-1.5-.189-3.018l1-.05q.075,1.5.187,2.993Zm242.09-3.216-1-.049q.072-1.494.109-3l1,.025q-.037,1.513-.11,3.021M17.91,127.292q-.037-1.507-.04-3.024h1q0,1.5.04,3Zm241.54-3.22q0-1.5-.038-3l1-.025q.036,1.508.038,3.024ZM18.9,121.268l-1-.023q.036-1.515.108-3.021l1,.048q-.072,1.494-.107,3m240.4-3.193q-.075-1.5-.187-2.993l1-.074q.111,1.5.187,3.018Zm-240.113-2.8-1-.073q.108-1.511.256-3.012l1,.1q-.146,1.489-.254,2.988M258.857,112.1q-.148-1.5-.334-2.98l.992-.124q.188,1.5.336,3.005ZM19.773,109.31l-.992-.122q.184-1.5.405-3l.99.147q-.221,1.479-.4,2.971m238.343-3.166q-.223-1.486-.481-2.96l.984-.173q.261,1.486.485,2.984ZM20.652,103.379l-.986-.172q.261-1.493.555-2.973l.981.2q-.292,1.468-.55,2.949m236.427-3.141q-.3-1.473-.629-2.932l.975-.223q.335,1.473.634,2.957ZM21.826,97.5l-.976-.22q.334-1.478.7-2.941l.969.244q-.366,1.452-.7,2.917M255.749,94.39q-.369-1.455-.776-2.9l.963-.271q.41,1.454.782,2.921ZM23.294,91.684l-.963-.27q.406-1.458.85-2.9l.956.292q-.438,1.433-.843,2.879m230.832-3.066q-.444-1.435-.92-2.855l.947-.318q.481,1.431.928,2.877ZM25.055,85.94l-.948-.317q.483-1.441,1-2.865l.94.341q-.513,1.412-.991,2.841m227.159-3.006q-.515-1.41-1.062-2.8l.93-.367q.554,1.405,1.071,2.829ZM27.107,80.284l-.931-.364q.553-1.415,1.141-2.81l.922.387q-.583,1.386-1.132,2.787m222.917-2.922q-.581-1.378-1.2-2.738l.91-.412q.621,1.371,1.208,2.761ZM29.439,74.742l-.911-.412q.623-1.382,1.279-2.747l.9.433q-.652,1.354-1.27,2.726m218.124-2.826q-.649-1.349-1.333-2.677l.889-.457q.688,1.341,1.345,2.7ZM32.046,69.325l-.89-.456q.692-1.349,1.416-2.678l.878.478q-.719,1.318-1.4,2.656M244.831,66.6q-.718-1.315-1.466-2.609l.865-.5q.755,1.305,1.478,2.631ZM34.92,64.049l-.866-.5q.757-1.311,1.547-2.6l.853.521q-.783,1.281-1.534,2.582m206.915-2.634q-.785-1.277-1.6-2.533l.84-.543q.819,1.266,1.607,2.554ZM38.052,58.925l-.84-.543q.823-1.272,1.675-2.522l.826.564q-.844,1.239-1.661,2.5m200.532-2.536q-.846-1.238-1.72-2.453l.813-.584q.879,1.225,1.733,2.473ZM41.434,53.965l-.811-.584q.884-1.229,1.8-2.434l.8.6q-.906,1.2-1.783,2.415m193.651-2.437q-.906-1.2-1.839-2.366l.781-.623q.942,1.179,1.855,2.384ZM45.058,49.182l-.781-.624q.943-1.182,1.915-2.341l.767.642q-.964,1.15-1.9,2.323m186.29-2.339q-.963-1.149-1.955-2.272l.75-.661q1,1.133,1.971,2.29ZM48.915,44.585l-.75-.661q1-1.135,2.029-2.244l.733.68q-1.02,1.1-2.012,2.225m178.469-2.236q-1.02-1.1-2.067-2.173l.717-.7q1.055,1.083,2.082,2.19ZM52.992,40.187l-.716-.7q1.054-1.083,2.136-2.14l.7.716q-1.074,1.049-2.12,2.122M223.2,38.055q-1.074-1.047-2.172-2.069l.682-.732q1.107,1.029,2.189,2.086ZM57.281,36l-.681-.733q1.107-1.029,2.239-2.029l.662.749q-1.122.991-2.22,2.013M218.8,33.972q-1.124-.993-2.272-1.959l.645-.766q1.156.975,2.29,1.976ZM61.771,32.026l-.644-.765q1.155-.972,2.336-1.916l.624.781q-1.17.936-2.316,1.9m152.442-1.915q-1.173-.937-2.367-1.845l.605-.8q1.2.915,2.387,1.86ZM66.45,28.284l-.6-.8q1.2-.914,2.427-1.8l.585.811q-1.215.876-2.407,1.782m142.984-1.8q-1.217-.878-2.457-1.726l.565-.825q1.249.855,2.476,1.739ZM71.307,24.78l-.565-.826q1.245-.852,2.513-1.674l.544.839q-1.257.815-2.492,1.661m133.169-1.688q-1.259-.816-2.54-1.6l.523-.853q1.292.791,2.562,1.615ZM76.33,21.522l-.523-.853q1.286-.788,2.591-1.546l.5.865q-1.3.751-2.57,1.534m123.027-1.569q-1.3-.753-2.618-1.473l.481-.878q1.327.728,2.639,1.486ZM81.507,18.52l-.48-.877q1.321-.724,2.664-1.415l.458.889q-1.331.685-2.642,1.4m112.579-1.446q-1.336-.687-2.691-1.342l.436-.9q1.365.66,2.712,1.352ZM86.824,15.781l-.436-.9q1.356-.655,2.729-1.28l.414.912q-1.363.617-2.707,1.268M188.673,14.46q-1.37-.618-2.755-1.2l.388-.921q1.4.589,2.779,1.214ZM92.267,13.312l-.389-.921q1.385-.586,2.788-1.141l.367.931q-1.39.549-2.766,1.131m90.867-1.192q-1.4-.549-2.814-1.065l.342-.939q1.427.519,2.837,1.074Zm-85.3-1-.344-.939q1.419-.519,2.853-1l.32.947q-1.422.48-2.829.995m79.643-1.053q-1.425-.48-2.865-.923l.295-.956q1.452.448,2.889.931ZM103.518,9.2l-.3-.956q1.441-.445,2.9-.858l.272.962q-1.444.408-2.875.852m68.22-.9q-1.442-.4-2.9-.774l.246-.97q1.467.373,2.921.781Zm-62.45-.727-.247-.969q1.462-.374,2.939-.711l.223.974q-1.464.336-2.915.706m56.639-.748q-1.461-.333-2.934-.628l.2-.981q1.485.3,2.957.633ZM115.134,6.23l-.2-.981q1.479-.3,2.971-.563l.174.984q-1.479.262-2.946.56m44.912-.592q-1.473-.259-2.96-.481l.148-.989q1.5.223,2.986.484Zm-39.007-.452L120.89,4.2q1.493-.225,3-.414l.125.992q-1.493.188-2.971.411m33.075-.435q-1.485-.185-2.979-.332l.1-1q1.509.148,3.005.335Zm-27.125-.313-.1-1q1.5-.152,3.011-.265l.076,1q-1.5.112-2.987.263m21.158-.278q-1.491-.109-2.992-.183l.049-1q1.514.075,3.017.185Zm-15.178-.173-.051-1q1.506-.076,3.022-.116l.026,1q-1.5.038-3,.115m9.189-.12q-1.494-.038-3-.037h-.2v-1h.192q1.522,0,3.027.037Z" fill="#263238"/>
        <path id="Trazado_777267" data-name="Trazado 777267" d="M238.25,80.8s-40.95-5.34-96.58-62.59v-.79l-.39.39-.38-.39v.79C85.31,75.46,44.35,80.8,44.35,80.8c-14.59,119.92,86.75,161,96.57,164.72v.28l.38-.14.39.14v-.28c9.82-3.72,111.16-44.85,96.56-164.72" fill="#263238"/>
        <path id="Trazado_777268" data-name="Trazado 777268" d="M230.67,84.71s-37.73-4.91-89-57.68V26.3l-.36.37-.35-.37v.73c-51.28,52.8-89,57.68-89,57.68-13.46,110.58,80,148.49,89,151.9v.26l.35-.13.36.13v-.26c9.05-3.41,102.49-41.32,89-151.9" fill="#ffb206"/>
        <g id="Grupo_1064165" data-name="Grupo 1064165" opacity="0.5" style="isolation: isolate">
          <g id="Grupo_1064164" data-name="Grupo 1064164">
            <g id="Grupo_1064163" data-name="Grupo 1064163" clip-path="url(#clip-path-3)">
              <path id="Trazado_777269" data-name="Trazado 777269" d="M212.21,94.41s-30-3.87-70.63-45.75v-.57c-.09.09-.18.19-.28.28l-.28-.28v.57C100.35,90.54,70.4,94.41,70.4,94.41c-10.68,87.7,63.44,117.77,70.62,120.47v.21l.28-.11.28.11v-.21c7.19-2.7,81.3-32.77,70.63-120.47" fill="#fff"/>
            </g>
          </g>
        </g>
        <path id="Trazado_777270" data-name="Trazado 777270" d="M69.5,8.09A20.5,20.5,0,1,1,49,28.59,20.5,20.5,0,0,1,69.5,8.09" fill="#fff"/>
        <path id="Trazado_777271" data-name="Trazado 777271" d="M69.5,50.09A21.5,21.5,0,1,1,91,28.59a21.525,21.525,0,0,1-21.5,21.5m0-41A19.5,19.5,0,1,0,89,28.59,19.523,19.523,0,0,0,69.5,9.09" fill="#263238"/>
        <path id="Trazado_777272" data-name="Trazado 777272" d="M71.44,23.22H66.28V17.54a2.58,2.58,0,0,1,5.16,0Z" fill="#263238"/>
        <path id="Trazado_777273" data-name="Trazado 777273" d="M68.09,19.08a.527.527,0,0,1-.24-.06l-4.38-2.33a.48.48,0,0,1-.27-.44V12.9a.5.5,0,1,1,1,0v3.05l4.12,2.18a.513.513,0,1,1-.23,1Z" fill="#263238"/>
        <path id="Trazado_777274" data-name="Trazado 777274" d="M69.67,19.08a.514.514,0,0,1-.24-1l4.12-2.18v-3a.5.5,0,0,1,1,0v3.35a.49.49,0,0,1-.26.44L69.9,19.02a.462.462,0,0,1-.23.06" fill="#263238"/>
        <path id="Trazado_777275" data-name="Trazado 777275" d="M69.12,19.6A10.84,10.84,0,1,1,58.28,30.44,10.84,10.84,0,0,1,69.12,19.6" fill="#ffb206"/>
        <path id="Trazado_777276" data-name="Trazado 777276" d="M69.12,41.78A11.34,11.34,0,1,1,80.46,30.44,11.353,11.353,0,0,1,69.12,41.78m0-21.68A10.34,10.34,0,1,0,79.46,30.44,10.352,10.352,0,0,0,69.12,20.1" fill="#263238"/>
        <path id="Trazado_777277" data-name="Trazado 777277" d="M50.29,27.85a.505.505,0,0,1-.36-.86l3.87-3.87a.511.511,0,0,1,.5-.12l5.28,1.55a.519.519,0,0,1-.28,1l-5-1.47L50.67,27.7a.5.5,0,0,1-.38.15" fill="#263238"/>
        <path id="Trazado_777278" data-name="Trazado 777278" d="M51.06,34.3a.5.5,0,0,1-.38-.82l2.84-3.36a.491.491,0,0,1,.38-.18h4.38a.5.5,0,0,1,0,1H54.13l-2.69,3.18a.491.491,0,0,1-.38.18" fill="#263238"/>
        <path id="Trazado_777279" data-name="Trazado 777279" d="M54.16,41.52h-.07a.51.51,0,0,1-.43-.56l.52-4.13a.51.51,0,0,1,.2-.35l4.06-2.85a.509.509,0,0,1,.7.12.5.5,0,0,1-.116.7l0,0-3.88,2.73-.49,3.9a.5.5,0,0,1-.49.44" fill="#263238"/>
        <path id="Trazado_777280" data-name="Trazado 777280" d="M87.96,27.85a.507.507,0,0,1-.36-.15l-3.66-3.66-5,1.52a.521.521,0,1,1-.29-1l5.3-1.6a.49.49,0,0,1,.5.12l3.87,3.87a.51.51,0,0,1,0,.71.5.5,0,0,1-.36.19" fill="#263238"/>
        <path id="Trazado_777281" data-name="Trazado 777281" d="M87.18,34.3a.491.491,0,0,1-.38-.18l-2.69-3.18H79.96a.5.5,0,0,1,0-1h4.38a.53.53,0,0,1,.39.18l2.83,3.36a.49.49,0,0,1-.05.691l-.01.009a.467.467,0,0,1-.32.12" fill="#263238"/>
        <path id="Trazado_777282" data-name="Trazado 777282" d="M84.08,41.52a.5.5,0,0,1-.49-.44l-.49-3.91L79.25,34.4a.5.5,0,1,1,.51-.86.473.473,0,0,1,.07.05l4,2.9a.512.512,0,0,1,.21.34l.51,4.13a.5.5,0,0,1-.43.56Z" fill="#263238"/>
        <path id="Trazado_777283" data-name="Trazado 777283" d="M69.62,41.28h-1V26.48l3.3-2.38.59.81L69.62,27Z" fill="#263238"/>
        <path id="Trazado_777284" data-name="Trazado 777284" d="M69.6,34.5l-.44-.89,5.39-2.7V26.06h1v5.47Z" fill="#263238"/>
        <path id="Trazado_777285" data-name="Trazado 777285" d="M68.86,30.87l-4.37-2.73v-4.4h1v3.85l3.9,2.43Z" fill="#263238"/>
        <path id="Trazado_777286" data-name="Trazado 777286" d="M68.85,38.35l-5.91-3.76V30.7h1v3.34l5.45,3.46Z" fill="#263238"/>
        <path id="Trazado_777287" data-name="Trazado 777287" d="M64.92,22.76a1.02,1.02,0,1,1-1.02,1.02,1.02,1.02,0,0,1,1.02-1.02" fill="#263238"/>
        <path id="Trazado_777288" data-name="Trazado 777288" d="M72.41,23.42a1.02,1.02,0,1,1-1.02,1.02,1.02,1.02,0,0,1,1.02-1.02" fill="#263238"/>
        <path id="Trazado_777289" data-name="Trazado 777289" d="M75.98,25.96a1,1,0,1,1-1-1,1,1,0,0,1,1,1" fill="#263238"/>
        <path id="Trazado_777290" data-name="Trazado 777290" d="M64.47,30.56a1,1,0,1,1-1-1,1,1,0,0,1,1,1" fill="#263238"/>
        <path id="Trazado_777291" data-name="Trazado 777291" d="M78.518,10.644A7.67,7.67,0,1,1,82.9,20.568a7.67,7.67,0,0,1-4.379-9.924" fill="#fff"/>
        <path id="Trazado_777292" data-name="Trazado 777292" d="M85.672,22.091a8.691,8.691,0,1,1,3.5-.743,8.674,8.674,0,0,1-3.5.743M79.45,11.005h0A6.67,6.67,0,1,0,88.08,7.2a6.624,6.624,0,0,0-8.63,3.808" fill="#263238"/>
        <rect id="Rectángulo_373445" data-name="Rectángulo 373445" width="14.691" height="2" transform="matrix(0.772, -0.636, 0.636, 0.772, 79.363, 17.316)" fill="#263238"/>
        <path id="Trazado_777293" data-name="Trazado 777293" d="M212.69,8.09a20.5,20.5,0,1,1-20.5,20.5,20.5,20.5,0,0,1,20.5-20.5" fill="#ffb206"/>
        <rect id="Rectángulo_373446" data-name="Rectángulo 373446" width="0.176" height="1.001" transform="translate(223.702 45.322) rotate(-31.053)" fill="#fff"/>
        <path id="Trazado_777294" data-name="Trazado 777294" d="M212.78,49.64a20.871,20.871,0,0,1-11.465-3.421l.549-.837A19.86,19.86,0,0,0,212.78,48.64Z" fill="#fff"/>
        <path id="Trazado_777295" data-name="Trazado 777295" d="M230.8,20.016a20.02,20.02,0,0,0-4.781-6.342l.664-.748a21.029,21.029,0,0,1,5.019,6.657Z" fill="#fff"/>
        <path id="Trazado_777296" data-name="Trazado 777296" d="M212.78,49.64v-1a19.828,19.828,0,0,0,10.9-3.258l.549.836A20.831,20.831,0,0,1,212.78,49.64" fill="#fff"/>
        <path id="Trazado_777297" data-name="Trazado 777297" d="M224.388,46.076l-.555-.832a20.191,20.191,0,0,0,6-6.254l.854.521a21.21,21.21,0,0,1-6.3,6.565" fill="#fff"/>
        <path id="Trazado_777298" data-name="Trazado 777298" d="M230.686,39.513l-.853-.525a19.594,19.594,0,0,0,2.527-6.339l.979.2a20.614,20.614,0,0,1-2.653,6.661" fill="#fff"/>
        <path id="Trazado_777299" data-name="Trazado 777299" d="M201.316,46.219a21.209,21.209,0,0,1-6.453-6.658l.853-.521a20.216,20.216,0,0,0,6.147,6.342Z" fill="#fff"/>
        <path id="Trazado_777300" data-name="Trazado 777300" d="M199.532,13.624l-.664-.747a20.9,20.9,0,0,1,13.9-5.287h.012v1h-.012a19.9,19.9,0,0,0-13.236,5.034" fill="#fff"/>
        <path id="Trazado_777301" data-name="Trazado 777301" d="M226.018,13.624A19.9,19.9,0,0,0,212.783,8.59h0v-1h0a20.9,20.9,0,0,1,13.9,5.287Z" fill="#fff"/>
        <path id="Trazado_777302" data-name="Trazado 777302" d="M233.339,32.9l-.979-.2a19.913,19.913,0,0,0,.42-4.058,19.462,19.462,0,0,0-.146-2.279l.992-.122a20.356,20.356,0,0,1,.154,2.4,20.939,20.939,0,0,1-.441,4.266" fill="#fff"/>
        <path id="Trazado_777303" data-name="Trazado 777303" d="M232.633,26.356a19.6,19.6,0,0,0-1.833-6.339l.9-.434a20.592,20.592,0,0,1,1.927,6.661Z" fill="#fff"/>
        <path id="Trazado_777304" data-name="Trazado 777304" d="M192.181,32.9a20.893,20.893,0,0,1-.431-4.262,20.508,20.508,0,0,1,.144-2.4l.992.118a19.888,19.888,0,0,0,.274,6.34Z" fill="#fff"/>
        <path id="Trazado_777305" data-name="Trazado 777305" d="M194.751,19.967l-.9-.433a21,21,0,0,1,5.019-6.657l.664.748a19.983,19.983,0,0,0-4.781,6.342" fill="#fff"/>
        <path id="Trazado_777306" data-name="Trazado 777306" d="M192.917,26.358l-.994-.115a20.844,20.844,0,0,1,1.927-6.659l.9.433a19.881,19.881,0,0,0-1.833,6.341" fill="#fff"/>
        <path id="Trazado_777307" data-name="Trazado 777307" d="M194.834,39.562a20.822,20.822,0,0,1-2.653-6.66l.978-.205a19.832,19.832,0,0,0,2.527,6.341Z" fill="#fff"/>
        <rect id="Rectángulo_373447" data-name="Rectángulo 373447" width="13.569" height="1" transform="translate(212.781 12.75)" fill="#fff"/>
        <rect id="Rectángulo_373448" data-name="Rectángulo 373448" width="13.58" height="1" transform="translate(199.2 12.75)" fill="#fff"/>
        <rect id="Rectángulo_373449" data-name="Rectángulo 373449" width="36.95" height="1" transform="translate(194.3 19.25)" fill="#fff"/>
        <rect id="Rectángulo_373450" data-name="Rectángulo 373450" width="40.71" height="1" transform="translate(192.42 25.75)" fill="#fff"/>
        <rect id="Rectángulo_373451" data-name="Rectángulo 373451" width="8.739" height="1" transform="translate(224.111 32.25)" fill="#fff"/>
        <rect id="Rectángulo_373452" data-name="Rectángulo 373452" width="9.16" height="1" transform="translate(192.7 32.25)" fill="#fff"/>
        <rect id="Rectángulo_373453" data-name="Rectángulo 373453" width="22.25" height="1" transform="translate(201.86 32.25)" fill="#fff"/>
        <rect id="Rectángulo_373454" data-name="Rectángulo 373454" width="34.97" height="1" transform="translate(195.29 38.75)" fill="#fff"/>
        <rect id="Rectángulo_373455" data-name="Rectángulo 373455" width="0.15" height="1" transform="translate(223.96 45.25)" fill="#fff"/>
        <rect id="Rectángulo_373456" data-name="Rectángulo 373456" width="11.18" height="1" transform="translate(212.78 45.25)" fill="#fff"/>
        <rect id="Rectángulo_373457" data-name="Rectángulo 373457" width="0.271" height="1" transform="translate(201.589 45.25)" fill="#fff"/>
        <rect id="Rectángulo_373458" data-name="Rectángulo 373458" width="10.92" height="1" transform="translate(201.86 45.25)" fill="#fff"/>
        <rect id="Rectángulo_373459" data-name="Rectángulo 373459" width="1" height="5.16" transform="translate(212.28 8.09)" fill="#fff"/>
        <rect id="Rectángulo_373460" data-name="Rectángulo 373460" width="1" height="6" transform="translate(223.61 13.75)" fill="#fff"/>
        <rect id="Rectángulo_373461" data-name="Rectángulo 373461" width="1" height="6" transform="translate(201.36 13.75)" fill="#fff"/>
        <rect id="Rectángulo_373462" data-name="Rectángulo 373462" width="1" height="6.18" transform="translate(212.28 20)" fill="#fff"/>
        <rect id="Rectángulo_373463" data-name="Rectángulo 373463" width="1" height="5.97" transform="translate(223.61 26.78)" fill="#fff"/>
        <rect id="Rectángulo_373464" data-name="Rectángulo 373464" width="1" height="5.97" transform="translate(201.36 26.78)" fill="#fff"/>
        <rect id="Rectángulo_373465" data-name="Rectángulo 373465" width="1" height="6.18" transform="translate(212.28 33)" fill="#fff"/>
        <rect id="Rectángulo_373466" data-name="Rectángulo 373466" width="1" height="3.34" transform="translate(212.28 45.75)" fill="#fff"/>
        <rect id="Rectángulo_373467" data-name="Rectángulo 373467" width="1" height="5.88" transform="translate(223.61 39.78)" fill="#fff"/>
        <path id="Trazado_777308" data-name="Trazado 777308" d="M224.61,45.75h-1l1-.09Z" fill="#fff"/>
        <rect id="Rectángulo_373468" data-name="Rectángulo 373468" width="1" height="5.97" transform="translate(201.36 39.78)" fill="#fff"/>
        <path id="Trazado_777309" data-name="Trazado 777309" d="M212.689,50.09a21.5,21.5,0,1,1,21.5-21.5,21.525,21.525,0,0,1-21.5,21.5m0-41a19.5,19.5,0,1,0,19.5,19.5,19.523,19.523,0,0,0-19.5-19.5" fill="#263238"/>
        <path id="Trazado_777310" data-name="Trazado 777310" d="M240.83,26.8c-3.23,3.16-8.81,4.51-13.16,2.38-3.43-1.68-6.19-4.51-5.59-8.67s4.32-6.47,5.88-10.23c1.67-4,1.78-10.28,1.78-10.28s2.89,3.28,3.22,5.28a24.409,24.409,0,0,1,.34,3.67l2.17-5.79c.48,2,.86,4.1,1.48,6.07,1.1,3.45,4.21,5.19,5.77,8.21s.51,6.96-1.89,9.36" fill="#263238"/>
        <path id="Trazado_777311" data-name="Trazado 777311" d="M232.67,28.74s-3.27-2.42-2.64-5.79,2.74-4,2.74-4a6.389,6.389,0,0,1,2.11,5.06,6.838,6.838,0,0,1-2.21,4.73" fill="#ffb206"/>
        <path id="Trazado_777312" data-name="Trazado 777312" d="M232.67,29.24a.5.5,0,0,1-.3-.1c-.144-.107-3.513-2.648-2.833-6.284s2.989-4.358,3.087-4.387a.494.494,0,0,1,.477.107,6.861,6.861,0,0,1,2.276,5.456,7.288,7.288,0,0,1-2.371,5.074.5.5,0,0,1-.338.132m-.005-9.7a4.647,4.647,0,0,0-2.144,3.5c-.45,2.409,1.361,4.335,2.123,5.024a6.3,6.3,0,0,0,1.737-4.078,5.868,5.868,0,0,0-1.716-4.448" fill="#263238"/>
        <path id="Trazado_777313" data-name="Trazado 777313" d="M21.5,121.59A20.5,20.5,0,1,1,1,142.09a20.5,20.5,0,0,1,20.5-20.5" fill="#ffb206"/>
        <path id="Trazado_777314" data-name="Trazado 777314" d="M21.5,163.09c-9,0-16.33-9.42-16.33-21s7.326-21,16.33-21,16.33,9.42,16.33,21-7.326,21-16.33,21m0-41c-8.453,0-15.33,8.972-15.33,20s6.877,20,15.33,20,15.33-8.972,15.33-20-6.877-20-15.33-20" fill="#fff"/>
        <path id="Trazado_777315" data-name="Trazado 777315" d="M21.5,163.09c-4.486,0-8-9.224-8-21s3.514-21,8-21,8,9.224,8,21-3.514,21-8,21m0-41c-3.794,0-7,9.159-7,20s3.206,20,7,20,7-9.159,7-20-3.206-20-7-20" fill="#fff"/>
        <rect id="Rectángulo_373469" data-name="Rectángulo 373469" width="21.03" height="1" transform="translate(10.82 124.09)" fill="#fff"/>
        <rect id="Rectángulo_373470" data-name="Rectángulo 373470" width="38.56" height="1" transform="translate(2.06 134.53)" fill="#fff"/>
        <rect id="Rectángulo_373471" data-name="Rectángulo 373471" width="40.67" height="1" transform="translate(1 144.97)" fill="#fff"/>
        <rect id="Rectángulo_373472" data-name="Rectángulo 373472" width="32.25" height="1" transform="translate(5.21 155.42)" fill="#fff"/>
        <path id="Trazado_777316" data-name="Trazado 777316" d="M21.5,163.59A21.5,21.5,0,1,1,43,142.09a21.525,21.525,0,0,1-21.5,21.5m0-41A19.5,19.5,0,1,0,41,142.09a19.523,19.523,0,0,0-19.5-19.5" fill="#263238"/>
        <path id="Trazado_777317" data-name="Trazado 777317" d="M35.3,139a7.26,7.26,0,0,0-7.25,7.25V162.8h14.5V146.3a7.26,7.26,0,0,0-7.22-7.3H35.3m-5.25,9.25v-2a5.25,5.25,0,0,1,10.5,0v2Z" fill="#263238"/>
        <path id="Trazado_777318" data-name="Trazado 777318" d="M37.25,153.8a2,2,0,1,0-2.83,1.84l-.53,4.39h2.69l-.53-4.39a2,2,0,0,0,1.2-1.84" fill="#fff"/>
        <path id="Trazado_777319" data-name="Trazado 777319" d="M261.01,121.59a20.5,20.5,0,1,1-20.5,20.5,20.5,20.5,0,0,1,20.5-20.5" fill="#fff"/>
        <path id="Trazado_777320" data-name="Trazado 777320" d="M261.01,163.59a21.5,21.5,0,1,1,21.5-21.5,21.525,21.525,0,0,1-21.5,21.5m0-41a19.5,19.5,0,1,0,19.5,19.5,19.523,19.523,0,0,0-19.5-19.5" fill="#263238"/>
        <path id="Trazado_777321" data-name="Trazado 777321" d="M269.84,137.26H245.39v-9.89h21.16Z" fill="#ffb206"/>
        <path id="Trazado_777322" data-name="Trazado 777322" d="M270.534,137.76H244.89V126.87h22.021Zm-24.644-1h23.257l-2.957-8.89h-20.3Z" fill="#263238"/>
        <rect id="Rectángulo_373473" data-name="Rectángulo 373473" width="31.32" height="21.43" transform="translate(245.39 133.14)" fill="#ffb206"/>
        <path id="Trazado_777323" data-name="Trazado 777323" d="M277.21,155.07H244.89V132.64h32.32Zm-31.32-1h30.32V133.64H245.89Z" fill="#263238"/>
        <path id="Trazado_777324" data-name="Trazado 777324" d="M273.23,139.5a7.26,7.26,0,0,0-7.25,7.25v16.5h14.5V146.8a7.26,7.26,0,0,0-7.22-7.3h-.03m-5.25,9.3v-2a5.25,5.25,0,0,1,10.5,0v2Z" fill="#263238"/>
        <path id="Trazado_777325" data-name="Trazado 777325" d="M275.18,154.27a2,2,0,1,0-2.82,1.84l-.53,4.39h2.68l-.53-4.39a2,2,0,0,0,1.2-1.84" fill="#fff"/>
        <path id="Trazado_777326" data-name="Trazado 777326" d="M132.34,138.09S97.67,156.42,97,158.42s5,39.67,7,53a262.611,262.611,0,0,1,2.34,30.38v5.67h92s6.66-97.67,4.33-98.67-43-14.33-43-14.33Z" fill="#fff"/>
        <path id="Trazado_777327" data-name="Trazado 777327" d="M198.34,247.97h-92a.5.5,0,0,1-.5-.5V241.8a263.025,263.025,0,0,0-2.335-30.312l-.107-.712c-5.305-35.352-7.36-51.057-6.872-52.514.681-2.032,27.406-16.292,35.581-20.614a.465.465,0,0,1,.168-.053l27.33-3.621a.482.482,0,0,1,.22.021c1.662.544,40.718,13.349,43.042,14.346.665.285,1.778.763-.989,50.2-1.358,24.265-3.022,48.722-3.039,48.966a.5.5,0,0,1-.5.466m-91.5-.5h0Zm0-.5h91.033c2.573-37.811,5.849-94.389,4.488-97.757-3.166-1.254-40.433-13.476-42.739-14.232l-27.128,3.593c-13.106,6.931-34.14,18.463-35.031,20.032-.578,2.03,5.068,39.657,6.924,52.022l.108.718a263.958,263.958,0,0,1,2.345,30.444Z" fill="#263238"/>
        <path id="Trazado_777328" data-name="Trazado 777328" d="M168.54,179.5s-3.69-.47-8.7-5.63v0c-5,5.16-8.7,5.63-8.7,5.63-1.32,10.81,7.81,14.52,8.7,14.85.88-.33,10.02-4.04,8.7-14.85" fill="#ffb206"/>
        <path id="Trazado_777329" data-name="Trazado 777329" d="M159.82,195.37a.6.6,0,0,1-.19,0,1,1,0,0,1-.34-.11,14.69,14.69,0,0,1-9.22-15.86,1,1,0,0,1,.87-.87s3.41-.54,8-5.24a1.052,1.052,0,0,1,.73-.49.918.918,0,0,1,.52.06,1.048,1.048,0,0,1,.51.44c4.57,4.64,7.93,5.18,8,5.18a1,1,0,0,1,.85.87,14.691,14.691,0,0,1-9.19,15.85,1.068,1.068,0,0,1-.54.17m-7.83-15.06a12.66,12.66,0,0,0,7.81,13,12.68,12.68,0,0,0,7.82-13c-1.34-.39-4.24-1.59-7.82-5.06C156.22,178.72,153.33,179.92,151.99,180.31Z" fill="#263238"/>
        <path id="Trazado_777330" data-name="Trazado 777330" d="M137.339,247.92a.5.5,0,0,1-.5-.458c-.021-.236-2.019-23.862-2.672-40.353s-.007-48.795,0-49.119a.517.517,0,0,1,.51-.49.5.5,0,0,1,.49.51c-.007.325-.652,32.6,0,49.06s2.648,40.072,2.668,40.308a.5.5,0,0,1-.456.54l-.043,0" fill="#263238"/>
        <path id="Trazado_777331" data-name="Trazado 777331" d="M137.67,171.58a1.83,1.83,0,1,1,1.83-1.83,1.832,1.832,0,0,1-1.83,1.83m0-2.66a.83.83,0,1,0,.83.83.831.831,0,0,0-.83-.83" fill="#263238"/>
        <path id="Trazado_777332" data-name="Trazado 777332" d="M137.67,199.42a1.33,1.33,0,1,1-1.33,1.33,1.329,1.329,0,0,1,1.33-1.33" fill="#fff"/>
        <path id="Trazado_777333" data-name="Trazado 777333" d="M137.67,202.58a1.83,1.83,0,1,1,1.83-1.83,1.832,1.832,0,0,1-1.83,1.83m0-2.66a.83.83,0,1,0,.83.83.831.831,0,0,0-.83-.83" fill="#263238"/>
        <path id="Trazado_777334" data-name="Trazado 777334" d="M140.67,225.09a1.34,1.34,0,1,1-1.34-1.34h.01a1.34,1.34,0,0,1,1.33,1.34" fill="#fff"/>
        <path id="Trazado_777335" data-name="Trazado 777335" d="M139.33,226.93a1.84,1.84,0,1,1,1.84-1.84,1.843,1.843,0,0,1-1.84,1.84m.007-2.68a.84.84,0,1,0,.833.84.843.843,0,0,0-.833-.84" fill="#263238"/>
        <path id="Trazado_777336" data-name="Trazado 777336" d="M176.34,234.09,166,239.42s-13-8.33-17.33-8.67-9.67.34-12.67,3-4.66,4.67-8,4.67-7.33.33-5.33,3,9,2.67,11.67,1.67,6.66-2,6.66-2a10.839,10.839,0,0,0,5.67,4,31.6,31.6,0,0,0,7.33,1s6.34,4,10.34,3.66a23.908,23.908,0,0,0,7-1.66l12.33-3.67s-3.33-8-7.33-10.33" fill="#ababab"/>
        <path id="Trazado_777337" data-name="Trazado 777337" d="M163.842,250.271c-3.834,0-9.106-3.14-9.989-3.684a32.157,32.157,0,0,1-7.308-1.013,11.408,11.408,0,0,1-5.743-3.917c-1,.258-4.109,1.085-6.286,1.9-2.909,1.091-10.076,1.06-12.246-1.838a2.1,2.1,0,0,1-.482-2.226c.552-1.1,2.41-1.574,6.212-1.574,2.681,0,4.192-1.38,6.479-3.47.376-.342.77-.7,1.189-1.074,3.988-3.536,10.99-3.287,13.041-3.124,4.124.323,15.453,7.41,17.317,8.592l10.084-5.2a.5.5,0,0,1,.482.012c4.1,2.387,7.4,10.237,7.54,10.57a.5.5,0,0,1-.319.672l-12.331,3.669a24.187,24.187,0,0,1-7.1,1.679c-.176.016-.356.023-.539.023M141,240.59a.5.5,0,0,1,.4.205,10.392,10.392,0,0,0,5.408,3.816,31.1,31.1,0,0,0,7.2.979.5.5,0,0,1,.258.077c.061.039,6.24,3.9,10.031,3.585a23.345,23.345,0,0,0,6.854-1.626l11.832-3.523c-.784-1.737-3.524-7.415-6.666-9.44l-10.089,5.2a.5.5,0,0,1-.5-.023c-.128-.083-12.943-8.267-17.1-8.593-4.016-.311-9.364.274-12.3,2.876-.416.369-.806.725-1.179,1.066-2.371,2.165-4.084,3.73-7.153,3.73-3.973,0-5.084.556-5.318,1.022-.163.327.121.822.388,1.178,1.811,2.418,8.464,2.488,11.094,1.5,2.666-1,6.551-1.976,6.715-2.017a.5.5,0,0,1,.121-.015" fill="#263238"/>
        <path id="Trazado_777338" data-name="Trazado 777338" d="M145.67,228.09s-4-2.34-6,0S137,242.42,138,243.75s1.67-1.66,3-2.66,4.67-13,4.67-13" fill="#ababab"/>
        <path id="Trazado_777339" data-name="Trazado 777339" d="M138.5,244.585a1.139,1.139,0,0,1-.9-.534c-1.242-1.652-.294-13.964,1.69-16.286,2.246-2.626,6.455-.209,6.633-.107a.5.5,0,0,1,.228.566c-.565,2.031-3.456,12.217-4.85,13.266a5.787,5.787,0,0,0-1.18,1.551c-.491.811-.916,1.511-1.572,1.543H138.5m3.617-17.033a2.6,2.6,0,0,0-2.07.863c-1.81,2.116-2.5,13.908-1.651,15.034a.456.456,0,0,0,.139.142,6.2,6.2,0,0,0,.728-1.068,6.423,6.423,0,0,1,1.433-1.832c.732-.55,2.776-6.637,4.38-12.346a7.308,7.308,0,0,0-2.959-.793" fill="#263238"/>
        <path id="Trazado_777340" data-name="Trazado 777340" d="M152.67,229.42s-5-3-7-1.33-5.67,15-4.67,16.33,4,0,4.34-1.67,6-10.33,6-10.33Z" fill="#ababab"/>
        <path id="Trazado_777341" data-name="Trazado 777341" d="M142.237,245.464a1.968,1.968,0,0,1-1.637-.742c-1.183-1.574,2.634-15.249,4.749-17.015,2.211-1.847,7.036.96,7.578,1.285a.5.5,0,0,1,.2.632l-1.33,3c-2.293,3.518-5.732,9.07-5.967,10.227a3.8,3.8,0,0,1-2.872,2.528,3.258,3.258,0,0,1-.721.085m5.086-17.384a2.036,2.036,0,0,0-1.333.4c-1.9,1.582-5.26,14.483-4.586,15.652.335.446,1.045.342,1.334.276a2.812,2.812,0,0,0,2.111-1.752c.35-1.714,5.488-9.609,6.072-10.5l1.11-2.516a11.642,11.642,0,0,0-4.708-1.551" fill="#263238"/>
        <path id="Trazado_777342" data-name="Trazado 777342" d="M160.67,234.8s-6.33-6-8-5.33-11,14.67-8.67,16.33,10.34-8.33,10.34-8.33l3,2.33" fill="#ababab"/>
        <path id="Trazado_777343" data-name="Trazado 777343" d="M144.6,246.473a1.483,1.483,0,0,1-.885-.266,1.805,1.805,0,0,1-.552-1.813c.476-4,7.52-14.663,9.326-15.388,1.836-.731,6.99,3.972,8.53,5.431a.5.5,0,1,1-.688.726c-2.945-2.791-6.647-5.55-7.469-5.229-1.21.485-8.253,10.773-8.707,14.578-.054.457,0,.778.14.881,1.2.852,5.951-3.609,9.66-8.235a.5.5,0,0,1,.7-.082l3,2.33a.5.5,0,1,1-.614.789l-2.612-2.03c-2.014,2.474-7.061,8.308-9.826,8.308" fill="#263238"/>
        <path id="Trazado_777344" data-name="Trazado 777344" d="M169.34,242.42s-6-9.67-8-9.67S148,243.09,148,243.09s3.34,2.66,4.34,2,6.66-4.34,6.66-4.34,1,5.34,4.67,6.34" fill="#ababab"/>
        <path id="Trazado_777345" data-name="Trazado 777345" d="M163.67,247.59a.506.506,0,0,1-.132-.018c-3.123-.85-4.432-4.459-4.859-6.016-1.479.961-5.264,3.423-6.064,3.951-1.176.781-3.837-1.158-4.926-2.026a.5.5,0,0,1-.026-.76c1.918-1.749,11.589-10.471,13.677-10.471,2.114,0,6.983,7.582,8.425,9.906a.5.5,0,0,1-.85.528c-2.815-4.537-6.512-9.434-7.575-9.434-1.1,0-7.163,4.917-12.561,9.808,1.449,1.069,2.965,1.829,3.286,1.615,1-.661,6.663-4.342,6.663-4.342a.5.5,0,0,1,.763.326c.01.051.99,5.045,4.311,5.951a.5.5,0,0,1-.132.982" fill="#263238"/>
        <path id="Trazado_777346" data-name="Trazado 777346" d="M197.34,147.8s7.66,0,8.33,3.34S207,161.8,207,161.8s29.34,68.67,28.34,71.67-45.67,17.67-47,17.67-12-17-12-17L198,220.47l-11.33-30.38" fill="#fff"/>
        <path id="Trazado_777347" data-name="Trazado 777347" d="M188.34,251.64c-1.328,0-7.489-9.372-12.424-17.234a.5.5,0,0,1,.157-.689l21.317-13.453-11.189-30a.5.5,0,0,1,.938-.35l11.33,30.38a.5.5,0,0,1-.2.6l-21.239,13.4c4.766,7.572,10.246,15.684,11.362,16.336,3.354-.471,45.292-14.686,46.477-17.325.481-2.543-16.675-44.042-28.327-71.311a.516.516,0,0,1-.038-.151c-.007-.073-.665-7.331-1.322-10.607-.483-2.407-5.823-2.937-7.84-2.938a.5.5,0,0,1,0-1c.329,0,8.078.043,8.82,3.742.638,3.181,1.254,9.793,1.331,10.634,4.983,11.663,29.33,68.932,28.324,71.952-1.2,3.6-47.06,18.012-47.475,18.012" fill="#263238"/>
        <path id="Trazado_777348" data-name="Trazado 777348" d="M182.67,188.59h-.031a.5.5,0,0,1-.468-.53c.676-10.757,10.1-19,10.5-19.347a.5.5,0,1,1,.652.756c-.094.082-9.509,8.323-10.157,18.653a.5.5,0,0,1-.5.469" fill="#263238"/>
        <path id="Trazado_777349" data-name="Trazado 777349" d="M179.67,187.59a.5.5,0,0,1-.5-.5,37.859,37.859,0,0,1,5.409-18.561.5.5,0,0,1,.842.541c-.053.082-5.251,8.291-5.251,18.02a.5.5,0,0,1-.5.5" fill="#263238"/>
        <path id="Trazado_777350" data-name="Trazado 777350" d="M217,222.25a.5.5,0,0,1-.486-.386c-1.23-5.231-6.761-6.614-9.514-6.614-2.024,0-6.942,4-8.667,5.543a.5.5,0,1,1-.666-.746c.663-.593,6.562-5.8,9.333-5.8,3.026,0,9.114,1.544,10.486,7.386a.5.5,0,0,1-.372.6.45.45,0,0,1-.114.014" fill="#263238"/>
        <path id="Trazado_777351" data-name="Trazado 777351" d="M219,217.92a.5.5,0,0,1-.458-.3,17.346,17.346,0,0,0-4.529-6.152c-2.218-1.727-8.995,1.616-11.418,3.052a.5.5,0,1,1-.51-.86c.951-.565,9.384-5.442,12.562-2.965a18.343,18.343,0,0,1,4.811,6.525.5.5,0,0,1-.258.658.506.506,0,0,1-.2.042" fill="#263238"/>
        <path id="Trazado_777352" data-name="Trazado 777352" d="M97,158.42l-10,64s-11,8-7,20c1.58,4.74,6,7,26.34,5a214.163,214.163,0,0,0,0-36.33C104.67,189.8,97,158.42,97,158.42" fill="#fff"/>
        <path id="Trazado_777353" data-name="Trazado 777353" d="M93.884,248.655c-10.135,0-13.072-2.218-14.358-6.077-3.791-11.372,5.617-19.332,7.011-20.432l9.969-63.8a.5.5,0,0,1,.473-.423.494.494,0,0,1,.507.381c.077.314,7.7,31.663,9.352,52.75a215.119,215.119,0,0,1,0,36.411.5.5,0,0,1-.449.456c-5.074.5-9.178.737-12.5.737M97.1,161.013,87.494,222.5a.5.5,0,0,1-.2.327c-.107.078-10.654,7.934-6.82,19.438,1.5,4.488,6,6.573,25.4,4.7a214.139,214.139,0,0,0-.034-35.831c-1.378-17.559-6.915-42.289-8.741-50.119M87,222.42h0Z" fill="#263238"/>
        <path id="Trazado_777354" data-name="Trazado 777354" d="M94.67,231.02s6.85.16,7.33.95.48,11.47-1.11,12.59-2.71,1.59-3.35,0-1.75-4.94-1.75-4.94-4.3,4.78-8.45,3.82-4.62-2.86-5.89-3.34-3,.16-5.9-1-6.05-5.41-6.05-5.41-7.65,6.69-9.24,5.89.16-3.34,2.71-6.05,4.3-5.42,6.85-6.06,12.74-1.91,15.93-.95,5.9,2.39,6.21,2.86a12.99,12.99,0,0,0,2.71,1.64" fill="#ababab"/>
        <path id="Trazado_777355" data-name="Trazado 777355" d="M98.718,246.084a1.543,1.543,0,0,1-.444-.064,1.937,1.937,0,0,1-1.2-1.274c-.455-1.131-1.133-3.1-1.5-4.194-1.358,1.3-4.844,4.178-8.348,3.375a9.412,9.412,0,0,1-4.963-2.609,3.37,3.37,0,0,0-.991-.75,5.016,5.016,0,0,0-1.58-.191,11.459,11.459,0,0,1-4.329-.813c-2.471-.988-5.037-4.017-5.936-5.149-2.564,2.212-7.773,6.427-9.393,5.611a1.508,1.508,0,0,1-.856-1.108c-.212-1.2.877-3.02,3.426-5.73.6-.632,1.147-1.265,1.675-1.872,1.78-2.041,3.316-3.8,5.418-4.331,2.549-.638,12.89-1.94,16.2-.943,2.755.829,5.779,2.239,6.42,2.981a12.45,12.45,0,0,0,2.47,1.5c4.662.113,7.234.512,7.643,1.188.574.944.6,11.952-1.249,13.258a4.773,4.773,0,0,1-2.46,1.115M95.79,239.12a.525.525,0,0,1,.1.012.5.5,0,0,1,.372.332c.011.033,1.112,3.352,1.739,4.909.159.4.346.627.554.688.472.14,1.339-.414,2.044-.911,1.149-.808,1.47-10.742.96-11.94-.417-.311-3.922-.62-6.9-.69a.538.538,0,0,1-.193-.044,13.411,13.411,0,0,1-2.814-1.7.505.505,0,0,1-.109-.117A19.866,19.866,0,0,0,85.606,227c-3.092-.93-13.256.352-15.665.956-1.8.451-3.238,2.1-4.907,4.02-.536.615-1.1,1.256-1.7,1.9-2.953,3.138-3.254,4.4-3.171,4.871a.509.509,0,0,0,.321.39c.683.332,4.745-2.375,8.687-5.822a.5.5,0,0,1,.731.079c.03.042,3.1,4.151,5.833,5.245a10.615,10.615,0,0,0,3.987.74,5.755,5.755,0,0,1,1.9.255,4.078,4.078,0,0,1,1.324.96,8.539,8.539,0,0,0,4.5,2.361c3.807.884,7.924-3.621,7.965-3.667a.5.5,0,0,1,.372-.166" fill="#263238"/>
        <path id="Trazado_777356" data-name="Trazado 777356" d="M73.82,225.44s-4.3-.8-4.78,2.07.64,14,1.75,15a2.771,2.771,0,0,0,4.15-1.44c.63-1.91.47-11.94.47-11.94s.48-2.73-1.59-3.69" fill="#ababab"/>
        <path id="Trazado_777357" data-name="Trazado 777357" d="M72.305,243.467a3.258,3.258,0,0,1-1.79-.539c-1.382-1.238-2.439-12.682-1.968-15.5a2.738,2.738,0,0,1,1.154-1.861c1.565-1.094,4.1-.64,4.21-.619a.5.5,0,0,1,.119.038c2.392,1.109,1.9,4.1,1.873,4.231.014.318.161,10.042-.488,12.009a3.281,3.281,0,0,1-.371.765,3.247,3.247,0,0,1-2.07,1.407,3.384,3.384,0,0,1-.669.069m.224-17.63a4.057,4.057,0,0,0-2.257.551,1.746,1.746,0,0,0-.739,1.2c-.489,2.925.687,13.665,1.593,14.547a2.282,2.282,0,0,0,3.082-.7,2.269,2.269,0,0,0,.258-.531c.494-1.5.488-9.007.444-11.773.024-.188.382-2.408-1.242-3.217a7.821,7.821,0,0,0-1.139-.084" fill="#263238"/>
        <path id="Trazado_777358" data-name="Trazado 777358" d="M81.79,227.19s-6.38-4-8-1.75.16,15.77,1,17.53,3.82,2.39,4.46.47.79-9.87,1-10.35" fill="#ababab"/>
        <path id="Trazado_777359" data-name="Trazado 777359" d="M77.5,245.116a3.629,3.629,0,0,1-3.156-1.93c-.81-1.7-2.749-15.546-.954-18.038,1.843-2.554,7.978,1.184,8.671,1.618a.5.5,0,0,1-.531.848c-2.313-1.448-6.349-3.243-7.329-1.882-1.391,1.933.169,15.186,1.046,17.023a2.631,2.631,0,0,0,2.378,1.357,1.2,1.2,0,0,0,1.156-.83,47.659,47.659,0,0,0,.739-7.306,15.73,15.73,0,0,1,.277-3.086.5.5,0,0,1,.916.4c-.046.187-.122,1.487-.194,2.743a45.028,45.028,0,0,1-.79,7.564,2.179,2.179,0,0,1-2.042,1.512c-.062,0-.125.006-.187.006" fill="#263238"/>
        <path id="Trazado_777360" data-name="Trazado 777360" d="M85.45,229.42c-.16.48,0,14.5-1.91,15.46s-4.62.95-4.62-5.42.32-14.18,2.07-14.82,6.69,2.08,8.45,3.67" fill="#ababab"/>
        <path id="Trazado_777361" data-name="Trazado 777361" d="M81.834,245.843a2.678,2.678,0,0,1-1.43-.4c-1.316-.811-1.984-2.826-1.984-5.987,0-12.773,1.281-14.881,2.4-15.29,2.088-.755,7.311,2.28,8.957,3.769a.5.5,0,1,1-.67.742c-1.829-1.652-6.537-4.086-7.943-3.571-.408.149-1.741,1.626-1.741,14.35,0,3.477.821,4.712,1.508,5.137a2.508,2.508,0,0,0,2.387-.163c.559-.281,1.283-2.774,1.552-13.053a12.476,12.476,0,0,1,.109-2.119.5.5,0,0,1,.959.281c-.025.168-.047.992-.069,1.864-.21,8.047-.636,13.183-2.1,13.919a4.334,4.334,0,0,1-1.931.517" fill="#263238"/>
        <path id="Trazado_777362" data-name="Trazado 777362" d="M95.81,240.12a.5.5,0,0,1-.487-.389l-1.44-6.37a.5.5,0,0,1,.975-.22l1.44,6.369a.5.5,0,0,1-.377.6.524.524,0,0,1-.111.012" fill="#263238"/>
        <path id="Trazado_777363" data-name="Trazado 777363" d="M123.6,137.98v18.17l9.22-6.59Z" fill="#bababa"/>
        <path id="Trazado_777364" data-name="Trazado 777364" d="M123.6,156.65a.5.5,0,0,1-.5-.5V137.98a.5.5,0,0,1,.891-.311l9.221,11.579a.5.5,0,0,1-.1.719l-9.22,6.59a.5.5,0,0,1-.291.093m.5-17.239v15.767l8-5.719Z" fill="#263238"/>
        <path id="Trazado_777365" data-name="Trazado 777365" d="M134.66,157.99,123.6,137.98l10.8-7.65Z" fill="#fff"/>
        <path id="Trazado_777366" data-name="Trazado 777366" d="M134.66,158.49a.5.5,0,0,1-.437-.258l-11.06-20.01a.5.5,0,0,1,.148-.65l10.8-7.65a.5.5,0,0,1,.517-.037.5.5,0,0,1,.272.44l.26,27.66a.5.5,0,0,1-.5.505m-10.406-20.36,9.888,17.889-.233-24.728Z" fill="#263238"/>
        <path id="Trazado_777367" data-name="Trazado 777367" d="M131.23,125.86s2.11,18.17,2.64,23.44.79,8.7.79,8.7,16.33-19,19.49-23.19,3.95-5.53,3.95-5.53l.8-19.49Z" fill="#ababab"/>
        <path id="Trazado_777368" data-name="Trazado 777368" d="M134.661,158.5a.5.5,0,0,1-.5-.462c0-.035-.264-3.486-.788-8.688s-2.618-23.251-2.639-23.432a.5.5,0,0,1,.245-.491l27.671-16.069a.5.5,0,0,1,.751.453l-.8,19.489a.506.506,0,0,1-.069.234c-.034.055-.841,1.412-3.981,5.576s-19.347,23.026-19.511,23.216a.5.5,0,0,1-.378.174m-2.9-32.372c.287,2.475,2.117,18.3,2.6,23.122.343,3.41.575,6.071.7,7.514,3.291-3.838,15.971-18.651,18.688-22.256,2.625-3.481,3.613-4.995,3.855-5.38l.758-18.448Z" fill="#263238"/>
        <path id="Trazado_777369" data-name="Trazado 777369" d="M131.67,129.67a12.21,12.21,0,0,0,11.27,1.86c7-2.57,9-7,10.53-8.53,1-1,3.1-2.38,5.05-4l.38-9.21-27.67,16.07s.18,1.52.44,3.81" fill="#263238"/>
        <path id="Trazado_777370" data-name="Trazado 777370" d="M139.057,132.662a12.683,12.683,0,0,1-7.689-2.594.5.5,0,0,1-.194-.342c-.26-2.288-.44-3.806-.44-3.807a.5.5,0,0,1,.245-.492l27.671-16.069a.5.5,0,0,1,.751.453l-.381,9.21a.5.5,0,0,1-.181.364c-.87.723-1.78,1.406-2.583,2.009a25.738,25.738,0,0,0-2.432,1.96,13.161,13.161,0,0,0-1.039,1.273A19.856,19.856,0,0,1,143.112,132a12.748,12.748,0,0,1-4.055.663m-6.914-3.263a11.692,11.692,0,0,0,10.638,1.657,18.7,18.7,0,0,0,9.207-7.034,13.865,13.865,0,0,1,1.129-1.375,26.136,26.136,0,0,1,2.539-2.053c.741-.556,1.574-1.181,2.374-1.838l.334-8.076-26.6,15.448c.064.539.2,1.713.378,3.271" fill="#263238"/>
        <path id="Trazado_777371" data-name="Trazado 777371" d="M142.04,141.14l-7.38,16.85,12.91-8.43Z" fill="#bababa"/>
        <path id="Trazado_777372" data-name="Trazado 777372" d="M134.66,158.49a.5.5,0,0,1-.458-.7l7.38-16.85a.5.5,0,0,1,.876-.073l5.53,8.42a.494.494,0,0,1,.072.376.5.5,0,0,1-.216.316l-12.91,8.431a.506.506,0,0,1-.274.081m7.468-16.305-6.337,14.47,11.086-7.24Z" fill="#263238"/>
        <path id="Trazado_777373" data-name="Trazado 777373" d="M142.04,141.14l6.05,16.33,17.92-23.18-5.27-10.8Z" fill="#fff"/>
        <path id="Trazado_777374" data-name="Trazado 777374" d="M148.09,157.97a.465.465,0,0,1-.075-.006.5.5,0,0,1-.394-.32l-6.05-16.33a.5.5,0,0,1,.126-.537l18.7-17.65a.5.5,0,0,1,.792.144l5.27,10.8a.5.5,0,0,1-.054.525l-17.92,23.18a.5.5,0,0,1-.4.194m-5.466-16.693,5.621,15.174,17.179-22.22-4.835-9.911Z" fill="#263238"/>
        <path id="Trazado_777375" data-name="Trazado 777375" d="M123.38,56.68a28,28,0,0,0-10.51,15.58c-2.43,10.19,2.71,21.26,3.09,24.67s-1.08,7.84.53,12.05,8.73,10.88,9.87,14,7.52,8.74,14.46,6.2,9.12-7,10.7-8.54,6-4.12,8.14-7,3.49-4.94,3.49-4.94,5.62-13.81,6.1-26.12-6.82-26.27-20.61-30.11-25.26,4.21-25.26,4.21" fill="#ababab"/>
        <path id="Trazado_777376" data-name="Trazado 777376" d="M137.223,130.328a12.352,12.352,0,0,1-6.054-1.69,12.035,12.035,0,0,1-5.279-5.486c-.5-1.378-2.328-3.594-4.26-5.941-2.321-2.818-4.72-5.733-5.607-8.052-1.061-2.775-.839-5.644-.643-8.176a22.114,22.114,0,0,0,.083-4,28.162,28.162,0,0,0-.991-3.852c-1.47-4.958-3.932-13.256-2.088-20.989a28.584,28.584,0,0,1,10.7-15.866l.01-.007c.117-.081,11.826-8.142,25.681-4.282C163.171,56,170.224,70.422,169.75,82.6c-.478,12.256-6.08,26.15-6.137,26.289-.058.106-1.427,2.191-3.551,5.05a28.458,28.458,0,0,1-5.776,5.147A27.022,27.022,0,0,0,151.868,121a14.608,14.608,0,0,0-1.092,1.292,20.727,20.727,0,0,1-9.784,7.36,10.893,10.893,0,0,1-3.769.678M123.671,57.087a27.576,27.576,0,0,0-10.316,15.3c-1.781,7.464.634,15.6,2.076,20.464a28.332,28.332,0,0,1,1.026,4.026,22.9,22.9,0,0,1-.08,4.185c-.2,2.545-.4,5.177.58,7.742.828,2.166,3.281,5.145,5.445,7.774,1.988,2.414,3.865,4.7,4.428,6.233a11.158,11.158,0,0,0,4.832,4.959,10.566,10.566,0,0,0,8.987.943,19.566,19.566,0,0,0,9.342-7.041,15.28,15.28,0,0,1,1.18-1.388,27.176,27.176,0,0,1,2.52-2,27.753,27.753,0,0,0,5.568-4.94c2.1-2.833,3.46-4.9,3.474-4.916.01-.051,5.546-13.788,6.017-25.865.459-11.785-6.347-25.739-20.244-29.609-13.3-3.7-24.566,3.948-24.835,4.135" fill="#263238"/>
        <g id="Grupo_1064168" data-name="Grupo 1064168" opacity="0.5" style="isolation: isolate">
          <g id="Grupo_1064167" data-name="Grupo 1064167">
            <g id="Grupo_1064166" data-name="Grupo 1064166" clip-path="url(#clip-path-4)">
              <path id="Trazado_777377" data-name="Trazado 777377" d="M112.18,89.8s.19,8.12,3.14,10.25,9.31,2,11.88.93,4.06-6.49,5.14-8.05,4.59-.73,4.59-.73,2.51,7.1,4.5,7.91,8.28,2.2,12.68-.1,5.26-11.21,5.26-11.21,2.56-.49,1.85-1.81-20.23-1.3-22.54-.54-2.61,1.8-3.87,1.78-3-1.34-4.26-1.36-18.77.29-18.77.29Z" fill="#fff"/>
            </g>
          </g>
        </g>
        <path id="Trazado_777378" data-name="Trazado 777378" d="M148.67,52.54c-13.79-3.84-25.26,4.14-25.26,4.14a28.468,28.468,0,0,0-9.5,12.38c.55-1.3,2.81-6.1,7-7.17,4.87-1.25,4.94,3.2,11.09,1.7s15.71-6.35,19.93-3.94,7.56,7.43,5.84,12.65-1.89,9.14-.16,10.47,3.83,5.55,4,8.17c.13,2.16,3,3.63,6.05,3.24a65.648,65.648,0,0,0,1.63-11.53c.45-12.3-6.86-26.27-20.62-30.11" fill="#263238"/>
        <path id="Trazado_777379" data-name="Trazado 777379" d="M166.691,94.742a6.8,6.8,0,0,1-4.268-1.368,3.375,3.375,0,0,1-1.312-2.4c-.159-2.446-2.152-6.531-3.806-7.8-1.874-1.44-1.878-5.355-.011-11.023,1.688-5.12-1.726-9.841-5.613-12.059-2.815-1.61-8.546.37-13.6,2.115-2.148.741-4.177,1.441-5.961,1.876a7.848,7.848,0,0,1-6.612-.93,5.211,5.211,0,0,0-4.471-.771c-3.906,1-6.089,5.518-6.665,6.88a.5.5,0,0,1-.925-.379,28.949,28.949,0,0,1,9.667-12.6c.13-.09,11.838-8.08,25.691-4.22h0c14.365,4.009,21.431,18.433,20.986,30.61a66.449,66.449,0,0,1-1.643,11.625.5.5,0,0,1-.424.382,8.138,8.138,0,0,1-1.032.066M148.938,58.486a6.475,6.475,0,0,1,3.239.73c4.229,2.415,7.931,7.587,6.067,13.241-1.674,5.082-1.8,8.789-.329,9.917,1.861,1.431,4.016,5.818,4.194,8.534a2.443,2.443,0,0,0,.952,1.7,5.989,5.989,0,0,0,4.191,1.116,65.4,65.4,0,0,0,1.539-11.1c.43-11.778-6.389-25.733-20.256-29.6-13.408-3.734-24.727,3.99-24.84,4.069a27.9,27.9,0,0,0-5.681,5.652,8.074,8.074,0,0,1,2.772-1.337,6.173,6.173,0,0,1,5.206.866,6.918,6.918,0,0,0,5.89.833c1.738-.424,3.745-1.117,5.87-1.85,3.963-1.368,8.023-2.769,11.186-2.769" fill="#263238"/>
        <path id="Trazado_777380" data-name="Trazado 777380" d="M129.83,107.16a2.655,2.655,0,0,1-1.921-.824c-1.413-1.012-.615-3.022.09-4.041a.5.5,0,0,1,.823.569c-.013.019-1.324,1.951-.259,2.721a1.7,1.7,0,0,0,2.205.283.5.5,0,1,1,.564.825,2.65,2.65,0,0,1-1.5.467" fill="#263238"/>
        <path id="Trazado_777381" data-name="Trazado 777381" d="M134.494,107.366a3.686,3.686,0,0,1-.468-.029,8.52,8.52,0,0,1-4.266-2,.5.5,0,0,1,.659-.752,7.5,7.5,0,0,0,3.75,1.762c2,.257,4.19-1.845,4.214-1.866a.5.5,0,0,1,.694.719c-.1.094-2.27,2.166-4.583,2.166" fill="#263238"/>
        <path id="Trazado_777382" data-name="Trazado 777382" d="M138.9,106.713a1.689,1.689,0,0,1-1.408-.632.5.5,0,0,1,.819-.574c.035.045.559.614,2.133-.353a.517.517,0,0,1,.132-.057,2.011,2.011,0,0,0,1.192-1,2.607,2.607,0,0,0-.336-2.208.5.5,0,1,1,.887-.463,3.516,3.516,0,0,1,.361,3.08,2.979,2.979,0,0,1-1.767,1.53,3.952,3.952,0,0,1-2.013.674" fill="#263238"/>
        <path id="Trazado_777383" data-name="Trazado 777383" d="M134.622,113a18.739,18.739,0,0,1-6.243-1.048.5.5,0,0,1,.361-.933c.076.029,7.59,2.851,14.058-1.343a.5.5,0,1,1,.545.839A15.853,15.853,0,0,1,134.622,113" fill="#263238"/>
        <path id="Trazado_777384" data-name="Trazado 777384" d="M147.27,93.52c-.05,1.37-.72,2.48-1.49,2.47s-1.35-1.14-1.29-2.51.72-2.48,1.49-2.47,1.35,1.13,1.29,2.51" fill="#263238"/>
        <path id="Trazado_777385" data-name="Trazado 777385" d="M127.49,93.66c0,1.38-.72,2.48-1.49,2.47s-1.35-1.13-1.29-2.5.72-2.48,1.49-2.47,1.35,1.13,1.29,2.5" fill="#263238"/>
        <path id="Trazado_777386" data-name="Trazado 777386" d="M122.3,102.233c-2.655,0-5.523-.516-7.271-1.777-3.048-2.2-3.328-9.961-3.346-10.612l-.395-2.609a.5.5,0,0,1,.112-.4.5.5,0,0,1,.373-.178c.715-.012,17.531-.313,18.787-.29a6.476,6.476,0,0,1,2.326.724,5.9,5.9,0,0,0,1.934.637A2.23,2.23,0,0,0,136.1,87.2a8.937,8.937,0,0,1,2.419-1.221c1.943-.639,22.149-1.057,23.136.779a1.29,1.29,0,0,1,.063,1.215,2.967,2.967,0,0,1-1.9,1.238c-.216,1.738-1.362,9.091-5.485,11.246-4.431,2.317-10.74,1.083-13.1.12-1.974-.8-4.159-6.494-4.687-7.941-1.034-.2-3.141-.373-3.8.583a15.719,15.719,0,0,0-1.06,2.156c-1.034,2.338-2.319,5.247-4.3,6.071a14.356,14.356,0,0,1-5.094.791M112.36,87.65l.314,2.076c0,.02,0,.042.006.063,0,.078.218,7.9,2.932,9.856s8.845,1.935,11.4.874c1.612-.671,2.858-3.492,3.769-5.552a15.986,15.986,0,0,1,1.153-2.321c1.239-1.79,4.723-1.025,5.116-.933a.5.5,0,0,1,.357.321c.941,2.663,2.918,7.085,4.216,7.614,2.131.868,8.18,2.052,12.261-.081,4.107-2.147,4.985-10.729,4.993-10.815a.5.5,0,0,1,.4-.442c.523-.1,1.376-.417,1.543-.771.02-.041.061-.126-.04-.312-1.271-.986-19.826-1-21.943-.3a7.941,7.941,0,0,0-2.171,1.1,3.192,3.192,0,0,1-1.863.706,6.47,6.47,0,0,1-2.326-.724,5.917,5.917,0,0,0-1.934-.637c-1.115-.017-15.155.227-18.182.28" fill="#263238"/>
        <path id="Trazado_777387" data-name="Trazado 777387" d="M161.22,87.01l8.21,4.03-.56,1.3-9.5-3.52Z" fill="#263238"/>
        <path id="Trazado_777388" data-name="Trazado 777388" d="M168.87,92.84a.507.507,0,0,1-.174-.031l-9.5-3.52a.5.5,0,0,1-.176-.827l1.85-1.81a.5.5,0,0,1,.57-.091l8.21,4.03a.5.5,0,0,1,.238.647l-.559,1.3a.5.5,0,0,1-.459.3m-8.586-4.215,8.314,3.081.184-.427-7.466-3.665Z" fill="#263238"/>
        <path id="Trazado_777389" data-name="Trazado 777389" d="M138.67,86.47c-2.31.75-2.61,1.8-3.87,1.78s-3-1.34-4.26-1.36-18.77.29-18.77.29l.24,1.56,18.35-.28s2.68-.22,2.33,1.86c-.5,2.9-.36,2.62-.36,2.62,1.07-1.56,4.59-.73,4.59-.73l.25.67c-.17-1.32-.31-3.38.39-4.07,1.06-1,5.86-.71,10.18-.92a75.742,75.742,0,0,1,11.62.93l1.76-1.9c-1.56-1.23-20.19-1.19-22.45-.45" fill="#263238"/>
        <path id="Trazado_777390" data-name="Trazado 777390" d="M132.316,93.447a.469.469,0,0,1-.151-.025c-.476-.157-.475-.246.031-3.187a.946.946,0,0,0-.172-.842,2.312,2.312,0,0,0-1.625-.434l-18.381.281a.457.457,0,0,1-.5-.424l-.24-1.56a.5.5,0,0,1,.485-.576c.715-.013,17.543-.3,18.787-.29a6.456,6.456,0,0,1,2.326.724,5.882,5.882,0,0,0,1.934.636,1.978,1.978,0,0,0,1.279-.533,8.833,8.833,0,0,1,2.429-1.223c2.178-.711,21.136-.868,22.914.534a.5.5,0,0,1,.057.732l-1.759,1.9a.5.5,0,0,1-.446.154,75.378,75.378,0,0,0-11.543-.924c-1.16.057-2.381.077-3.551.1-2.651.043-5.656.093-6.286.687-.14.139-.6.836-.236,3.642a.5.5,0,0,1-.965.239l-.153-.412c-1.036-.2-3.149-.375-3.806.58a.517.517,0,0,1-.426.224m-1.713-5.5a3.016,3.016,0,0,1,2.157.764,1.911,1.911,0,0,1,.423,1.688c-.109.63-.186,1.1-.241,1.455a6.78,6.78,0,0,1,3.607-.231c-.09-1.606.129-2.649.659-3.173.876-.826,3.217-.9,6.963-.967,1.16-.019,2.37-.039,3.545-.1a76.486,76.486,0,0,1,11.459.9l1.1-1.189c-3.365-.88-19.379-.829-21.45-.151h0a7.783,7.783,0,0,0-2.175,1.1,3.023,3.023,0,0,1-1.857.705,6.453,6.453,0,0,1-2.326-.723,5.886,5.886,0,0,0-1.934-.637c-1.119-.009-15.152.227-18.181.28l.087.564,17.914-.274c.029,0,.119-.009.251-.009m8.067-1.481h0Z" fill="#263238"/>
        <path id="Trazado_777391" data-name="Trazado 777391" d="M161.67,95.92s6.16-8.31,9.13-6.44.6,10.49-1.33,14.4-6.53,4.89-7.42,1.74" fill="#ababab"/>
        <path id="Trazado_777392" data-name="Trazado 777392" d="M164.516,107.994c-.108,0-.215-.005-.318-.015a2.909,2.909,0,0,1-2.629-2.223.5.5,0,0,1,.963-.272,1.907,1.907,0,0,0,1.756,1.5c1.484.14,3.569-.963,4.734-3.325,2.205-4.467,3.933-12.231,1.512-13.755-1.871-1.186-6.186,3.246-8.462,6.314a.5.5,0,1,1-.8-.6c.659-.888,6.534-8.622,9.8-6.565,3.344,2.105.857,10.981-1.149,15.044a6.514,6.514,0,0,1-5.4,3.893" fill="#263238"/>
        <path id="Trazado_777393" data-name="Trazado 777393" d="M123.53,247.09H46.2l-9.72-53.67h77.33Z" fill="#263238"/>
        <path id="Trazado_777394" data-name="Trazado 777394" d="M123.53,247.59H46.2a.5.5,0,0,1-.493-.411l-9.719-53.67a.5.5,0,0,1,.492-.589h77.33a.5.5,0,0,1,.492.411l9.72,53.67a.5.5,0,0,1-.492.589m-76.913-1h76.314l-9.539-52.67H37.078Z" fill="#263238"/>
        <path id="Trazado_777395" data-name="Trazado 777395" d="M120.53,247.09H43.2l-9.72-53.67h77.33Z" fill="#ffb206"/>
        <path id="Trazado_777396" data-name="Trazado 777396" d="M120.53,247.59H43.2a.5.5,0,0,1-.493-.411l-9.719-53.67a.5.5,0,0,1,.492-.589h77.33a.5.5,0,0,1,.492.411l9.72,53.67a.5.5,0,0,1-.492.589m-76.913-1h76.314l-9.539-52.67H34.078Z" fill="#263238"/>
        <path id="Trazado_777397" data-name="Trazado 777397" d="M46.2,247.09h74.33l-7.16-39.53Z" fill="#263238"/>
        <path id="Trazado_777398" data-name="Trazado 777398" d="M120.53,247.59H46.2a.5.5,0,0,1-.254-.931l67.171-39.53a.489.489,0,0,1,.461-.023.5.5,0,0,1,.284.365l7.16,39.53a.5.5,0,0,1-.492.589m-72.495-1h71.9l-6.925-38.235Z" fill="#263238"/>
        <rect id="Rectángulo_373475" data-name="Rectángulo 373475" width="121.58" height="3.25" transform="translate(43.2 247.09)" fill="#ffb206"/>
        <path id="Trazado_777399" data-name="Trazado 777399" d="M164.78,250.84H43.2a.5.5,0,0,1-.5-.5v-3.25a.5.5,0,0,1,.5-.5H164.78a.5.5,0,0,1,.5.5v3.25a.5.5,0,0,1-.5.5m-121.08-1H164.281v-2.25H43.7Z" fill="#263238"/>
        <rect id="Rectángulo_373476" data-name="Rectángulo 373476" width="43.21" height="3.25" transform="translate(121.57 247.09)" fill="#263238"/>
        <path id="Trazado_777400" data-name="Trazado 777400" d="M164.78,250.84H121.57a.5.5,0,0,1-.5-.5v-3.25a.5.5,0,0,1,.5-.5h43.21a.5.5,0,0,1,.5.5v3.25a.5.5,0,0,1-.5.5m-42.71-1h42.21v-2.25H122.07Z" fill="#263238"/>
      </g>
    </g>
  </g>
</svg>
