<svg id="Grupo_1064189" data-name="Grupo 1064189" xmlns="http://www.w3.org/2000/svg" xmlns:xlink="http://www.w3.org/1999/xlink" width="239.229" height="249.662" viewBox="0 0 239.229 249.662">
  <defs>
    <clipPath id="clip-path">
      <rect id="Rect치ngulo_373492" data-name="Rect치ngulo 373492" width="239.229" height="249.662" fill="none"/>
    </clipPath>
  </defs>
  <g id="Grupo_1064188" data-name="Grupo 1064188" clip-path="url(#clip-path)">
    <path id="Trazado_777581" data-name="Trazado 777581" d="M27.133,122.054a.346.346,0,0,1-.057,0L12.2,119.879a.4.4,0,0,1-.337-.433A119.243,119.243,0,0,1,36.739,58.04a.4.4,0,0,1,.565-.059L48.853,67.6a.4.4,0,0,1,.059.548A103.607,103.607,0,0,0,27.526,121.7a.4.4,0,0,1-.394.357m-14.442-2.9,14.09,2.056A104.4,104.4,0,0,1,48.053,67.962L37.111,58.851a118.45,118.45,0,0,0-24.42,60.3" transform="translate(-2.465 -12.032)" fill="gray"/>
    <path id="Trazado_777582" data-name="Trazado 777582" d="M141.674,291.943A120.181,120.181,0,0,1,61.993,261.73a.4.4,0,0,1-.133-.272.4.4,0,0,1,.1-.287l9.973-11.248a.4.4,0,0,1,.559-.033,104.71,104.71,0,0,0,110.53,17.644.4.4,0,0,1,.52.207l5.973,13.808a.393.393,0,0,1,0,.3.4.4,0,0,1-.212.218,119.9,119.9,0,0,1-47.634,9.873M62.815,261.4a119.754,119.754,0,0,0,125.814,20.1l-5.658-13.082A105.462,105.462,0,0,1,72.263,250.744Z" transform="translate(-12.857 -51.919)" fill="gray"/>
    <path id="Trazado_777583" data-name="Trazado 777583" d="M132.8,224.91a105.4,105.4,0,0,1-69.528-26.083l-9.7,10.952a.394.394,0,0,1-.558.033A120.206,120.206,0,0,1,18.68,157.834a.4.4,0,0,1,.025-.309.4.4,0,0,1,.24-.2l108.1-31.568a.4.4,0,0,1,.407.643l-52.1,58.774A86.178,86.178,0,0,0,97.182,199.21l32.746-74.139a.4.4,0,0,1,.251-.22l1.413-.414-.761-.821-1.283-1.323-5.022-5.419L58.7,46.025,48.471,34.973a.4.4,0,0,1,.013-.551A118.923,118.923,0,0,1,132.451,0h.153a.4.4,0,0,1,.4.4V119.989l9.35,86.223a85.869,85.869,0,0,0,24.785-6.6.4.4,0,0,1,.3,0,.4.4,0,0,1,.219.211l6.9,16a.4.4,0,0,1-.208.52A104.656,104.656,0,0,1,132.8,224.91M63.242,197.871a.394.394,0,0,1,.263.1,104.716,104.716,0,0,0,110.165,17.8L167.084,200.5a86.665,86.665,0,0,1-25.045,6.544.392.392,0,0,1-.436-.352l-8.893-82.01a.424.424,0,0,1-.012.062.4.4,0,0,1-.271.274l-1.85.543L97.747,199.893a.4.4,0,0,1-.219.209.388.388,0,0,1-.3-.007,86.944,86.944,0,0,1-22.687-14.586.4.4,0,0,1-.033-.559l51.45-58.042L19.562,157.974a119.422,119.422,0,0,0,33.681,50.983L62.946,198a.4.4,0,0,1,.3-.133M49.314,34.718,71.145,58.263l53.961,58.073,5.514,5.949.782.781,1.206,1.3a.405.405,0,0,1,.084.142l-.472-4.35L80.856,49.9a.4.4,0,0,1,.086-.553A87.037,87.037,0,0,1,123.2,32.98a.4.4,0,0,1,.436.352l8.573,79.329V.792A118.113,118.113,0,0,0,49.314,34.718M81.73,49.754l50.32,68.83-9.161-84.774A86.242,86.242,0,0,0,81.73,49.754" transform="translate(-3.878)" fill="gray"/>
    <path id="Trazado_777584" data-name="Trazado 777584" d="M37.294,125.477a.341.341,0,0,1-.056,0l-6.258-.9a.4.4,0,0,1-.338-.431A104.4,104.4,0,0,1,52.19,70.2a.4.4,0,0,1,.27-.151.39.39,0,0,1,.3.09L57.606,74.2a.4.4,0,0,1,.059.547,97.116,97.116,0,0,0-19.976,50.373.4.4,0,0,1-.394.359m-5.826-1.629,5.472.783A97.913,97.913,0,0,1,56.8,74.561l-4.24-3.547a103.61,103.61,0,0,0-21.1,52.833" transform="translate(-6.368 -14.56)" fill="gray"/>
    <path id="Trazado_777585" data-name="Trazado 777585" d="M134.1,157.923a.4.4,0,0,1-.3-.659l4.851-5.472H52.4a.4.4,0,1,1,0-.792h87.137a.4.4,0,0,1,.3.658L134.4,157.79a.4.4,0,0,1-.3.133" transform="translate(-10.808 -31.385)" fill="gray"/>
    <path id="Trazado_777586" data-name="Trazado 777586" d="M30.5,151.792H.4A.4.4,0,1,1,.4,151H30.5a.4.4,0,1,1,0,.792" transform="translate(0 -31.385)" fill="gray"/>
    <path id="Trazado_777587" data-name="Trazado 777587" d="M45.4,279.841a.4.4,0,0,1-.3-.659l13.348-15.06a.4.4,0,1,1,.593.526l-13.348,15.06a.4.4,0,0,1-.3.133" transform="translate(-9.353 -54.87)" fill="gray"/>
    <path id="Trazado_777588" data-name="Trazado 777588" d="M74.836,247.157a.4.4,0,0,1-.3-.659l11.565-13.055a.4.4,0,0,1,.593.525L75.132,247.024a.4.4,0,0,1-.3.133" transform="translate(-15.472 -48.493)" fill="gray"/>
    <path id="Trazado_777589" data-name="Trazado 777589" d="M214.232,226.29a.4.4,0,0,1-.364-.238l-2.526-5.822a.393.393,0,0,1,0-.3.4.4,0,0,1,.211-.219,97.831,97.831,0,0,0,22-166.336.394.394,0,0,1-.063-.556l3.961-4.967a.4.4,0,0,1,.556-.063A105,105,0,0,1,214.39,226.258a.4.4,0,0,1-.158.032m-2.006-6.013,2.212,5.1a104.107,104.107,0,0,0,62.374-95.448h0a103.44,103.44,0,0,0-38.99-81.271L234.355,53a98.622,98.622,0,0,1-22.129,167.277" transform="translate(-43.921 -9.915)" fill="gray"/>
    <path id="Trazado_777590" data-name="Trazado 777590" d="M225.888,60.071a.4.4,0,0,1-.248-.086A86.2,86.2,0,0,0,206.716,48.5a.394.394,0,0,1-.2-.522L211,37.826a.4.4,0,0,1,.522-.2,98.554,98.554,0,0,1,21.522,13.028.4.4,0,0,1,.063.556L226.2,59.922a.4.4,0,0,1-.265.147l-.044,0M207.4,47.94a86.994,86.994,0,0,1,18.425,11.178l6.415-8.093A97.8,97.8,0,0,0,211.562,38.51Z" transform="translate(-42.917 -7.813)" fill="gray"/>
    <path id="Trazado_777591" data-name="Trazado 777591" d="M244.586,41.488a.4.4,0,0,1-.311-.642l21.238-26.7a.4.4,0,0,1,.31-.149h23.765a.4.4,0,0,1,0,.792H266.015L244.9,41.339a.4.4,0,0,1-.311.149" transform="translate(-50.755 -2.91)" fill="gray"/>
    <path id="Trazado_777592" data-name="Trazado 777592" d="M162.4,133.9a.4.4,0,0,1-.31-.643l54.246-68.188a.4.4,0,0,1,.62.494l-54.246,68.189a.4.4,0,0,1-.311.149" transform="translate(-33.672 -13.494)" fill="gray"/>
    <path id="Trazado_777593" data-name="Trazado 777593" d="M107.14,71.938a.386.386,0,0,1-.06,0,.4.4,0,0,1-.26-.158L97.156,58.554A.4.4,0,0,1,97.242,58,87.037,87.037,0,0,1,139.5,41.632a.4.4,0,0,1,.436.352l1.759,16.278a.4.4,0,0,1-.352.436,70.074,70.074,0,0,0-33.965,13.162.4.4,0,0,1-.234.077M98.03,58.407l9.2,12.582a70.87,70.87,0,0,1,33.635-13.034l-1.673-15.491A86.242,86.242,0,0,0,98.03,58.407" transform="translate(-20.178 -8.653)" fill="gray"/>
    <path id="Trazado_777594" data-name="Trazado 777594" d="M173.858,256.046a.4.4,0,0,1-.394-.353L171.951,242a.4.4,0,0,1,.35-.436,70.354,70.354,0,0,0,21.143-5.775.4.4,0,0,1,.306-.007.4.4,0,0,1,.221.212l5.544,12.832a.4.4,0,0,1-.206.521,86.672,86.672,0,0,1-25.409,6.7l-.042,0M172.782,242.3l1.427,12.911a85.841,85.841,0,0,0,24.422-6.441l-5.229-12.1a71.166,71.166,0,0,1-20.62,5.63" transform="translate(-35.739 -49.001)" fill="gray"/>
    <path id="Trazado_777595" data-name="Trazado 777595" d="M139.641,220.464a88.016,88.016,0,0,1-35.431-7.446.4.4,0,0,1-.2-.523l32.563-73.724-2.2.642L82.082,198.4a.4.4,0,0,1-.558.033,87.423,87.423,0,0,1-29.443-65.5c0-2.687.123-5.364.366-7.958A86.989,86.989,0,0,1,70.1,79.713a87.93,87.93,0,0,1,7.512-8.586,86.861,86.861,0,0,1,10.345-8.881.4.4,0,0,1,.553.086l51.427,70.343a.391.391,0,0,1,.074.191l9.332,86.662a.4.4,0,0,1-.352.436,87.657,87.657,0,0,1-9.345.5m-34.748-8.013a87.185,87.185,0,0,0,43.615,6.767l-9.278-86.161L88.1,63.12a86.231,86.231,0,0,0-9.932,8.566,87.247,87.247,0,0,0-7.444,8.509,86.2,86.2,0,0,0-17.49,44.852c-.241,2.571-.363,5.223-.363,7.887a86.632,86.632,0,0,0,28.88,64.642l52.1-58.774a.392.392,0,0,1,.185-.117l3.129-.911a.4.4,0,0,1,.473.54Z" transform="translate(-10.825 -12.922)" fill="gray"/>
    <path id="Trazado_777596" data-name="Trazado 777596" d="M212.506,36.973a.408.408,0,0,1-.16-.033.4.4,0,0,1-.2-.523l2.289-5.181a.4.4,0,1,1,.724.32l-2.289,5.181a.4.4,0,0,1-.362.236" transform="translate(-44.087 -6.443)" fill="gray"/>
    <path id="Trazado_777597" data-name="Trazado 777597" d="M162.4,130.874a.411.411,0,0,1-.16-.033.4.4,0,0,1-.2-.523L197.244,50.6a.4.4,0,1,1,.724.32l-35.21,79.722a.4.4,0,0,1-.363.236" transform="translate(-33.671 -10.467)" fill="gray"/>
    <path id="Trazado_777598" data-name="Trazado 777598" d="M150.1,38.047a.4.4,0,0,1-.394-.353L147.9,21.018a.4.4,0,0,1,.787-.085L150.5,37.608a.4.4,0,0,1-.352.436l-.043,0" transform="translate(-30.741 -4.277)" fill="gray"/>
    <path id="Trazado_777599" data-name="Trazado 777599" d="M137.453,140.776a.411.411,0,0,1-.16-.033L42.235,98.759a.4.4,0,0,1,.321-.726l95.058,41.984a.4.4,0,0,1-.161.759" transform="translate(-8.73 -20.369)" fill="gray"/>
    <path id="Trazado_777600" data-name="Trazado 777600" d="M38.958,162.352a.387.387,0,0,1-.248-.088.393.393,0,0,1-.146-.266A99.722,99.722,0,0,1,38,151.4a.4.4,0,0,1,.4-.4h11.09a.395.395,0,0,1,.4.4,87.175,87.175,0,0,0,.5,9.321.4.4,0,0,1-.351.436L39,162.349l-.043,0m-.166-10.559c.013,3.239.186,6.508.518,9.727l10.239-1.111c-.294-2.851-.448-5.745-.459-8.616Z" transform="translate(-7.898 -31.385)" fill="gray"/>
    <path id="Trazado_777601" data-name="Trazado 777601" d="M31.976,165.732a.4.4,0,0,1-.042-.79l5.648-.61a.4.4,0,0,1,.085.787l-5.648.61-.043,0" transform="translate(-6.564 -34.156)" fill="gray"/>
    <path id="Trazado_777602" data-name="Trazado 777602" d="M56.5,213.12a.4.4,0,0,1-.234-.715l83.888-61.329a.4.4,0,1,1,.467.639L56.73,213.044a.385.385,0,0,1-.233.077" transform="translate(-11.66 -31.385)" fill="gray"/>
    <path id="Trazado_777603" data-name="Trazado 777603" d="M109.4,267.768a.4.4,0,0,1-.362-.556l6.773-15.336a.4.4,0,0,1,.725.32l-6.773,15.336a.4.4,0,0,1-.363.236" transform="translate(-22.655 -52.303)" fill="gray"/>
    <path id="Trazado_777604" data-name="Trazado 777604" d="M159.485,157.012a.387.387,0,0,1-.158-.033.4.4,0,0,1-.2-.522l2.306-5.221a.4.4,0,1,1,.725.32l-2.305,5.219a.4.4,0,0,1-.363.237" transform="translate(-33.067 -31.385)" fill="gray"/>
    <path id="Trazado_777605" data-name="Trazado 777605" d="M176.829,291.858a.4.4,0,0,1-.394-.368l-1.418-19.669-1.195-11.012a.4.4,0,0,1,.351-.437.4.4,0,0,1,.436.351l1.2,11.027,1.419,19.683a.4.4,0,0,1-.366.424h-.029" transform="translate(-36.128 -54.118)" fill="gray"/>
    <path id="Trazado_777606" data-name="Trazado 777606" d="M237.217,254.138a.394.394,0,0,1-.319-.162L227,240.43a.4.4,0,0,1,.638-.467l9.9,13.546a.4.4,0,0,1-.086.553.39.39,0,0,1-.234.077" transform="translate(-47.165 -49.842)" fill="gray"/>
    <path id="Trazado_777607" data-name="Trazado 777607" d="M257.454,193.776a.4.4,0,0,1-.161-.034l-95.057-41.984a.4.4,0,1,1,.321-.725l95.057,41.985a.4.4,0,0,1-.16.758" transform="translate(-33.672 -31.385)" fill="gray"/>
    <path id="Trazado_777608" data-name="Trazado 777608" d="M162.4,148.862a.4.4,0,0,1-.042-.79L265.665,136.9a.4.4,0,1,1,.086.787L162.438,148.859l-.043,0" transform="translate(-33.671 -28.455)" fill="gray"/>
    <path id="Trazado_777609" data-name="Trazado 777609" d="M262.506,77.731a.4.4,0,0,1-.234-.715l4.587-3.36a.4.4,0,0,1,.469.639l-4.587,3.359a.393.393,0,0,1-.234.077" transform="translate(-54.479 -15.293)" fill="gray"/>
    <path id="Trazado_777610" data-name="Trazado 777610" d="M162.4,138.3a.4.4,0,0,1-.234-.716l70.343-51.426a.4.4,0,0,1,.468.64l-70.345,51.426a.388.388,0,0,1-.232.076" transform="translate(-33.672 -17.892)" fill="gray"/>
    <path id="Trazado_777611" data-name="Trazado 777611" d="M145.8,68.48C136.07,77.542,111.172,86.7,82.14,106.115c0,0,1.814,65.63,63.657,101.506Z" transform="translate(-17.073 -14.234)" fill="#ffb206"/>
    <path id="Trazado_777612" data-name="Trazado 777612" d="M145.693,207.913a.394.394,0,0,1-.2-.053,127.568,127.568,0,0,1-55.19-64.4c-8.116-20.717-8.661-37.268-8.665-37.433a.4.4,0,0,1,.176-.34,425.491,425.491,0,0,1,39.421-22.889c10.843-5.73,19.408-10.255,24.187-14.707a.4.4,0,0,1,.666.29V207.517a.4.4,0,0,1-.4.4M82.44,106.217c.093,2.01,1.043,17.667,8.613,36.978A126.773,126.773,0,0,0,145.3,206.827V69.266c-4.956,4.328-13.278,8.725-23.691,14.227A426.271,426.271,0,0,0,82.44,106.217" transform="translate(-16.969 -14.13)" fill="#263238"/>
    <path id="Trazado_777613" data-name="Trazado 777613" d="M162.5,68.48c9.728,9.062,34.625,18.219,63.657,37.635,0,0-1.814,65.63-63.657,101.506Z" transform="translate(-33.776 -14.234)" fill="#263238"/>
    <path id="Trazado_777614" data-name="Trazado 777614" d="M162.4,207.913a.4.4,0,0,1-.2-.053.4.4,0,0,1-.2-.343V68.375a.4.4,0,0,1,.666-.289c4.779,4.452,13.344,8.977,24.188,14.707a425.665,425.665,0,0,1,39.42,22.888.4.4,0,0,1,.176.34c0,.165-.549,16.717-8.665,37.433a127.566,127.566,0,0,1-55.189,64.405.4.4,0,0,1-.2.054m.4-138.648V206.827A126.77,126.77,0,0,0,217.035,143.2c7.571-19.312,8.52-34.969,8.613-36.979a426.217,426.217,0,0,0-39.166-22.723c-10.413-5.5-18.736-9.9-23.691-14.228" transform="translate(-33.672 -14.13)" fill="#263238"/>
    <path id="Trazado_777615" data-name="Trazado 777615" d="M147.021,75.53c-11.74,8.151-32.09,15.914-58.991,33.912,0,0,1.687,60.813,58.991,94.052C204.326,170.255,206,109.482,206,109.482c-26.894-18.037-47.149-25.8-58.984-33.952" transform="translate(-18.297 -15.699)" fill="#263238"/>
    <path id="Trazado_777616" data-name="Trazado 777616" d="M146.917,203.786a.4.4,0,0,1-.2-.054,118.234,118.234,0,0,1-51.155-59.689c-7.523-19.2-8.03-34.542-8.034-34.695a.4.4,0,0,1,.176-.34,399.429,399.429,0,0,1,40.007-23.173c7.881-4.107,14.105-7.352,18.979-10.735a.393.393,0,0,1,.451,0c4.863,3.349,11.314,6.717,18.784,10.616a399.332,399.332,0,0,1,40.195,23.333.4.4,0,0,1,.175.34c0,.153-.509,15.485-8.029,34.675a118.222,118.222,0,0,1-51.151,59.669.4.4,0,0,1-.2.054M88.331,109.544a115.627,115.627,0,0,0,7.982,34.24,117.454,117.454,0,0,0,50.6,59.148,117.435,117.435,0,0,0,50.6-59.129,115.526,115.526,0,0,0,7.979-34.221A399.3,399.3,0,0,0,165.56,86.419c-7.378-3.851-13.766-7.186-18.642-10.512-4.888,3.361-11.362,6.735-18.84,10.631a399.5,399.5,0,0,0-39.748,23.006" transform="translate(-18.193 -15.595)" fill="#263238"/>
    <path id="Trazado_777617" data-name="Trazado 777617" d="M221.484,109.492c-26.933-18-47.149-25.761-58.984-33.912V203.5c57.3-33.239,58.984-94.012,58.984-94.012" transform="translate(-33.776 -15.709)" fill="#ffb206"/>
    <path id="Trazado_777618" data-name="Trazado 777618" d="M162.4,203.8a.394.394,0,0,1-.4-.4V75.476a.4.4,0,0,1,.621-.326c4.885,3.365,11.367,6.748,18.874,10.666a404.382,404.382,0,0,1,40.1,23.242.4.4,0,0,1,.176.34c0,.153-.509,15.485-8.029,34.676a118.225,118.225,0,0,1-51.151,59.669.4.4,0,0,1-.2.053m.4-127.572V202.71a117.434,117.434,0,0,0,50.2-58.9,115.519,115.519,0,0,0,7.979-34.221,404.315,404.315,0,0,0-39.847-23.075,205.7,205.7,0,0,1-18.336-10.295" transform="translate(-33.672 -15.605)" fill="#263238"/>
    <path id="Trazado_777619" data-name="Trazado 777619" d="M178.216,140.087H134.252a3.612,3.612,0,0,1-3.652-3.572h0V116.243c0-13.839,11.494-25.1,25.634-25.1s25.666,11.288,25.666,25.1v20.247a3.62,3.62,0,0,1-3.643,3.6h-.04M137.9,132.958h36.661V116.243a18.338,18.338,0,0,0-36.661,0Z" transform="translate(-27.145 -18.943)" fill="#fff"/>
    <path id="Trazado_777620" data-name="Trazado 777620" d="M178.176,140.379h-.026l-.038-.4v.4H134.148a4.033,4.033,0,0,1-2.843-1.142,3.984,3.984,0,0,1-1.2-2.822V116.139c0-14.061,11.677-25.5,26.03-25.5,14.37,0,26.062,11.439,26.062,25.5v20.247a4.021,4.021,0,0,1-4.015,3.992m-.064-.792h.047a3.231,3.231,0,0,0,3.241-3.2V116.139c0-13.623-11.336-24.707-25.27-24.707-13.916,0-25.238,11.084-25.238,24.707V136.41a3.215,3.215,0,0,0,3.252,3.177Zm-3.652-6.337H137.8a.4.4,0,0,1-.4-.4V116.139a18.734,18.734,0,0,1,37.453-.012v16.726a.4.4,0,0,1-.4.4m-36.265-.4h0Zm0-.4h35.869V116.139a17.942,17.942,0,0,0-35.869.012Z" transform="translate(-27.041 -18.839)" fill="#263238"/>
    <rect id="Rect치ngulo_373491" data-name="Rect치ngulo 373491" width="55.973" height="46.301" transform="translate(100.738 111.376)" fill="#fff"/>
    <path id="Trazado_777621" data-name="Trazado 777621" d="M183.039,187.193H127.066a.4.4,0,0,1-.4-.4V140.5a.4.4,0,0,1,.4-.4h55.973a.4.4,0,0,1,.4.4v46.3a.4.4,0,0,1-.4.4m-55.577-.792h55.181V140.892H127.462Z" transform="translate(-26.328 -29.12)" fill="#263238"/>
    <path id="Trazado_777622" data-name="Trazado 777622" d="M166.651,163.327a6.1,6.1,0,0,0-12.191,0,5.948,5.948,0,0,0,3.169,5.252l-1.022,10.52h7.834l-1.022-10.52a5.949,5.949,0,0,0,3.232-5.252" transform="translate(-32.104 -32.725)" fill="#263238"/>
    <path id="Trazado_777623" data-name="Trazado 777623" d="M164.337,179.39H156.5a.4.4,0,0,1-.394-.435l1-10.261a6.33,6.33,0,0,1-3.146-5.471,6.5,6.5,0,0,1,12.983-.015v.017a6.321,6.321,0,0,1-3.208,5.472l1,10.258a.4.4,0,0,1-.394.435m-7.4-.792H163.9l-.98-10.085a.4.4,0,0,1,.213-.391,5.534,5.534,0,0,0,3.017-4.893,5.7,5.7,0,0,0-11.4.008,5.537,5.537,0,0,0,2.958,4.888.4.4,0,0,1,.209.389Z" transform="translate(-32 -32.621)" fill="#263238"/>
    <path id="Trazado_777624" data-name="Trazado 777624" d="M136.94,271.6h15.9v-9.775H143.61l-.935-2.392H136.94Z" transform="translate(-28.463 -53.922)" fill="#ffb206"/>
    <path id="Trazado_777625" data-name="Trazado 777625" d="M153.131,271.89H136.44V258.93h6.4l.935,2.392h9.354Zm-15.9-.792h15.106v-8.984h-9.1l-.936-2.392h-5.068Z" transform="translate(-28.359 -53.818)" fill="#263238"/>
    <path id="Trazado_777626" data-name="Trazado 777626" d="M136.94,291.539h15.9v-9.775H143.61l-.935-2.384H136.94Z" transform="translate(-28.463 -58.069)" fill="#ffb206"/>
    <path id="Trazado_777627" data-name="Trazado 777627" d="M153.131,291.832H136.44V278.88h6.4l.935,2.384h9.354Zm-15.9-.792h15.106v-8.983h-9.1l-.935-2.384h-5.069Z" transform="translate(-28.359 -57.965)" fill="#263238"/>
    <path id="Trazado_777628" data-name="Trazado 777628" d="M136.94,311.479h15.9V301.7H143.61l-.935-2.384H136.94Z" transform="translate(-28.463 -62.213)" fill="#263238"/>
    <path id="Trazado_777629" data-name="Trazado 777629" d="M153.131,311.771H136.44V298.819h6.4l.935,2.385h9.354Zm-15.9-.792h15.106V302h-9.1l-.935-2.385h-5.069Z" transform="translate(-28.359 -62.109)" fill="#263238"/>
    <path id="Trazado_777630" data-name="Trazado 777630" d="M168.94,271.6h15.9v-9.775H175.61l-.935-2.392H168.94Z" transform="translate(-35.114 -53.922)" fill="#ffb206"/>
    <path id="Trazado_777631" data-name="Trazado 777631" d="M185.131,271.89H168.44V258.93h6.4l.935,2.392h9.355Zm-15.9-.792h15.106v-8.984h-9.1l-.936-2.392h-5.068Z" transform="translate(-35.01 -53.818)" fill="#263238"/>
    <path id="Trazado_777632" data-name="Trazado 777632" d="M168.94,291.539h15.9v-9.775H175.61l-.935-2.384H168.94Z" transform="translate(-35.114 -58.069)" fill="#263238"/>
    <path id="Trazado_777633" data-name="Trazado 777633" d="M185.131,291.832H168.44V278.88h6.4l.935,2.384h9.355Zm-15.9-.792h15.106v-8.983h-9.1l-.935-2.384h-5.069Z" transform="translate(-35.01 -57.965)" fill="#263238"/>
    <path id="Trazado_777634" data-name="Trazado 777634" d="M168.94,311.479h15.9V301.7H175.61l-.935-2.384H168.94Z" transform="translate(-35.114 -62.213)" fill="#ffb206"/>
    <path id="Trazado_777635" data-name="Trazado 777635" d="M185.131,311.771H168.44V298.819h6.4l.935,2.385h9.355Zm-15.9-.792h15.106V302h-9.1l-.935-2.385h-5.069Z" transform="translate(-35.01 -62.109)" fill="#263238"/>
    <path id="Trazado_777636" data-name="Trazado 777636" d="M136.94,20.6h15.9V10.822H143.61l-.935-2.392H136.94Z" transform="translate(-28.463 -1.752)" fill="#ffb206"/>
    <path id="Trazado_777637" data-name="Trazado 777637" d="M153.131,20.89H136.44V7.93h6.4l.935,2.392h9.354Zm-15.9-.792h15.106V11.114h-9.1L142.3,8.722h-5.068Z" transform="translate(-28.359 -1.648)" fill="#263238"/>
    <path id="Trazado_777638" data-name="Trazado 777638" d="M136.94,40.539h15.9V30.764H143.61l-.935-2.384H136.94Z" transform="translate(-28.463 -5.899)" fill="#ffb206"/>
    <path id="Trazado_777639" data-name="Trazado 777639" d="M153.131,40.832H136.44V27.88h6.4l.935,2.384h9.354Zm-15.9-.792h15.106V31.057h-9.1l-.935-2.384h-5.069Z" transform="translate(-28.359 -5.795)" fill="#263238"/>
    <path id="Trazado_777640" data-name="Trazado 777640" d="M136.94,60.479h15.9V50.7H143.61l-.935-2.384H136.94Z" transform="translate(-28.463 -10.043)" fill="#ffb206"/>
    <path id="Trazado_777641" data-name="Trazado 777641" d="M153.131,60.772H136.44V47.82h6.4l.935,2.384h9.354Zm-15.9-.792h15.106V51h-9.1l-.935-2.384h-5.069Z" transform="translate(-28.359 -9.939)" fill="#263238"/>
    <path id="Trazado_777642" data-name="Trazado 777642" d="M168.94,20.6h15.9V10.822H175.61l-.935-2.392H168.94Z" transform="translate(-35.114 -1.752)" fill="#263238"/>
    <path id="Trazado_777643" data-name="Trazado 777643" d="M185.131,20.89H168.44V7.93h6.4l.935,2.392h9.355Zm-15.9-.792h15.106V11.114h-9.1L174.3,8.722h-5.068Z" transform="translate(-35.01 -1.648)" fill="#263238"/>
    <path id="Trazado_777644" data-name="Trazado 777644" d="M168.94,40.539h15.9V30.764H175.61l-.935-2.384H168.94Z" transform="translate(-35.114 -5.899)" fill="#ffb206"/>
    <path id="Trazado_777645" data-name="Trazado 777645" d="M185.131,40.832H168.44V27.88h6.4l.935,2.384h9.355Zm-15.9-.792h15.106V31.057h-9.1l-.935-2.384h-5.069Z" transform="translate(-35.01 -5.795)" fill="#263238"/>
    <path id="Trazado_777646" data-name="Trazado 777646" d="M168.94,60.479h15.9V50.7H175.61l-.935-2.384H168.94Z" transform="translate(-35.114 -10.043)" fill="#263238"/>
    <path id="Trazado_777647" data-name="Trazado 777647" d="M185.131,60.772H168.44V47.82h6.4l.935,2.384h9.355Zm-15.9-.792h15.106V51h-9.1l-.935-2.384h-5.069Z" transform="translate(-35.01 -9.939)" fill="#263238"/>
  </g>
</svg>
